<svg width="93" height="105" viewBox="0 0 93 105" fill="none" xmlns="http://www.w3.org/2000/svg">
<path d="M2.85396 16.2659C-0.109406 38.6507 -11.0115 80.9763 44.5504 105C105.323 86.8191 88.0046 25.6215 86.8595 16.2659C80.504 13.848 70.0548 0.373443 70.5571 0.0490529C55.0671 -0.024681 43.5574 -0.00745634 20.0732 0.0490529C17.9868 3.61502 16.4073 8.55637 2.85396 16.2659Z" id="bg" fill="#04D361"/>
<path d="M86.0568 50.3333H4.16585C3.60496 46.3489 5.77176 19.4536 5.77176 19.4536C5.77176 19.4536 19.2333 10.4885 22.3182 3.2666H68.5922C68.5922 3.2666 75.323 13.9749 84.0169 18.7065C84.5778 23.9361 87.3823 35.6406 86.0568 50.3333Z" id="mt" fill="none"/>
<path d="M86.3374 50.3334H3.8855C5.77182 74.4893 18.9529 90.4273 44.4737 101.385C71.6624 92.9832 82.4454 76.7248 86.3374 50.3334Z" id="mb" fill="none"/>
<path d="M3.80859 47.345C4.64992 25.4303 6.89353 18.4575 6.89353 18.4575C17.2701 13.2278 22.0377 3.2666 22.0377 3.2666L44.5505 3.26661L44.4736 101.136C16.4288 89.1822 2.96727 69.2597 3.80859 47.345Z" id="ml" fill="none"/>
<path d="M86.5026 47.2081C85.6347 25.2377 83.3202 18.2471 83.3202 18.2471C72.6158 13.0041 67.6976 3.01758 67.6976 3.01758L44.4736 3.01758L44.5529 101.136C70.2748 95.4079 87.3705 69.1786 86.5026 47.2081Z" id="mr" fill=""/>
<path d="M45.1115 101.136C35.7976 98.1969 32.2221 95.2283 24.9192 90.6761H66.706C56.6526 95.8011 56.6456 97.9623 45.1115 101.136Z" id="lh" fill="none"/>
<path d="M9.21411 69.7576L13.1066 79.7188H77.5489L81.0089 69.7576H9.21411Z" id="lh" fill="none"/>
<path d="M3.04419 49.8353L4.03514 59.7965H85.5722L86.0569 49.8353H3.04419Z" id="lh" fill="none"/>
<path d="M4.16602 29.9128L4.64151 39.8741H86.1393L86.6179 29.9128H4.16602Z" id="lh" fill="none"/>
<path d="M17.3879 9.99109L6.30481 19.9523H84.4762L74.0385 9.99109H17.3879Z" id="lh" fill="none"/>
<path d="M82.6914 16.9631L86.6177 32.403L85.4959 57.8041L82.6914 66.7692V16.9631Z" id="lv" fill="none"/>
<path d="M60.2556 3.5155L68.6691 3.83426L71.4736 7.63945V85.9745L60.2556 94.6607V3.5155Z" id="lv" fill="none"/>
<path d="M39.5024 4.01355H50.7204V99.6916C46.1552 101.675 43.7078 101.557 39.5024 99.6916V4.01355Z" id="lv" fill="none"/>
<path d="M17.6274 9.67361L22.1146 3.85522L28.8454 3.5155V93.1665L17.6274 84.3367V9.67361Z" id="lv" fill="none"/>
<path d="M7.45447 16.9633L4.45202 32.4032L5.30986 57.8043L7.45447 66.7694V16.9633Z" id="lv" fill="none"/>
<path d="M6.29619 18.7563C4.45919 38.4726 -7.79322 80.1938 44.5505 101.385C100.275 85.2049 84.9023 23.8581 83.9401 18.7563C79.6661 16.0249 72.363 9.80798 68.6823 3.3363C54.8031 3.39438 37.9468 3.46731 22.4744 3.3363C19.3502 8.39275 14.7213 14.3293 6.29619 18.7563Z" id="base" stroke="white" stroke-width="2" fill="none"/>
</svg>
