<svg width="90" height="106" viewBox="0 0 90 106" fill="none" xmlns="http://www.w3.org/2000/svg">
<path d="M1.15684 13.484C1.15684 13.484 -3.98224 81.4781 44.9662 105.508C98.5054 87.3225 89.1084 13.484 89.1084 13.484C57.9888 -5.59689 29.0464 -1.62935 1.15684 13.484Z" id="bg" fill="#04D361"/>
<path d="M84.5645 50.4381H7.97376C7.97376 50.4381 3.97267 23.0234 4.44718 16.0625C35.6206 0.4816 53.5999 -0.0946403 86.7204 15.8134C87.2145 21.0445 87.4616 36.7377 84.5645 50.4381Z" id="mt" fill="none"/>
<path d="M84.3175 50.4382H8.22083C11.8591 73.3554 28.9068 94.2797 44.9661 101.504C68.9185 93.0998 78.8143 77.341 84.3175 50.4382Z" id="mb" fill="none"/>
<path d="M44.9662 3.9856L44.9662 101.254C21.0007 88.7995 4.96517 65.8046 4.44719 16.0625C19.5008 8.08826 29.1565 6.41345 44.9662 3.9856Z" id="ml" fill="none"/>
<path d="M44.9661 4.10571V101.254C68.9316 94.2797 88.8768 67.874 86.9675 16.1677C71.5467 8.20331 61.1614 6.53057 44.9661 4.10571Z" id="mr" fill="none"/>
<path d="M44.9661 101.255C36.7609 98.3151 35.1611 95.3457 28.7274 90.7922H64.058C55.8371 96.7707 55.1273 98.0804 44.9661 101.255Z" id="lh" fill="none"/>
<path d="M14.8917 69.8678L20.2974 79.8318H73.6103L78.635 69.8678H14.8917Z" id="lh" fill="none"/>
<path d="M7.47974 49.9401L10.5026 59.904H82.6292L85.0587 49.9401H7.47974Z" id="lh" fill="none"/>
<path d="M4.51501 30.0121L6.11363 39.9761H86.5564L87.0353 30.0121H4.51501Z" id="lh" fill="none"/>
<path d="M18.4424 10.0848L4.65654 15.565L4.42261 20.0488H87.4371L87.141 16.0632L74.9857 10.0848H18.4424Z" id="lh" fill="none"/>
<path d="M85.485 48.226L86.9674 16.2018L77.5789 11.0803V72.3588L85.485 48.226Z" id="lv" fill="none"/>
<path d="M67.6963 86.0891V7.73242L57.8136 5.10193V94.7777L67.6963 86.0891Z" id="lv" fill="none"/>
<path d="M40.0248 4.10559H49.9075V99.8101C45.8856 101.794 43.7296 101.676 40.0248 99.8101V4.10559Z" id="lv" fill="none"/>
<path d="M30.1421 92.2868V6.09839L20.2594 8.77081V79.9671L30.1421 92.2868Z" id="lv" fill="none"/>
<path d="M10.3767 57.911V13.0731L4.44714 16.2437L4.94128 35.1292L10.3767 57.911Z" id="lv" fill="none"/>
<path d="M4.49614 15.9521C4.49833 17.9856 1.21655 80.3319 44.9662 101.869C94.0579 85.6849 86.8433 15.9521 86.8433 15.9521C62.1848 2.3533 35.608 -1.8971 4.49614 15.9521Z" id="base" stroke="white" stroke-width="2" fill="none"/>
</svg>
