<svg width="90" height="105" viewBox="0 0 90 105" fill="none" xmlns="http://www.w3.org/2000/svg">
<path d="M9.69144 0.0806505L0 15.7591C0 15.7591 7.26475 26.7339 8.02263 36.6636C8.23858 50.7741 0.85422 48.1611 0.93484 66.4525C1.90867 85.7892 28.6879 101.195 44.7568 105C62.1265 100.698 87.688 85.7892 88.5797 66.4525C89.3306 48.1611 80.0587 50.7741 80.8951 36.6636C82.0063 26.7339 90 15.7591 90 15.7591L81.5903 0.0806505C56.175 -0.176158 36.7869 0.280425 9.69144 0.0806505Z" id="bg" fill="#04D361"/>
<path d="M2.91958 65.755C2.84355 48.3781 8.75678 54.8625 9.60435 42H77.8379C78.5676 55.3875 86.289 48.3781 85.5808 65.755C84.7398 84.1248 61.1389 98.2879 44.7568 102.375C29.6017 98.7603 3.83804 84.1248 2.91958 65.755Z" id="mb" fill="none"/>
<path d="M2.91956 15.225L11.1783 2.70162C36.7331 2.8914 55.0187 2.45765 78.9888 2.70162L85.5808 15.225C85.5808 15.225 81.0554 21.0699 78.8109 28.35C77.4191 32.864 77.2012 38.4146 77.1082 42H9.60435C9.66992 38.8151 10.6144 33.9411 9.60435 29.925C7.62282 22.046 2.91956 15.225 2.91956 15.225Z" id="mt" fill="none"/>
<path d="M2.91954 15.225L11.1892 2.70165C23.535 2.79334 34.1842 2.73949 44.5974 2.68684L44.7568 2.68604V102.375C29.6017 98.7603 3.83802 84.1248 2.91956 65.7549C2.84353 48.378 9.808 50.8605 9.60433 37.4554C9.79853 28.0223 2.91954 15.225 2.91954 15.225Z" id="ml" fill="none"/>
<path d="M85.5807 65.7549C84.7397 84.1248 61.1388 98.2878 44.7567 102.375V2.68601C55.8423 2.62996 66.6689 2.57612 78.9997 2.70162L85.5807 15.225C85.5807 15.225 78.081 28.0875 77.8378 37.4554C77.049 50.8604 86.2889 48.378 85.5807 65.7549Z" id="mr" fill="none"/>
<path d="M19.9459 89.775L39.8919 100.275H49.6216L69.0811 89.775H19.9459Z" id="lh" fill="none"/>
<path d="M3.89185 67.725L8.27022 78.225H80.7567L84.6486 67.725H3.89185Z" id="lh" fill="none"/>
<path d="M8.75667 46.725L4.3783 57.225H84.1621L79.2972 46.725H8.75667Z" id="lh" fill="none"/>
<path d="M8.75671 25.725L10.7027 36.225H76.8648L79.2973 25.725H8.75671Z" id="lh" fill="none"/>
<path d="M9.7297 4.72498L5.35132 15.225H84.6486L79.2973 4.72498H9.7297Z" id="lh" fill="none"/>
<path d="M75.4054 3.67505H78.5676L84.4054 15.225L79.2973 26.5125L77.1081 36.225L77.8378 45.15L84.1622 57.4875L83.6757 72.45L75.4054 84.525V3.67505Z" id="lv" fill="none"/>
<path d="M57.8918 3.67505H67.6216V89.775L57.8918 95.55V3.67505Z" id="lv" fill="none"/>
<rect x="39.8918" y="3.67505" width="9.72973" height="96.6" id="lv" fill="none"/>
<path d="M20.9188 3.67505H30.6486V95.55L20.9188 89.775V3.67505Z" id="lv" fill="none"/>
<path d="M12.6486 3.67505H11.0313L3.8918 15.225L8.86185 26.5125L10.9919 36.225L10.2819 45.15L4.12847 57.4875L4.60181 72.45L12.6486 84.525V3.67505Z" id="lv" fill="none"/>
<path d="M45.6828 3.68129C56.2658 3.62797 66.6506 3.58125 78.3819 3.69562L84.4414 15.2072C84.423 15.24 84.4039 15.2744 84.3839 15.3104C84.1747 15.687 83.8767 16.2335 83.519 16.9179C82.8038 18.2859 81.8477 20.2085 80.8833 22.4288C78.9711 26.8314 76.9696 32.5296 76.8386 37.4129C76.6366 40.877 77.0799 43.3766 77.8818 45.4496C78.5809 47.2568 79.5462 48.71 80.4757 50.1095C80.5992 50.2955 80.7221 50.4805 80.8436 50.6653C81.8891 52.2545 82.8918 53.8992 83.6041 56.1849C84.3173 58.4731 84.7548 61.4572 84.5818 65.711C84.1799 74.4723 78.3331 82.3647 70.3776 88.6356C62.5193 94.8299 52.7688 99.3053 44.7517 101.345C37.3354 99.5323 27.3573 95.0593 19.1036 88.8013C10.7374 82.458 4.36611 74.4552 3.91946 65.7275C3.90233 61.4624 4.31666 58.4561 4.92749 56.1426C5.53784 53.8309 6.35406 52.1715 7.19386 50.5831C7.29395 50.3938 7.39496 50.2045 7.49636 50.0145C8.24211 48.6171 9.00881 47.1804 9.58641 45.3969C10.2474 43.356 10.6551 40.8913 10.6045 37.458C10.7012 32.541 8.97044 26.8399 7.26728 22.4417C6.40846 20.2238 5.54403 18.3058 4.89411 16.9418C4.56896 16.2594 4.29704 15.7147 4.10571 15.3392C4.09626 15.3207 4.087 15.3026 4.07794 15.2848L11.7141 3.70554C23.8359 3.79174 34.3305 3.73868 44.59 3.68681L45.6828 3.68129Z" id="base" stroke="white" stroke-width="2" fill="none"/>
</svg>
