<svg width="94" height="105" viewBox="0 0 94 105" fill="none" xmlns="http://www.w3.org/2000/svg">
<path d="M8.79962 2.16037L0.932373 15.0456C0.932373 15.0456 8.31132 25.4602 9.08113 34.8829C9.32229 47.4814 1.74377 46.4256 1.33083 61.4138C2.80037 79.6629 21.8728 92.8197 46.4603 99.7308C64.1029 95.648 89.999 81.5007 90.9042 63.151C90.3706 47.1708 82.2495 48.2731 83.0989 34.8829C84.228 25.4602 93.8295 15.0456 93.8295 15.0456L86.2757 2.16037C73.2761 5.42871 59.1249 3.68602 47.4486 0.148438C36.7141 2.46252 23.8521 6.3034 8.79962 2.16037Z" id="bg" fill="#04D361"/>
<path d="M5.02004 58.7874C7.35602 48.9145 7.356 52.9 11.062 42.6415H80.1277C84.4409 55.1419 84.1616 48.3253 86.4174 58.7874C90.0947 75.8424 63.0321 92.6139 46.3926 96.4924C30.9992 93.0622 0.70908 77.0077 5.02004 58.7874Z" id="mb" fill="none"/>
<path d="M5.02014 14.2441L10.4439 5.84744C20.0859 9.93974 28.8556 8.66492 47.3528 3.35645C62.4287 8.11164 71.9907 9.43232 84.7558 5.84744L89.969 15.2405C89.969 15.2405 84.7558 20.7662 81.2969 27.4919C79.8833 31.7754 78.5114 37.7049 79.8808 42.6414H11.3159C12.4204 38.9504 12.3418 33.0012 11.3159 29.1901C9.3032 21.7133 5.02014 14.2441 5.02014 14.2441Z" id="mt" fill="none"/>
<path d="M5.02012 14.7424L10.455 5.84748C23.1405 11.186 36.1965 7.06576 47.4486 3.34167L47.4486 96.4469C32.0552 93.0167 4.03552 78.5291 5.02015 61.1981C5.8737 46.1744 12.4315 47.918 12.7983 35.3397C12.9955 26.3881 5.02012 14.7424 5.02012 14.7424Z" id="ml" fill="none"/>
<path d="M87.0041 61.6963C86.1499 79.1284 64.088 92.0703 47.4485 95.9488V3.48743C58.5757 6.90395 72.1151 9.07938 84.7668 5.84752L89.9689 15.2406C89.9689 15.2406 79.3865 26.4501 79.1395 35.3397C78.3382 48.0604 87.4351 52.9001 87.0041 61.6963Z" id="mr" fill="none"/>
<path d="M21.2595 84.6938L44.1952 95.6542H50.8221L71.6612 84.6938H21.2595Z" id="lh" fill="none"/>
<path d="M4.45898 64.7659L9.84638 74.7298H82.6235L86.9793 64.7659H4.45898Z" id="lh" fill="none"/>
<path d="M10.3886 44.8379L6.00012 54.8019H85.4969L81.008 44.8379H10.3886Z" id="lh" fill="none"/>
<path d="M9.89441 24.91L12.918 34.874H79.0731L82.9845 24.91H9.89441Z" id="lh" fill="none"/>
<path d="M29.2566 7.69641C22.7676 8.63248 16.6338 7.93089 10.0738 5.55744L4.95312 14.7401L89.9441 15.2861L84.4031 5.94914C76.745 8.1385 69.9905 8.49658 62.3763 7.09578L47.3809 3.82751L29.2566 7.69641Z" id="lh" fill="none"/>
<path d="M77.5908 79.8028V7.33158L84.5086 5.57117L89.9441 15.2964C83.9468 23.2572 79.1704 30.3996 78.8261 36.5326C78.8261 44.9102 88.1469 53.8964 86.4852 65.7655C84.7887 70.3597 82.7132 74.5501 77.5908 79.8028Z" id="lv" fill="none"/>
<path d="M70.673 83.6237V8.30834L60.7903 6.97485V91.1704L70.673 83.6237Z" id="lv" fill="none"/>
<path d="M41.519 3.9856H51.4017V94.7608C47.3799 96.6725 45.2239 96.5591 41.519 94.7608V3.9856Z" id="lv" fill="none"/>
<path d="M32.6246 92.1668V7.47302L22.7419 7.93948V85.1442L32.6246 92.1668Z" id="lv" fill="none"/>
<path d="M13.8475 79.2136V6.47664L9.89446 6.21167L4.95312 14.4161C10.546 23.0318 12.2679 30.4644 12.6122 36.5779C12.6122 44.9289 2.90891 54.6437 5.44726 66.7109C7.14371 71.2905 8.72511 73.9777 13.8475 79.2136Z" id="lv" fill="none"/>
<path d="M84.5086 5.48013L90.0895 15.2389C85.8908 20.7977 79.3378 27.9826 79.0064 35.5888C78.5116 45.9885 86.9736 52.9187 86.871 62.4425C86.4648 70.7056 80.5555 78.182 72.4621 84.1425C64.4699 90.0282 54.6197 94.2818 46.4603 96.2178C38.9124 94.4981 28.6854 90.2464 20.2906 84.2999C11.7784 78.2702 5.33807 70.6891 4.88584 62.4594C4.80694 51.7359 12.761 44.8867 12.6642 35.637C12.2683 27.9213 8.39909 20.8092 5.06583 14.6021L10.3885 5.48013C22.7419 11.4585 35.5893 5.97833 46.4603 3.63171C57.3312 5.97833 72.1552 11.4585 84.5086 5.48013Z" id="base" stroke="white" stroke-width="2" fill="none"/>
</svg>
