<svg width="100" height="115" viewBox="0 0 100 115" fill="none" xmlns="http://www.w3.org/2000/svg">
<path d="M50.0382 105.006C76.9193 105.006 98.7107 83.3488 98.7107 56.6338C98.7107 29.9188 76.9193 8.26196 50.0382 8.26196C23.1571 8.26196 1.36572 29.9188 1.36572 56.6338C1.36572 83.3488 23.1571 105.006 50.0382 105.006Z" id="bg" fill="#04D361"/>
<path d="M50.0382 100.987C74.686 100.987 94.667 81.1294 94.667 56.6339H5.40942C5.40942 81.1294 25.3904 100.987 50.0382 100.987Z" id="mb" fill="none"/>
<path d="M50.0382 12.2808C25.3904 12.2808 5.40942 32.1383 5.40942 56.6338H94.667C94.667 32.1383 74.686 12.2808 50.0382 12.2808Z" id="mt" fill="none"/>
<path d="M5.40942 56.6338C5.40942 81.1294 25.3904 100.987 50.0382 100.987V12.2808C25.3904 12.2808 5.40942 32.1383 5.40942 56.6338Z" id="ml" fill="none"/>
<path d="M50.0382 100.987C74.686 100.987 94.667 81.1294 94.667 56.6338C94.667 32.1383 74.686 12.2808 50.0382 12.2808V100.987Z" id="mr" fill="none"/>
<path d="M10.4318 76.3904L17.105 87.3033H82.5201L90.5912 76.3904H10.4318Z" id="lh" fill="none"/>
<path d="M6.03943 51.8363L6.11047 62.7492H94.4344L94.3841 51.8363H6.03943Z" id="lh" fill="none"/>
<path d="M16.2534 27.2823L10.4318 38.1953H90.0422L84.5296 27.2823H16.2534Z" id="lh" fill="none"/>
<path d="M94.4344 61.3664V50.9588L90.0421 36.5583V76.3905L94.4344 61.3664Z" id="lv" fill="none"/>
<path d="M79.0614 90.8313V23.1309L68.0807 15.2782V98.2164L79.0614 90.8313Z" id="lv" fill="none"/>
<path d="M45.021 12.0042H56.0017V100.139C51.5331 101.995 49.1375 101.885 45.021 100.139V12.0042Z" id="lv" fill="none"/>
<path d="M32.9422 98.2163V14.7324L21.9614 22.2796V91.3845L32.9422 98.2163Z" id="lv" fill="none"/>
<path d="M10.9807 79.1186V34.9213L5.49036 52.2901V61.9196L10.9807 79.1186Z" id="lv" fill="none"/>
<path d="M50.0382 100.987C74.686 100.987 94.667 81.1294 94.667 56.6338C94.667 32.1383 74.686 12.2808 50.0382 12.2808C25.3904 12.2808 5.40942 32.1383 5.40942 56.6338C5.40942 81.1294 25.3904 100.987 50.0382 100.987Z" id="base" stroke="white" stroke-width="2" fill="none"/>
</svg>
