<svg width="90" height="105" viewBox="0 0 90 105" fill="" xmlns="http://www.w3.org/2000/svg">
    <path d="M0 0L7.48727 86.6866L44.9235 105L83.0821 86.6866L90 0L45.0352 7.4387L0 0Z" id="bg" fill="#04D361"/>
    <path d="M8.81384 51.8126L11.4328 84.1955L45.0339 99.6397L78.635 84.1955L81.4515 51.8126H8.81384Z" id="mb" fill="none"/>
    <path d="M8.81386 51.8126L5.00903 4.48375L45.0339 11.9567L85.5528 4.48375L81.4515 51.8126H8.81386Z" id="mt" fill="none"/>
    <path d="M5.00903 4.48376L11.4328 84.16L45.0339 99.6397V11.9567L5.00903 4.48376Z" id="ml" fill="none"/>
    <path d="M85.5528 4.48389L78.6349 84.1956L45.0338 99.6398V11.9569L85.5528 4.48389Z" id="mr" fill="none"/>
    <path d="M5.00903 4.48376L6.09117 16.9387H84.3718L85.5528 4.48376L45.0339 11.9567L5.00903 4.48376Z" id="lh" fill="none"/>
    <path d="M9.60449 61.7766L10.3456 71.7406H79.8208L80.562 61.7766H9.60449Z" id="lh" fill="none"/>
    <path d="M8.22095 43.8414L8.99306 53.8054H81.3712L82.1433 43.8414H8.22095Z" id="lh" fill="none"/>
    <path d="M6.73853 25.9062L7.54263 35.8702H82.9204L83.7246 25.9062H6.73853Z" id="lh" fill="none"/>
    <path d="M11.161 80.8608L11.4328 84.1955L45.0339 99.6397L78.6647 84.3388L78.9429 80.8609L11.161 80.8608Z" id="lh" fill="none"/>
    <path d="M78.6349 4.98202L86.541 3.48743L79.129 83.6974L78.6349 85.192V4.98202Z" id="lv" fill="none"/>
    <path d="M58.8696 8.46936L68.7523 6.47656V89.6757L58.8696 94.6577V8.46936Z" id="lv" fill="none"/>
    <path d="M40.0925 10.4622H49.9752V98.1451L45.0339 100.885L40.0925 98.1451V10.4622Z" id="lv" fill="none"/>
    <path d="M21.3154 6.47656L31.1981 8.46936V94.6577L21.3154 89.6757V6.47656Z" id="lv" fill="none"/>
    <path d="M4.02075 3.48743L11.4328 4.48382V85.192L10.4445 84.6938L4.02075 3.48743Z" id="lv" fill="none"/>
    <path d="M4.02075 3.48743L10.5927 84.8432L45.0338 100.636L79.2773 84.8432L86.5411 3.48743L45.0338 10.9604L4.02075 3.48743Z" id="base" stroke="white" stroke-width="2" fill="none"/>
</svg>
