<svg width="90" height="105" viewBox="0 0 90 105" fill="none" xmlns="http://www.w3.org/2000/svg">
<path d="M0 11.5439C2.09117 68.9521 -4.01249 80.9549 44.9235 105C98.2175 88.743 85.9785 62.16 90 11.5439C74.1894 10.4025 59.8586 4.3905 45.0352 0C29.9333 4.76175 14.8379 9.45664 0 11.5439Z" id="bg" fill="#04D361"/>
<path d="M44.9662 3.78748C61.0793 8.28219 86.4734 15.2969 86.4734 15.2969C86.4734 15.2969 85.7322 28.5578 85.2381 37.5652C85.2381 42.5693 85.0856 47.1582 84.991 50.5757H4.94137C4.44724 46.5726 4.44724 42.8195 4.44724 38.3158C4.44724 30.5595 4.11781 23.5519 3.95312 15.7973L44.9662 3.78748Z" id="mt" fill="none"/>
<path d="M5.92955 61.585C5.06305 45.3216 4.69421 63.0862 4.69421 50.5759H85.2381C85.2381 52.8095 85.2516 54.1747 85.2674 54.9699C85.3055 56.8802 85.3571 55.5011 85.2674 54.9699C85.1686 54.3846 84.8984 54.8286 84.2498 61.8352C82.3501 82.3564 70.414 94.8622 45.2132 99.6161C29.8199 96.1707 6.84937 78.8491 5.92955 61.585Z" id="mb" fill=""/>
<path d="M5.68251 60.5841C4.82571 50.0755 4.20007 15.0468 4.20007 15.0468C21.1022 11.8195 29.5698 9.63637 44.9661 3.28711V100.367C44.9661 100.367 7.90611 87.8565 5.68251 60.5841Z" id="ml" fill=""/>
<path d="M84.2498 59.3331C83.2615 79.8499 71.4023 93.6112 44.9662 100.367V3.53735C60.3915 8.97181 69.0527 11.9724 86.4734 15.0468L84.2498 59.3331Z" id="mr" fill="none"/>
<path d="M44.9661 100.617L24.7067 90.1082H69.4258C60.569 95.2573 55.1273 97.4287 44.9661 100.617Z" id="lh" fill="none"/>
<path d="M8.40027 69.0909L12.4456 79.0991H79.4186L83.0144 69.0909H8.40027Z" id="lh" fill="none"/>
<path d="M4.44727 49.0746L5.40874 59.0828H84.5207L84.9911 49.0746H4.44727Z" id="lh" fill="none"/>
<path d="M4.44727 29.0582L4.91461 39.0664H85.0149L85.4852 29.0582H4.44727Z" id="lh" fill="none"/>
<path d="M3.95312 15.0467L4.42047 19.05H86.0031L85.9793 14.5463C73.1247 12.1305 64.0441 9.71644 44.9662 3.78748C29.4191 8.40648 20.6289 10.9613 3.95312 15.0467Z" id="lh" fill="none"/>
<path d="M78.5673 13.5454L86.4734 15.0466L83.5086 66.0885L78.5673 79.5996V13.5454Z" id="lv" fill="none"/>
<path d="M58.802 7.54053L68.6847 11.0434V89.6078L58.802 95.1123V7.54053Z" id="lv" fill="none"/>
<path d="M40.519 4.0376H50.4017V98.6881C46.3799 100.65 44.2239 100.534 40.519 98.6881V4.0376Z" id="lv" fill="none"/>
<path d="M21.2478 11.0434L31.1305 7.54053V94.1115L21.2478 87.1058V11.0434Z" id="lv" fill="none"/>
<path d="M3.95312 15.5471L11.3651 13.5454V76.0967C7.75272 70.1596 6.33806 65.7014 4.94139 55.5799L3.95312 15.5471Z" id="lv" fill="none"/>
<path d="M3.95312 15.0467C6.04513 68.1366 -1.14093 79.3806 44.9662 100.617C93.8057 86.5902 82.401 60.8613 86.4734 15.0467C71.952 13.0619 58.7683 7.4646 44.9662 3.53723C31.5005 7.73762 18.4224 12.6249 3.95312 15.0467Z" id="base" stroke="white" stroke-width="2" fill="none"/>
</svg>
