<svg width="90" height="106" viewBox="0 0 90 106" fill="none" xmlns="http://www.w3.org/2000/svg">
<path d="M45.6824 105.117C64.7855 105.117 80.2717 81.6971 80.2717 52.8066C80.2717 23.9161 64.7855 0.495728 45.6824 0.495728C26.5792 0.495728 11.093 23.9161 11.093 52.8066C11.093 81.6971 26.5792 105.117 45.6824 105.117Z" id="bg" fill="#04D361"/>
<path d="M76.8039 52.8091H14.5431C15.1141 25.3426 27.3826 5.98613 46.347 4.90039C65.8991 5.9784 76.8039 31.4682 76.8039 52.8091Z" id="mt" fill="none"/>
<path d="M76.5907 52.8091H14.3298C14.9009 80.2755 27.1694 99.5504 46.1338 100.636C65.6859 99.5581 76.5907 74.15 76.5907 52.8091Z" id="mb" fill="none"/>
<path d="M44.9661 4.98193L44.9661 100.756C33.3201 99.5581 16.5196 90.0923 14.3298 52.809C14.7901 23.8319 29.1564 7.40979 44.9661 4.98193Z" id="ml" fill="none"/>
<path d="M44.9662 4.90039V100.555C56.9878 99.3579 74.5436 89.904 76.804 52.6675C76.3288 23.7267 61.2858 7.3252 44.9662 4.90039Z" id="mr" fill="none"/>
<path d="M44.7794 100.63C36.7408 100.472 32.4732 96.9436 26.6832 90.6722H64.2374C57.5093 97.4415 53.1185 100.795 44.7794 100.63Z" id="lh" fill="none"/>
<path d="M15.8123 69.7478L19.9364 79.7118H70.3563L75.1083 69.7478H15.8123Z" id="lh" fill="none"/>
<path d="M13.8357 47.3289L13.8861 57.2928H76.5907L76.5549 47.3289H13.8357Z" id="lh" fill="none"/>
<path d="M20.1483 24.91L15.8123 34.874H75.1083L71.0024 24.91H20.1483Z" id="lh" fill="none"/>
<path d="M44.7794 4.98784C36.7408 5.14641 32.4732 8.67471 26.6832 14.946H64.2374C57.5093 8.17681 53.1185 4.82335 44.7794 4.98784Z" id="lh" fill="none"/>
<path d="M71.1553 81.4854V24.053L61.2726 10.4622V95.1559L71.1553 81.4854Z" id="lv" fill="none"/>
<path d="M40.519 5.4801H50.4017V99.69C46.3799 101.674 44.2239 101.556 40.519 99.69V5.4801Z" id="lv" fill="none"/>
<path d="M29.6481 93.6612V9.96387L19.7654 24.0949V81.3416L29.6481 93.6612Z" id="lv" fill="none"/>
<path d="M45.4603 100.636C62.6531 100.636 76.5907 79.2232 76.5907 52.809C76.5907 26.3948 62.6531 4.98193 45.4603 4.98193C28.2674 4.98193 14.3298 26.3948 14.3298 52.809C14.3298 79.2232 28.2674 100.636 45.4603 100.636Z" id="base" stroke="white" stroke-width="2" fill="none"/>
</svg>
