<svg width="30" height="20" viewBox="0 0 30 20" fill="none" xmlns="http://www.w3.org/2000/svg">
<rect width="30" height="20" rx="3" fill="#04D361"/>
<path d="M21.0706 -0.102223L33.7304 -3.88264L30.1441 9.50162L21.0706 -0.102223Z" id="main" fill="none"/>
<path d="M6.37 13.08C6.18333 13.08 6.04 13.0267 5.94 12.92C5.84 12.8133 5.79 12.6667 5.79 12.48V6.47C5.79 6.27667 5.84333 6.13 5.95 6.03C6.05667 5.92333 6.20333 5.87 6.39 5.87C6.55667 5.87 6.68667 5.90333 6.78 5.97C6.88 6.03 6.97 6.13667 7.05 6.29L9.52 10.86H9.2L11.67 6.29C11.75 6.13667 11.8367 6.03 11.93 5.97C12.0233 5.90333 12.1533 5.87 12.32 5.87C12.5067 5.87 12.65 5.92333 12.75 6.03C12.85 6.13 12.9 6.27667 12.9 6.47V12.48C12.9 12.6667 12.85 12.8133 12.75 12.92C12.6567 13.0267 12.5133 13.08 12.32 13.08C12.1333 13.08 11.99 13.0267 11.89 12.92C11.79 12.8133 11.74 12.6667 11.74 12.48V7.85H11.96L9.86 11.68C9.79333 11.7933 9.72333 11.8767 9.65 11.93C9.57667 11.9833 9.47667 12.01 9.35 12.01C9.22333 12.01 9.12 11.9833 9.04 11.93C8.96 11.87 8.89 11.7867 8.83 11.68L6.71 7.84H6.95V12.48C6.95 12.6667 6.9 12.8133 6.8 12.92C6.70667 13.0267 6.56333 13.08 6.37 13.08ZM15.1316 13C14.9116 13 14.7416 12.9433 14.6216 12.83C14.5083 12.71 14.4516 12.54 14.4516 12.32V6.63C14.4516 6.41 14.5083 6.24333 14.6216 6.13C14.7416 6.01 14.9116 5.95 15.1316 5.95H18.7016C18.8683 5.95 18.995 5.99333 19.0816 6.08C19.175 6.16667 19.2216 6.29 19.2216 6.45C19.2216 6.61667 19.175 6.74667 19.0816 6.84C18.995 6.92667 18.8683 6.97 18.7016 6.97H15.6816V8.91H18.4816C18.655 8.91 18.785 8.95333 18.8716 9.04C18.9583 9.12667 19.0016 9.25333 19.0016 9.42C19.0016 9.58667 18.9583 9.71333 18.8716 9.8C18.785 9.88667 18.655 9.93 18.4816 9.93H15.6816V11.98H18.7016C18.8683 11.98 18.995 12.0233 19.0816 12.11C19.175 12.1967 19.2216 12.3233 19.2216 12.49C19.2216 12.6567 19.175 12.7833 19.0816 12.87C18.995 12.9567 18.8683 13 18.7016 13H15.1316ZM21.0584 13.08C20.8518 13.08 20.6918 13.0233 20.5784 12.91C20.4718 12.79 20.4184 12.6267 20.4184 12.42V6.53C20.4184 6.31667 20.4718 6.15333 20.5784 6.04C20.6918 5.92667 20.8518 5.87 21.0584 5.87C21.2651 5.87 21.4218 5.92667 21.5284 6.04C21.6418 6.15333 21.6984 6.31667 21.6984 6.53V12.42C21.6984 12.6267 21.6451 12.79 21.5384 12.91C21.4318 13.0233 21.2718 13.08 21.0584 13.08Z" fill="white"/>
</svg>
