<svg width="30" height="20" viewBox="0 0 30 20" fill="none" xmlns="http://www.w3.org/2000/svg">
<rect width="30" height="20" rx="3" fill="#EFF328"/>
<path d="M21.0706 -0.102223L33.7304 -3.88264L30.1441 9.50162L21.0706 -0.102223Z" id="main" fill="none"/>
<path d="M9.16 13.1C8.38 13.1 7.72 12.9533 7.18 12.66C6.64667 12.3667 6.24 11.95 5.96 11.41C5.68 10.87 5.54 10.23 5.54 9.49C5.54 8.93 5.62 8.42667 5.78 7.98C5.94667 7.53333 6.18333 7.15333 6.49 6.84C6.80333 6.52 7.18333 6.27667 7.63 6.11C8.07667 5.93667 8.58333 5.85 9.15 5.85C9.52333 5.85 9.89667 5.89667 10.27 5.99C10.65 6.07667 11.0067 6.22667 11.34 6.44C11.4533 6.51333 11.5267 6.60333 11.56 6.71C11.6 6.81667 11.6067 6.92667 11.58 7.04C11.5533 7.14667 11.5033 7.24 11.43 7.32C11.3567 7.4 11.2633 7.45 11.15 7.47C11.0433 7.49 10.9233 7.46333 10.79 7.39C10.5367 7.24333 10.28 7.13667 10.02 7.07C9.76 7.00333 9.47 6.97 9.15 6.97C8.65667 6.97 8.24 7.07 7.9 7.27C7.56 7.46333 7.30333 7.74667 7.13 8.12C6.96333 8.49333 6.88 8.95 6.88 9.49C6.88 10.31 7.07667 10.9333 7.47 11.36C7.86333 11.7867 8.44667 12 9.22 12C9.48667 12 9.75667 11.9733 10.03 11.92C10.3033 11.8667 10.57 11.7933 10.83 11.7L10.58 12.27V10.14H9.48C9.31333 10.14 9.18333 10.0967 9.09 10.01C9.00333 9.92333 8.96 9.80667 8.96 9.66C8.96 9.50667 9.00333 9.39 9.09 9.31C9.18333 9.23 9.31333 9.19 9.48 9.19H11.13C11.2967 9.19 11.4233 9.23667 11.51 9.33C11.6033 9.41667 11.65 9.54333 11.65 9.71V12.14C11.65 12.2867 11.62 12.41 11.56 12.51C11.5067 12.61 11.4167 12.6833 11.29 12.73C10.9967 12.8367 10.66 12.9267 10.28 13C9.9 13.0667 9.52667 13.1 9.16 13.1ZM16.2933 13.1C15.6133 13.1 15.0166 12.95 14.5033 12.65C13.9966 12.35 13.6033 11.93 13.3233 11.39C13.0433 10.8433 12.9033 10.2033 12.9033 9.47C12.9033 8.91667 12.9833 8.42 13.1433 7.98C13.3033 7.53333 13.5299 7.15333 13.8233 6.84C14.1233 6.52 14.4799 6.27667 14.8933 6.11C15.3133 5.93667 15.7799 5.85 16.2933 5.85C16.9799 5.85 17.5766 6 18.0833 6.3C18.5899 6.59333 18.9833 7.01 19.2633 7.55C19.5433 8.09 19.6833 8.72667 19.6833 9.46C19.6833 10.0133 19.6033 10.5133 19.4433 10.96C19.2833 11.4067 19.0533 11.79 18.7533 12.11C18.4599 12.43 18.1033 12.6767 17.6833 12.85C17.2699 13.0167 16.8066 13.1 16.2933 13.1ZM16.2933 12C16.7266 12 17.0933 11.9 17.3933 11.7C17.6999 11.5 17.9333 11.21 18.0933 10.83C18.2599 10.45 18.3433 9.99667 18.3433 9.47C18.3433 8.67 18.1633 8.05 17.8033 7.61C17.4499 7.17 16.9466 6.95 16.2933 6.95C15.8666 6.95 15.4999 7.05 15.1933 7.25C14.8866 7.44333 14.6499 7.73 14.4833 8.11C14.3233 8.48333 14.2433 8.93667 14.2433 9.47C14.2433 10.2633 14.4233 10.8833 14.7833 11.33C15.1433 11.7767 15.6466 12 16.2933 12ZM21.6348 13C21.4282 13 21.2682 12.9433 21.1548 12.83C21.0415 12.71 20.9848 12.5467 20.9848 12.34V6.57C20.9848 6.35667 21.0382 6.19667 21.1448 6.09C21.2582 5.97667 21.4182 5.92 21.6248 5.92C21.8315 5.92 21.9882 5.97667 22.0948 6.09C22.2082 6.19667 22.2648 6.35667 22.2648 6.57V11.91H25.1648C25.3448 11.91 25.4815 11.9567 25.5748 12.05C25.6748 12.1433 25.7248 12.2767 25.7248 12.45C25.7248 12.6233 25.6748 12.76 25.5748 12.86C25.4815 12.9533 25.3448 13 25.1648 13H21.6348Z" fill="#1E1E1E"/>
</svg>
