<svg width="30" height="20" viewBox="0 0 30 20" fill="none" xmlns="http://www.w3.org/2000/svg">
  <rect width="30" height="20" rx="3" fill="#1F7BF2"/>
  <path d="M21.0706 -0.102223L33.7304 -3.88264L30.1441 9.50162L21.0706 -0.102223Z" id="main" fill="none"/>
  <path d="M5.84 13.08C5.68 13.08 5.55 13.0433 5.45 12.97C5.35667 12.8967 5.3 12.8 5.28 12.68C5.26 12.5533 5.28333 12.4133 5.35 12.26L7.99 6.41C8.07667 6.21667 8.18 6.08 8.3 6C8.42667 5.91333 8.57 5.87 8.73 5.87C8.88333 5.87 9.02 5.91333 9.14 6C9.26667 6.08 9.37333 6.21667 9.46 6.41L12.11 12.26C12.1833 12.4133 12.21 12.5533 12.19 12.68C12.17 12.8067 12.1133 12.9067 12.02 12.98C11.9267 13.0467 11.8033 13.08 11.65 13.08C11.4633 13.08 11.3167 13.0367 11.21 12.95C11.11 12.8567 11.02 12.7167 10.94 12.53L10.29 11.02L10.83 11.37H6.61L7.15 11.02L6.51 12.53C6.42333 12.7233 6.33333 12.8633 6.24 12.95C6.14667 13.0367 6.01333 13.08 5.84 13.08ZM8.71 7.34L7.31 10.67L7.05 10.35H10.39L10.14 10.67L8.73 7.34H8.71ZM14.7702 13.08C14.5635 13.08 14.4035 13.0233 14.2902 12.91C14.1835 12.79 14.1302 12.6267 14.1302 12.42V7.02H12.1802C12.0068 7.02 11.8702 6.97333 11.7702 6.88C11.6768 6.78 11.6302 6.64667 11.6302 6.48C11.6302 6.30667 11.6768 6.17667 11.7702 6.09C11.8702 5.99667 12.0068 5.95 12.1802 5.95H17.3602C17.5335 5.95 17.6668 5.99667 17.7602 6.09C17.8602 6.17667 17.9102 6.30667 17.9102 6.48C17.9102 6.64667 17.8602 6.78 17.7602 6.88C17.6668 6.97333 17.5335 7.02 17.3602 7.02H15.4102V12.42C15.4102 12.6267 15.3568 12.79 15.2502 12.91C15.1435 13.0233 14.9835 13.08 14.7702 13.08ZM17.9298 13.08C17.7698 13.08 17.6398 13.0433 17.5398 12.97C17.4465 12.8967 17.3898 12.8 17.3698 12.68C17.3498 12.5533 17.3732 12.4133 17.4398 12.26L20.0798 6.41C20.1665 6.21667 20.2698 6.08 20.3898 6C20.5165 5.91333 20.6598 5.87 20.8198 5.87C20.9732 5.87 21.1098 5.91333 21.2298 6C21.3565 6.08 21.4632 6.21667 21.5498 6.41L24.1998 12.26C24.2732 12.4133 24.2998 12.5533 24.2798 12.68C24.2598 12.8067 24.2032 12.9067 24.1098 12.98C24.0165 13.0467 23.8932 13.08 23.7398 13.08C23.5532 13.08 23.4065 13.0367 23.2998 12.95C23.1998 12.8567 23.1098 12.7167 23.0298 12.53L22.3798 11.02L22.9198 11.37H18.6998L19.2398 11.02L18.5998 12.53C18.5132 12.7233 18.4232 12.8633 18.3298 12.95C18.2365 13.0367 18.1032 13.08 17.9298 13.08ZM20.7998 7.34L19.3998 10.67L19.1398 10.35H22.4798L22.2298 10.67L20.8198 7.34H20.7998Z" fill="white"/>
</svg>
