<svg width="30" height="20" viewBox="0 0 30 20" fill="none" xmlns="http://www.w3.org/2000/svg">
<rect width="30" height="20" rx="3" fill="#EFF328"/>
<rect width="30" height="20" rx="5" fill="#EFF328"/>
<path d="M5.78571 12.8571H0.214286C0.157454 12.8571 0.102949 12.8872 0.0627628 12.9408C0.0225765 12.9944 0 13.0671 0 13.1429L0 13.7143C0 13.7901 0.0225765 13.8627 0.0627628 13.9163C0.102949 13.9699 0.157454 14 0.214286 14H5.78571C5.84255 14 5.89705 13.9699 5.93724 13.9163C5.97742 13.8627 6 13.7901 6 13.7143V13.1429C6 13.0671 5.97742 12.9944 5.93724 12.9408C5.89705 12.8872 5.84255 12.8571 5.78571 12.8571ZM5.78571 10.5714H0.214286C0.157454 10.5714 0.102949 10.6015 0.0627628 10.6551C0.0225765 10.7087 0 10.7814 0 10.8571L0 11.4286C0 11.5043 0.0225765 11.577 0.0627628 11.6306C0.102949 11.6842 0.157454 11.7143 0.214286 11.7143H5.78571C5.84255 11.7143 5.89705 11.6842 5.93724 11.6306C5.97742 11.577 6 11.5043 6 11.4286V10.8571C6 10.7814 5.97742 10.7087 5.93724 10.6551C5.89705 10.6015 5.84255 10.5714 5.78571 10.5714ZM5.78571 8.28571H0.214286C0.157454 8.28571 0.102949 8.31582 0.0627628 8.3694C0.0225765 8.42298 0 8.49565 0 8.57143L0 9.14286C0 9.21863 0.0225765 9.29131 0.0627628 9.34489C0.102949 9.39847 0.157454 9.42857 0.214286 9.42857H5.78571C5.84255 9.42857 5.89705 9.39847 5.93724 9.34489C5.97742 9.29131 6 9.21863 6 9.14286V8.57143C6 8.49565 5.97742 8.42298 5.93724 8.3694C5.89705 8.31582 5.84255 8.28571 5.78571 8.28571ZM5.78571 6H0.214286C0.157454 6 0.102949 6.0301 0.0627628 6.08368C0.0225765 6.13727 0 6.20994 0 6.28571L0 6.85714C0 6.93292 0.0225765 7.00559 0.0627628 7.05917C0.102949 7.11276 0.157454 7.14286 0.214286 7.14286H5.78571C5.84255 7.14286 5.89705 7.11276 5.93724 7.05917C5.97742 7.00559 6 6.93292 6 6.85714V6.28571C6 6.20994 5.97742 6.13727 5.93724 6.08368C5.89705 6.0301 5.84255 6 5.78571 6Z" fill="#1E1E1E"/>
<path d="M16.4773 15.15C15.3773 15.15 14.4323 14.93 13.6423 14.49C12.8623 14.04 12.2623 13.41 11.8423 12.6C11.4223 11.78 11.2123 10.815 11.2123 9.705C11.2123 8.875 11.3323 8.13 11.5723 7.47C11.8123 6.8 12.1573 6.23 12.6073 5.76C13.0573 5.28 13.6073 4.915 14.2573 4.665C14.9173 4.405 15.6573 4.275 16.4773 4.275C17.0273 4.275 17.5673 4.345 18.0973 4.485C18.6273 4.625 19.0923 4.825 19.4923 5.085C19.7023 5.215 19.8423 5.375 19.9123 5.565C19.9823 5.745 19.9973 5.925 19.9573 6.105C19.9173 6.275 19.8323 6.42 19.7023 6.54C19.5823 6.66 19.4273 6.73 19.2373 6.75C19.0573 6.76 18.8573 6.695 18.6373 6.555C18.3273 6.355 17.9923 6.21 17.6323 6.12C17.2723 6.03 16.9073 5.985 16.5373 5.985C15.8273 5.985 15.2273 6.13 14.7373 6.42C14.2473 6.71 13.8773 7.13 13.6273 7.68C13.3773 8.23 13.2523 8.905 13.2523 9.705C13.2523 10.495 13.3773 11.17 13.6273 11.73C13.8773 12.29 14.2473 12.715 14.7373 13.005C15.2273 13.295 15.8273 13.44 16.5373 13.44C16.9173 13.44 17.2923 13.395 17.6623 13.305C18.0323 13.205 18.3823 13.055 18.7123 12.855C18.9323 12.725 19.1273 12.67 19.2973 12.69C19.4773 12.7 19.6273 12.76 19.7473 12.87C19.8673 12.98 19.9473 13.12 19.9873 13.29C20.0273 13.45 20.0173 13.62 19.9573 13.8C19.8973 13.97 19.7773 14.12 19.5973 14.25C19.1973 14.54 18.7173 14.765 18.1573 14.925C17.6073 15.075 17.0473 15.15 16.4773 15.15Z" fill="#1E1E1E"/>
<path d="M29.8214 12.8571H25.1786C25.1312 12.8571 25.0858 12.8872 25.0523 12.9408C25.0188 12.9944 25 13.0671 25 13.1429V13.7143C25 13.7901 25.0188 13.8627 25.0523 13.9163C25.0858 13.9699 25.1312 14 25.1786 14H29.8214C29.8688 14 29.9142 13.9699 29.9477 13.9163C29.9812 13.8627 30 13.7901 30 13.7143V13.1429C30 13.0671 29.9812 12.9944 29.9477 12.9408C29.9142 12.8872 29.8688 12.8571 29.8214 12.8571ZM29.8214 10.5714H25.1786C25.1312 10.5714 25.0858 10.6015 25.0523 10.6551C25.0188 10.7087 25 10.7814 25 10.8571V11.4286C25 11.5043 25.0188 11.577 25.0523 11.6306C25.0858 11.6842 25.1312 11.7143 25.1786 11.7143H29.8214C29.8688 11.7143 29.9142 11.6842 29.9477 11.6306C29.9812 11.577 30 11.5043 30 11.4286V10.8571C30 10.7814 29.9812 10.7087 29.9477 10.6551C29.9142 10.6015 29.8688 10.5714 29.8214 10.5714ZM29.8214 8.28571H25.1786C25.1312 8.28571 25.0858 8.31582 25.0523 8.3694C25.0188 8.42298 25 8.49565 25 8.57143V9.14286C25 9.21863 25.0188 9.29131 25.0523 9.34489C25.0858 9.39847 25.1312 9.42857 25.1786 9.42857H29.8214C29.8688 9.42857 29.9142 9.39847 29.9477 9.34489C29.9812 9.29131 30 9.21863 30 9.14286V8.57143C30 8.49565 29.9812 8.42298 29.9477 8.3694C29.9142 8.31582 29.8688 8.28571 29.8214 8.28571ZM29.8214 6H25.1786C25.1312 6 25.0858 6.0301 25.0523 6.08368C25.0188 6.13727 25 6.20994 25 6.28571V6.85714C25 6.93292 25.0188 7.00559 25.0523 7.05917C25.0858 7.11276 25.1312 7.14286 25.1786 7.14286H29.8214C29.8688 7.14286 29.9142 7.11276 29.9477 7.05917C29.9812 7.00559 30 6.93292 30 6.85714V6.28571C30 6.20994 29.9812 6.13727 29.9477 6.08368C29.9142 6.0301 29.8688 6 29.8214 6Z" fill="#1E1E1E"/>
</svg>
