<svg width="30" height="20" viewBox="0 0 30 20" fill="none" xmlns="http://www.w3.org/2000/svg">
<rect width="30" height="20" rx="3" fill="#F44336"/>
<path d="M21.0706 -0.102223L33.7304 -3.88264L30.1441 9.50162L21.0706 -0.102223Z" id="main" fill="none"/>
<path d="M6.06 13C5.89333 13 5.75667 12.9667 5.65 12.9C5.55 12.8333 5.48 12.7433 5.44 12.63C5.40667 12.51 5.40667 12.38 5.44 12.24C5.48 12.0933 5.55667 11.9433 5.67 11.79L9.49 6.61V7.02H5.96C5.77333 7.02 5.63 6.97333 5.53 6.88C5.43667 6.78667 5.39 6.65333 5.39 6.48C5.39 6.30667 5.43667 6.17667 5.53 6.09C5.63 5.99667 5.77333 5.95 5.96 5.95H10.1C10.2667 5.95 10.4 5.98333 10.5 6.05C10.6067 6.11667 10.6767 6.20667 10.71 6.32C10.75 6.43333 10.75 6.56333 10.71 6.71C10.6767 6.85667 10.6033 7.00667 10.49 7.16L6.67 12.33V11.93H10.35C10.5367 11.93 10.6767 11.9767 10.77 12.07C10.87 12.1567 10.92 12.2867 10.92 12.46C10.92 12.6333 10.87 12.7667 10.77 12.86C10.6767 12.9533 10.5367 13 10.35 13H6.06ZM11.797 13.08C11.637 13.08 11.507 13.0433 11.407 12.97C11.3137 12.8967 11.257 12.8 11.237 12.68C11.217 12.5533 11.2404 12.4133 11.307 12.26L13.947 6.41C14.0337 6.21667 14.137 6.08 14.257 6C14.3837 5.91333 14.527 5.87 14.687 5.87C14.8404 5.87 14.977 5.91333 15.097 6C15.2237 6.08 15.3304 6.21667 15.417 6.41L18.067 12.26C18.1404 12.4133 18.167 12.5533 18.147 12.68C18.127 12.8067 18.0704 12.9067 17.977 12.98C17.8837 13.0467 17.7604 13.08 17.607 13.08C17.4204 13.08 17.2737 13.0367 17.167 12.95C17.067 12.8567 16.977 12.7167 16.897 12.53L16.247 11.02L16.787 11.37H12.567L13.107 11.02L12.467 12.53C12.3804 12.7233 12.2904 12.8633 12.197 12.95C12.1037 13.0367 11.9704 13.08 11.797 13.08ZM14.667 7.34L13.267 10.67L13.007 10.35H16.347L16.097 10.67L14.687 7.34H14.667ZM22.412 13.1C21.632 13.1 20.972 12.9533 20.432 12.66C19.8986 12.3667 19.492 11.95 19.212 11.41C18.932 10.87 18.792 10.23 18.792 9.49C18.792 8.93 18.872 8.42667 19.032 7.98C19.1986 7.53333 19.4353 7.15333 19.742 6.84C20.0553 6.52 20.4353 6.27667 20.882 6.11C21.3286 5.93667 21.8353 5.85 22.402 5.85C22.7753 5.85 23.1486 5.89667 23.522 5.99C23.902 6.07667 24.2586 6.22667 24.592 6.44C24.7053 6.51333 24.7786 6.60333 24.812 6.71C24.852 6.81667 24.8586 6.92667 24.832 7.04C24.8053 7.14667 24.7553 7.24 24.682 7.32C24.6086 7.4 24.5153 7.45 24.402 7.47C24.2953 7.49 24.1753 7.46333 24.042 7.39C23.7886 7.24333 23.532 7.13667 23.272 7.07C23.012 7.00333 22.722 6.97 22.402 6.97C21.9086 6.97 21.492 7.07 21.152 7.27C20.812 7.46333 20.5553 7.74667 20.382 8.12C20.2153 8.49333 20.132 8.95 20.132 9.49C20.132 10.31 20.3286 10.9333 20.722 11.36C21.1153 11.7867 21.6986 12 22.472 12C22.7386 12 23.0086 11.9733 23.282 11.92C23.5553 11.8667 23.822 11.7933 24.082 11.7L23.832 12.27V10.14H22.732C22.5653 10.14 22.4353 10.0967 22.342 10.01C22.2553 9.92333 22.212 9.80667 22.212 9.66C22.212 9.50667 22.2553 9.39 22.342 9.31C22.4353 9.23 22.5653 9.19 22.732 9.19H24.382C24.5486 9.19 24.6753 9.23667 24.762 9.33C24.8553 9.41667 24.902 9.54333 24.902 9.71V12.14C24.902 12.2867 24.872 12.41 24.812 12.51C24.7586 12.61 24.6686 12.6833 24.542 12.73C24.2486 12.8367 23.912 12.9267 23.532 13C23.152 13.0667 22.7786 13.1 22.412 13.1Z" fill="white"/>
</svg>
