<svg width="125" height="156" viewBox="0 0 125 156" fill="none" xmlns="http://www.w3.org/2000/svg">
<path d="M13.5464 84.7844C20.8185 84.7844 26.7137 78.8892 26.7137 71.6171C26.7137 64.345 20.8185 58.4498 13.5464 58.4498C6.27434 58.4498 0.37915 64.345 0.37915 71.6171C0.37915 78.8892 6.27434 84.7844 13.5464 84.7844Z" fill="black"/>
<path d="M57.5372 38.1783L95.0191 21.8345L123.299 50.9077C128.03 55.9468 121.09 63.9317 115.967 58.2939L94.1961 35.8211L87.4629 38.807C92.7497 53.3698 102.098 77.577 104.353 83.7953C105.46 87.1914 92.3944 87.1252 85.9077 87.6429L80.97 108.163L93.6724 147.714C95.8455 155.266 85.8754 158.514 82.5999 151.171L67.1134 109.84L71.303 86.2671L56.8692 87.5429L21.823 98.2803C14.7167 99.9788 11.7736 89.8274 18.2319 87.4306L53.4972 75.2664L66.8141 74.0092L59.0335 55.1508L53.6469 61.2798L60.2305 77.7808C56.1974 80.6998 53.4026 81.0179 50.9536 80.6096L42.8918 60.3908L57.5372 38.1783Z" fill="black"/>
<path d="M60.1578 29.9996C68.2563 29.9996 74.8214 23.4345 74.8214 15.3361C74.8214 7.23759 68.2563 0.672485 60.1578 0.672485C52.0594 0.672485 45.4943 7.23759 45.4943 15.3361C45.4943 23.4345 52.0594 29.9996 60.1578 29.9996Z" fill="black"/>
</svg>
