<svg width="105" height="154" viewBox="0 0 105 154" fill="none" xmlns="http://www.w3.org/2000/svg">
<path d="M63.5007 153.233C69.8096 153.233 74.924 148.118 74.924 141.809C74.924 135.501 69.8096 130.386 63.5007 130.386C57.1918 130.386 52.0774 135.501 52.0774 141.809C52.0774 148.118 57.1918 153.233 63.5007 153.233Z" fill="black"/>
<path d="M55.0821 29.9982L78.6288 28.6508L96.3703 6.6253C101.87 0.166847 107.785 6.05748 103.008 12.6819L82.6424 38.4005L81.8706 77.2515L99.9317 103.842L102.91 143.807C103.682 154.364 89.6871 155.078 88.708 144.808L85.8842 108.421L64.89 82.4218L32.0094 119.205L4.53815 102.533C-5.02267 96.0857 1.97748 86.8945 12.1022 92.9311L28.7677 102.808L51.7686 70.1608L52.2317 48.8888L35.8718 67.7509C30.3263 73.8704 22.5253 67.8788 28.4621 61.1034L55.0821 29.9982Z" fill="black"/>
<path d="M67.2055 26.6502C74.5375 26.6502 80.4813 20.7065 80.4813 13.3745C80.4813 6.0425 74.5375 0.0987549 67.2055 0.0987549C59.8736 0.0987549 53.9298 6.0425 53.9298 13.3745C53.9298 20.7065 59.8736 26.6502 67.2055 26.6502Z" fill="black"/>
</svg>
