<svg width="118" height="150" viewBox="0 0 118 150" fill="none" xmlns="http://www.w3.org/2000/svg">
<path d="M96.7612 24.5325C103.414 24.5325 108.807 19.1394 108.807 12.4867C108.807 5.834 103.414 0.440918 96.7612 0.440918C90.1085 0.440918 84.7155 5.834 84.7155 12.4867C84.7155 19.1394 90.1085 24.5325 96.7612 24.5325Z" fill="black"/>
<path d="M3.62456 48.5748C17.7766 39.3495 32.6814 32.1992 50.2328 29.0929C50.2328 29.0929 55.2264 34.1489 58.7175 35.164C63.4755 36.5474 68.6536 36.0144 73.3218 34.353C77.2834 32.9432 80.6039 28.0431 80.6039 28.0431C96.0679 36.3817 106.652 45.8538 117.002 60.8834C119.709 65.3792 114.739 70.3017 110.681 65.9251C102.102 54.5889 93.5203 44.6662 79.6595 39.8325L83.6798 71.2633C110.368 87.5405 106.569 99.9029 106.105 127.895C105.884 135.698 94.1716 136.452 94.3691 127.426C95.6166 107.114 98.6802 94.5303 81.3978 84.5284L68.0459 86.1283C56.8489 104.888 47.1279 122.832 37.8564 144.961C34.5239 153.638 22.9968 148.512 26.2106 140.582C34.6582 119.459 43.5464 99.4977 55.3594 79.3366L43.4417 41.9177C23.9529 45.4914 19.4593 50.8188 8.61828 56.2455C2.10025 59.6528 -2.09789 52.2458 3.62456 48.5748Z" fill="black"/>
<path d="M65.5903 32.5065C73.6442 32.5065 80.1732 25.9775 80.1732 17.9235C80.1732 9.86959 73.6442 3.34058 65.5903 3.34058C57.5363 3.34058 51.0073 9.86959 51.0073 17.9235C51.0073 25.9775 57.5363 32.5065 65.5903 32.5065Z" fill="black"/>
</svg>
