<svg width="133" height="154" viewBox="0 0 133 154" fill="none" xmlns="http://www.w3.org/2000/svg">
<path d="M120.851 23.6176C127.265 23.6176 132.464 18.4182 132.464 12.0044C132.464 5.59064 127.265 0.391235 120.851 0.391235C114.437 0.391235 109.238 5.59064 109.238 12.0044C109.238 18.4182 114.437 23.6176 120.851 23.6176Z" fill="black"/>
<path d="M79.31 62.7433L99.3141 50.7378L120.363 26.671C124.628 22.5885 131.008 28.641 127.068 32.9694L104.913 58.7698L82.2361 73.0646L64.2207 107.07L48.3849 130.444L27.6922 151.718C23.1845 156.143 16.3992 150.335 21.0792 145.193L40.8729 123.999L53.6056 105.667L45.6339 101.341L28.8044 111.439L8.75705 134.681C3.84648 139.376 -1.85328 132.969 1.70479 127.801L22.0559 104.182L41.9147 91.7272L50.1731 73.2718L45.4314 75.4821L21.3988 91.58C15.9014 95.2738 11.0012 87.8083 16.2963 83.9821L39.525 67.4514L61.6989 55.0296L79.31 62.7433Z" fill="black"/>
<path d="M81.7525 56.6944C88.5793 54.179 92.0744 46.6057 89.5591 39.7789C87.0437 32.9521 79.4704 29.457 72.6436 31.9723C65.8168 34.4876 62.3217 42.0609 64.837 48.8878C67.3524 55.7146 74.9257 59.2097 81.7525 56.6944Z" fill="black"/>
</svg>
