<svg width="55" height="65" viewBox="0 0 55 65" fill="none" xmlns="http://www.w3.org/2000/svg">
<g clip-path="url(#clip0_1372_8092)">
<path d="M12 56L12 17.8583L5 24L0 14L12 2C12 2 21.6383 0 27 0C32.5 0 42 2 42 2L55 14.8819L49 23.811L42 17.8583V56H12Z" id="bg" fill="#04D361"/>
<path d="M42 55.9999H12L12 30H42V55.9999Z" id="mb" fill="none"/>
<path d="M12 30L12 17.8583L5 24L0 14L12 2C12 2 21.6383 0 27 0C32.5 0 42 2 42 2L55 14.8819L49 23.811L42 17.8583V30H12Z" id="mt" fill="none"/>
<path d="M42 17.8583V56H27V0C32.5 0 42 2 42 2L55 14.8819L49 23.811L42 17.8583Z" id="mr" fill="none"/>
<path d="M12 56L12 17.8583L5 24L0 14L12 2C12 2 21.6383 0 27 0V56H12Z" id="ml" fill="none"/>
<rect x="12" y="51" width="30" height="5" id="lhc" fill="none"/>
<rect x="12" y="41" width="30" height="5" id="lhc" fill="none"/>
<rect x="12" y="31" width="30" height="5" id="lhc" fill="none"/>
<rect x="12" y="21" width="30" height="5" id="lhc" fill="none"/>
<rect x="12" y="11" width="30" height="5" id="lhc" fill="none"/>
<path d="M12 2.00002C23.5696 -0.69808 30.1702 -0.629842 42 2.00002V6H12V2.00002Z" id="lhc" fill="none"/>
<rect x="12" y="42" width="30" height="8" id="lhl" fill="none"/>
<rect x="12" y="28" width="30" height="8" id="lhl" fill="none"/>
<rect x="12" y="14" width="30" height="8" id="lhl" fill="none"/>
<path d="M12 1.99999C23.5696 -0.698111 30.1702 -0.629873 42 1.99999V7.9887L12 7.99999V1.99999Z" id="lhl" fill="none"/>
<path d="M21 0.5H33V55.9096L21 55.9999V0.5Z" id="lvl" fill="none"/>
<path d="M34 0.599976L39 1.39998V56H34V0.599976Z" id="lvc" fill="none"/>
<path d="M24.5 1H29.5V56H24.5V1Z" id="lvc" fill="none"/>
<path d="M15 1.4L20 0.599976V56H15V1.4Z" id="lvc" fill="none"/>
<path d="M42.0008 2.00005L55.0008 14.9001L49.0008 23.8L42.0008 18.0001C39.9581 10.2877 38.0662 6.62196 32.5 1.99999L32.5 0.40003C36.6755 0.852703 38.6968 1.29947 42.0008 2.00005Z" id="mxl" fill="none"/>
<path d="M-4.61961e-05 13.9999L12 1.99988C15.1463 1.29388 17.8972 0.89 21 0.500029L21.5 2.00003C16.4099 6.15822 14.4881 9.90102 12 17.9999L4.99993 23.9999L-4.61961e-05 13.9999Z" id="mxl" fill="none"/>
<path d="M42.0009 2L55.0009 14.9L49.0009 23.7999L42.0008 18L42.0009 2Z" id="mm" fill="none"/>
<path d="M-4.61961e-05 13.9999L12 1.99988L12 17.9999L4.99993 23.9999L-4.61961e-05 13.9999Z" id="mm" fill="none"/>
<path d="M54.1001 14L55.0001 14.9L49.0002 23.7999L48 22.9999L54.1001 14Z" id="mc" fill="none"/>
<path d="M-4.26023e-05 13.9999L0.999928 13.07L5.99996 23.15L4.99993 24L-4.26023e-05 13.9999Z" id="mc" fill="none"/>
<path d="M31.141 3.30547C30.2223 4.48318 28.8521 5.62246 27.0036 6.08041C25.21 5.5885 23.8388 4.42755 22.9035 3.24209C22.4269 2.63799 22.0706 2.0362 21.8349 1.5309C21.7185 1.28148 21.6375 1.0683 21.5843 0.897653C23.7464 0.505232 25.2311 0.502934 27.0485 0.500121L27.1098 0.500025C28.9343 0.497152 30.4312 0.50033 32.4328 0.89309C32.3825 1.08022 32.3013 1.31502 32.1808 1.58833C31.9546 2.10135 31.6095 2.70479 31.141 3.30547Z" id="gola" fill="white" fill-opacity="0.5" stroke="none"/>
</g>
<defs>
<clipPath id="clip0_1372_8092">
<rect width="55" height="65" fill="white"/>
</clipPath>
</defs>
</svg>
