<?xml version="1.0" encoding="UTF-8"?>
<svg version="1.1" xmlns="http://www.w3.org/2000/svg" width="600" height="600">
<path d="M0 0 C198 0 396 0 600 0 C600 198 600 396 600 600 C402 600 204 600 0 600 C0 402 0 204 0 0 Z " fill="#F5B62C" transform="translate(0,0)"/>
<path d="M0 0 C198 0 396 0 600 0 C600 198 600 396 600 600 C402 600 204 600 0 600 C0 402 0 204 0 0 Z M95.0625 36.0625 C94.31653564 36.36067627 93.57057129 36.65885254 92.80200195 36.96606445 C68.56379867 47.07791186 48.04993699 66.79085766 37.79296875 91.07421875 C37.06068227 92.89981236 36.33798975 94.72928394 35.625 96.5625 C35.29105225 97.41247559 34.95710449 98.26245117 34.61303711 99.13818359 C30.36504984 110.56742231 29.70386602 121.86482705 29.73930359 133.9644165 C29.73627694 135.44417537 29.7323849 136.92393266 29.72771102 138.40368724 C29.71748822 142.43887759 29.71959815 146.47397852 29.72389162 150.50917602 C29.72636932 154.87332968 29.71733171 159.2374624 29.70985413 163.60160828 C29.69713364 172.13985041 29.69531015 180.67806105 29.69765439 189.21631107 C29.69944082 196.1604946 29.69768094 203.10466861 29.69342995 210.04885101 C29.69283476 211.03896025 29.69223957 212.02906949 29.69162634 213.04918204 C29.69041453 215.06091494 29.6892004 217.07264783 29.68798397 219.08438072 C29.67711845 237.93221259 29.67926613 256.78002656 29.68536881 275.62785944 C29.69053602 292.84636984 29.67928593 310.06482364 29.66027059 327.28332284 C29.64086827 344.98881965 29.63264046 362.6942897 29.63639385 380.3997972 C29.63830239 390.32980573 29.63585225 400.2597661 29.62167931 410.18976593 C29.60973392 418.6442333 29.60839585 427.09862287 29.62046947 435.55309138 C29.6263363 439.86092434 29.6275189 444.16861523 29.61546707 448.47643852 C29.60453382 452.43062435 29.60779885 456.38455075 29.62172876 460.33872482 C29.62435541 461.75856056 29.62207417 463.17841713 29.61399289 464.5982323 C29.48315526 489.32942484 36.56175869 514.10304738 53 533 C53.66515625 533.79664063 54.3303125 534.59328125 55.015625 535.4140625 C71.71498456 554.81655581 93.63562519 566.47597409 119 570 C124.11135347 570.37949072 129.20292035 570.40750186 134.32518005 570.38095093 C135.80752962 570.38441754 137.28987659 570.38918877 138.77221829 570.39513266 C142.80067508 570.40753485 146.8289158 570.40152209 150.85737288 570.39217401 C155.21943334 570.38533906 159.58145866 570.39588664 163.94351196 570.40411377 C172.47133406 570.41740654 180.99907665 570.41459322 189.52690177 570.40587585 C196.46243536 570.39908165 203.39794678 570.39819007 210.33348274 570.4014473 C211.8180369 570.40213684 211.8180369 570.40213684 213.33258205 570.40284032 C215.34359034 570.40379957 217.35459863 570.40477221 219.36560691 570.4057581 C238.19343394 570.41429906 257.02121705 570.40449844 275.84903688 570.388357 C291.97791181 570.37495708 308.10672194 570.37728174 324.2355957 570.39111328 C342.99767737 570.40719559 361.7597206 570.41347302 380.52180821 570.40427649 C382.5254393 570.40332092 384.52907039 570.4023778 386.53270149 570.4014473 C387.51834087 570.40098447 388.50398025 570.40052164 389.51948748 570.40004479 C396.440155 570.39746269 403.36079799 570.40180906 410.28146172 570.40888596 C418.72488249 570.41733076 427.16821968 570.41495856 435.61163097 570.39904372 C439.91340515 570.39120061 444.21504036 570.38800114 448.51681328 570.39799118 C452.46533429 570.40702164 456.41358931 570.40187007 460.36208666 570.38605852 C461.77981136 570.38274563 463.19755918 570.38432456 464.61526864 570.39168589 C494.18292414 570.533268 520.28369498 559.9542923 541.6875 539.75 C561.8355936 518.64247337 570.15300662 492.22857537 570.14717102 463.53005981 C570.15047446 462.05517953 570.15420104 460.58030015 570.1583125 459.1054219 C570.16828599 455.06508136 570.17204176 451.02475566 570.17470181 446.98440456 C570.17861872 442.62150892 570.18819603 438.25862489 570.19691467 433.89573669 C570.21663972 423.36570987 570.22674013 412.83568214 570.23564246 402.30564147 C570.24003174 397.33993869 570.24539687 392.37423696 570.25063133 387.408535 C570.26763943 370.88976068 570.28213211 354.37098701 570.28938007 337.85220528 C570.29128979 333.56943893 570.29321015 329.28667258 570.29516602 325.00390625 C570.29564976 323.93952115 570.2961335 322.87513604 570.2966319 321.77849685 C570.30492673 304.54813953 570.3302563 287.31785176 570.36274669 270.08752479 C570.39587187 252.37536885 570.41383375 234.66324819 570.41702431 216.95106113 C570.41918432 207.01531525 570.42785827 197.07967081 570.45348549 187.14395523 C570.47526715 178.67992446 570.48320635 170.21601978 570.47351871 161.75196417 C570.46899559 157.43981262 570.47074327 153.12792081 570.49028015 148.81580544 C570.64478794 112.67933216 564.21780938 84.11745625 538.37890625 57.27734375 C531.32161387 50.49269565 523.46251443 45.77848678 515 41 C513.82667114 40.25375366 513.82667114 40.25375366 512.62963867 39.49243164 C509.94598736 37.96934553 507.49979411 37.07465998 504.54296875 36.2109375 C503.51236328 35.90929688 502.48175781 35.60765625 501.41992188 35.296875 C499.81987305 34.84054688 499.81987305 34.84054688 498.1875 34.375 C497.13240234 34.06304687 496.07730469 33.75109375 494.99023438 33.4296875 C484.34798796 30.35305053 474.54496856 29.85180991 463.50987244 29.85955811 C462.03285427 29.85697143 460.5558368 29.85395743 459.07882029 29.8505547 C455.03268575 29.84251698 450.98656899 29.84069694 446.94042742 29.83995724 C442.57145569 29.83810104 438.20249305 29.83055087 433.83352661 29.82382202 C424.28577828 29.81026111 414.73803417 29.80421747 405.19027781 29.79981136 C399.22409079 29.79704513 393.25790537 29.79280708 387.29171944 29.78830719 C370.76007025 29.77611742 354.22842235 29.76581755 337.69676876 29.7624321 C336.1107917 29.76210275 336.1107917 29.76210275 334.4927747 29.76176675 C333.43298506 29.76154847 332.37319542 29.76133019 331.28129095 29.7611053 C329.13389774 29.76066184 326.98650453 29.76021528 324.83911133 29.75976562 C323.24135328 29.75943348 323.24135328 29.75943348 321.61131728 29.75909463 C304.35954745 29.7551483 287.1078199 29.73769801 269.8560664 29.7144061 C252.12697447 29.69066373 234.39790373 29.67822893 216.66879565 29.67706418 C206.72142868 29.67614904 196.77411681 29.67043735 186.82676506 29.65224457 C178.35497647 29.6368046 169.88326002 29.63174604 161.41146003 29.63998267 C157.09364864 29.64387541 152.77598233 29.64302727 148.45818901 29.62892532 C144.49588353 29.61610342 140.53383094 29.61745575 136.5715254 29.62951604 C135.14754769 29.6314588 133.72355155 29.62846134 132.29959964 29.61967167 C119.45392711 29.54547803 107.0475407 31.22845199 95.0625 36.0625 Z " fill="#FEFEFE" transform="translate(0,0)"/>
<path d="M0 0 C15.87341535 13.49701742 27.37060135 33.01156165 30.3125 53.75 C31.40181644 67.35491169 31.4273187 81.30596952 27.9375 94.5625 C27.73576172 95.36461914 27.53402344 96.16673828 27.32617188 96.99316406 C22.8509747 111.82403989 11.42175733 125.16920784 2.82086182 137.82070923 C-10.03780577 156.7414802 -22.71248241 175.77963321 -35.21548462 194.93731689 C-36.33372183 196.6323039 -37.46740273 198.31720657 -38.61654663 199.99139404 C-41.69099011 204.49932407 -44.32137499 208.94852246 -46.66137695 213.8828125 C-49.80902354 220.07846684 -52.87009095 225.72327554 -58.6875 229.75 C-69.00066538 233.0100541 -80.12803093 231.94131752 -90.77612305 231.26062012 C-94.71596017 231.03314069 -98.65896919 230.93460153 -102.60351562 230.82421875 C-110.30675908 230.59010081 -117.99443715 230.21625206 -125.6875 229.75 C-124.04673022 225.39721024 -121.82077278 221.90571877 -119.0625 218.1875 C-115.1672088 212.89566549 -111.48711971 207.48570204 -107.85595703 202.0090332 C-105.64658197 198.68850318 -103.41466368 195.38392881 -101.171875 192.0859375 C-100.78857529 191.52213882 -100.40527557 190.95834015 -100.01036072 190.37745667 C-99.22257945 189.21904024 -98.43467013 188.06071089 -97.64663696 186.90246582 C-89.93070449 175.55982503 -82.26566492 164.18531472 -74.6875 152.75 C-75.52607544 152.69501343 -75.52607544 152.69501343 -76.3815918 152.63891602 C-81.92866651 152.16619049 -86.45477964 151.00776856 -91.5 148.6875 C-92.53084717 148.222229 -92.53084717 148.222229 -93.58251953 147.74755859 C-114.4002922 138.05711038 -130.8676785 120.97186379 -139.6875 99.75 C-141.40792113 94.84378874 -142.63382335 89.83979397 -143.6875 84.75 C-143.87957031 83.8425 -144.07164062 82.935 -144.26953125 82 C-147.32447539 58.24566796 -142.86704619 34.79123615 -128.80859375 15.12109375 C-117.38672867 0.48054262 -103.78706333 -9.32885818 -86.6875 -16.25 C-85.66011719 -16.68570313 -84.63273437 -17.12140625 -83.57421875 -17.5703125 C-55.05018282 -27.72955817 -22.89682965 -17.80147883 0 0 Z " fill="#292828" transform="translate(450.6875,195.25)"/>
<path d="M0 0 C16.79124923 13.67780828 29.09149592 34.16322691 32.30957031 55.70947266 C33.31111544 69.04232248 33.04175783 82.3635463 29.93457031 95.39697266 C29.63184204 96.75411377 29.63184204 96.75411377 29.32299805 98.13867188 C26.85900953 107.34852447 21.54598128 114.87476938 16.30957031 122.70947266 C15.81078369 123.45917328 15.31199707 124.2088739 14.7980957 124.98129272 C11.49757747 129.93213502 8.16317967 134.85948452 4.81793213 139.78018188 C-8.04073546 158.70095286 -20.7154121 177.73910587 -33.21841431 196.89678955 C-34.33665152 198.59177656 -35.47033242 200.27667922 -36.61947632 201.9508667 C-39.6939198 206.45879672 -42.32430468 210.90799512 -44.66430664 215.84228516 C-47.81195323 222.0379395 -50.87302064 227.68274819 -56.69042969 231.70947266 C-67.00359507 234.96952675 -78.13096062 233.90079018 -88.77905273 233.22009277 C-92.71888986 232.99261335 -96.66189888 232.89407419 -100.60644531 232.78369141 C-108.30968877 232.54957347 -115.99736684 232.17572471 -123.69042969 231.70947266 C-122.43460489 228.47941271 -121.18581168 225.73458319 -119.15136719 222.92431641 C-118.65789795 222.23571533 -118.16442871 221.54711426 -117.65600586 220.83764648 C-117.13111572 220.11472412 -116.60622559 219.39180176 -116.06542969 218.64697266 C-114.9639987 217.10874766 -113.8637391 215.56968323 -112.76464844 214.02978516 C-112.23145996 213.28374023 -111.69827148 212.53769531 -111.14892578 211.76904297 C-108.68697234 208.29247129 -106.34985737 204.73674646 -104.00292969 201.18212891 C-100.84027484 196.41042964 -97.60406322 191.68835897 -94.37792969 186.95947266 C-93.73073975 186.01056152 -93.0835498 185.06165039 -92.41674805 184.08398438 C-89.41431605 179.68583334 -86.40621562 175.29178357 -83.38183594 170.90869141 C-82.88143799 170.18327148 -82.38104004 169.45785156 -81.86547852 168.71044922 C-80.94621563 167.37935277 -80.02558071 166.04920232 -79.10327148 164.72021484 C-76.84245228 161.4484096 -74.69164001 158.14661635 -72.69042969 154.70947266 C-73.84542969 154.68884766 -75.00042969 154.66822266 -76.19042969 154.64697266 C-93.99150239 152.60376777 -111.66208359 139.03620966 -123.02636719 126.03759766 C-139.8024803 104.85274492 -145.40902812 79.97710491 -142.41796875 53.27734375 C-140.13619009 39.04693094 -133.29875512 24.40825044 -123.69042969 13.70947266 C-123.036875 12.91541016 -122.38332031 12.12134766 -121.70996094 11.30322266 C-91.19687959 -24.71221762 -37.05698027 -28.2904676 0 0 Z " fill="#292828" transform="translate(261.6904296875,193.29052734375)"/>
<path d="M0 0 C6.39212319 4.6367733 10.75049641 13.3035115 12.1328125 20.90625 C13.00161881 29.30997646 11.31983034 37.22594421 6.3828125 44.15625 C-0.05483236 51.98240649 -6.95830276 56.96670647 -17.19921875 58.359375 C-26.9718334 58.83345994 -34.43403109 56.40058895 -41.9921875 50.1484375 C-48.7041764 43.2339317 -52.09103209 34.45333642 -52.5546875 24.90625 C-52.15468524 15.36935392 -48.44231983 7.9555425 -41.5546875 1.40625 C-28.42222694 -9.0648149 -14.28090895 -8.365386 0 0 Z " fill="#F2C02D" transform="translate(228.8671875,234.09375)"/>
<path d="M0 0 C6.84938378 5.21662213 10.51938164 10.81986565 13 19 C13.495 20.485 13.495 20.485 14 22 C14.89185724 30.38688825 13.16650732 38.34848572 8.25 45.25 C1.81235514 53.07615649 -5.09111526 58.06045647 -15.33203125 59.453125 C-25.07987052 59.92600805 -32.63145928 57.52970623 -40.125 51.20703125 C-46.81081726 44.21862312 -50.25393587 36.19944812 -50.6875 26.5625 C-50.30717107 16.71398234 -46.81155882 9.28660341 -39.6875 2.5 C-27.65342252 -7.09527772 -13.39690167 -8.11014698 0 0 Z " fill="#F2B62F" transform="translate(414,233)"/>
</svg>
