<svg width="25" height="25" viewBox="0 0 25 25" fill="none" xmlns="http://www.w3.org/2000/svg">
<path d="M22.4369 11.011L22.5002 11.4375H22.9314H24.4141C24.4615 11.4375 24.5 11.476 24.5 11.5234V13.4766C24.5 13.524 24.4615 13.5625 24.4141 13.5625H22.9314H22.5002L22.4369 13.989C21.7899 18.3452 18.3452 21.7899 13.989 22.4369L13.5625 22.5002V22.9314V24.4141C13.5625 24.4615 13.524 24.5 13.4766 24.5H11.5234C11.476 24.5 11.4375 24.4615 11.4375 24.4141V22.9314V22.5002L11.011 22.4369C6.65476 21.7899 3.21008 18.3452 2.56313 13.989L2.49978 13.5625H2.06855H0.585938C0.538496 13.5625 0.5 13.524 0.5 13.4766V11.5234C0.5 11.476 0.538496 11.4375 0.585938 11.4375H2.06855H2.49978L2.56313 11.011C3.21008 6.65476 6.65476 3.21008 11.011 2.56313L11.4375 2.49978V2.06855V0.585938C11.4375 0.538496 11.476 0.5 11.5234 0.5H13.4766C13.524 0.5 13.5625 0.538496 13.5625 0.585938V2.06855V2.49978L13.989 2.56313C18.3452 3.21008 21.7899 6.65476 22.4369 11.011ZM13.5625 19.7575V20.3754L14.1668 20.2465C17.2037 19.5991 19.5999 17.2001 20.2465 14.1668L20.3753 13.5625H19.7575H17.7734C17.726 13.5625 17.6875 13.524 17.6875 13.4766V11.5234C17.6875 11.476 17.726 11.4375 17.7734 11.4375H19.7575H20.3754L20.2465 10.8332C19.5991 7.7963 17.2001 5.40014 14.1668 4.75347L13.5625 4.62465V5.24248V7.22656C13.5625 7.274 13.524 7.3125 13.4766 7.3125H11.5234C11.476 7.3125 11.4375 7.274 11.4375 7.22656V5.24248V4.62465L10.8332 4.75347C7.7963 5.40093 5.40014 7.79993 4.75347 10.8332L4.62465 11.4375H5.24248H7.22656C7.274 11.4375 7.3125 11.476 7.3125 11.5234V13.4766C7.3125 13.524 7.274 13.5625 7.22656 13.5625H5.24248H4.62465L4.75347 14.1668C5.40093 17.2037 7.79993 19.5999 10.8332 20.2465L11.4375 20.3753V19.7575V17.7734C11.4375 17.726 11.476 17.6875 11.5234 17.6875H13.4766C13.524 17.6875 13.5625 17.726 13.5625 17.7734V19.7575ZM13.5625 12.5C13.5625 13.0868 13.0868 13.5625 12.5 13.5625C11.9132 13.5625 11.4375 13.0868 11.4375 12.5C11.4375 11.9132 11.9132 11.4375 12.5 11.4375C13.0868 11.4375 13.5625 11.9132 13.5625 12.5Z" stroke="black"/>
</svg>
