<svg width="25" height="26" viewBox="0 0 25 26" fill="none" xmlns="http://www.w3.org/2000/svg">
<path d="M21.1283 1.46933L21.1304 1.47065L23.8639 3.23573C24.3322 3.53808 24.4879 3.8778 24.4879 4.14242C24.4879 4.40642 24.3329 4.74365 23.866 5.04193L23.8635 5.0435L12.2155 12.5802L11.5661 13.0004L12.2159 13.42L23.876 20.9489C24.3443 21.2513 24.5 21.591 24.5 21.8556C24.5 22.1196 24.345 22.4569 23.8781 22.7551L23.8752 22.757L21.1424 24.5293C21.1424 24.5294 21.1423 24.5294 21.1422 24.5295C20.6713 24.8335 20.027 25 19.3589 25C18.6906 25 18.0503 24.8334 17.5866 24.5307L17.5845 24.5293L1.13455 13.9077L1.13252 13.9064C0.657945 13.6032 0.500836 13.2629 0.500004 12.9984C0.499171 12.7339 0.654121 12.3947 1.12245 12.0923L17.5724 1.47065C18.0434 1.16655 18.6878 1 19.3559 1C20.0243 1 20.6645 1.16663 21.1283 1.46933Z" stroke="black"/>
</svg>
