<svg width="25" height="25" viewBox="0 0 25 25" fill="none" xmlns="http://www.w3.org/2000/svg">
<path d="M3.62528 7.14286V6.64286H3.12528H0.781561C0.697073 6.64286 0.591696 6.5882 0.531221 6.42105C0.470849 6.2542 0.498164 6.07103 0.605775 5.94793L0.620313 5.93129L0.633327 5.91345L4.52352 0.57826C4.5797 0.52027 4.63976 0.500414 4.68776 0.500414C4.73576 0.500414 4.79582 0.52027 4.852 0.57826L8.74219 5.91345L8.75528 5.93139L8.76991 5.94811C8.87807 6.07172 8.90505 6.2546 8.84466 6.421C8.78402 6.58805 8.67831 6.64286 8.59396 6.64286H6.25024H5.75024V7.14286V24.1071C5.75024 24.2313 5.70649 24.3391 5.64513 24.4092C5.58564 24.4772 5.5204 24.5 5.469 24.5H3.90652C3.85512 24.5 3.78988 24.4772 3.73039 24.4092C3.66903 24.3391 3.62528 24.2313 3.62528 24.1071V7.14286ZM11.7189 21.9286H14.8439C14.8953 21.9286 14.9605 21.9513 15.02 22.0193C15.0814 22.0895 15.1251 22.1973 15.1251 22.3214V24.1071C15.1251 24.2313 15.0814 24.3391 15.02 24.4092C14.9605 24.4772 14.8953 24.5 14.8439 24.5H11.7189C11.6675 24.5 11.6023 24.4772 11.5428 24.4092C11.4814 24.3391 11.4377 24.2313 11.4377 24.1071V22.3214C11.4377 22.1973 11.4814 22.0895 11.5428 22.0193C11.6023 21.9513 11.6675 21.9286 11.7189 21.9286ZM11.7189 7.64286H21.0938C21.1452 7.64286 21.2104 7.66563 21.2699 7.73362C21.3313 7.80374 21.375 7.91156 21.375 8.03571V9.82143C21.375 9.94558 21.3313 10.0534 21.2699 10.1235C21.2104 10.1915 21.1452 10.2143 21.0938 10.2143H11.7189C11.6675 10.2143 11.6023 10.1915 11.5428 10.1235C11.4814 10.0534 11.4377 9.94558 11.4377 9.82143V8.03571C11.4377 7.91156 11.4814 7.80374 11.5428 7.73362C11.6023 7.66563 11.6675 7.64286 11.7189 7.64286ZM11.7189 14.7857H17.9688C18.0202 14.7857 18.0855 14.8085 18.145 14.8765C18.2063 14.9466 18.2501 15.0544 18.2501 15.1786V16.9643C18.2501 17.0884 18.2063 17.1963 18.145 17.2664C18.0855 17.3344 18.0202 17.3571 17.9688 17.3571H11.7189C11.6675 17.3571 11.6023 17.3344 11.5428 17.2664C11.4814 17.1963 11.4377 17.0884 11.4377 16.9643V15.1786C11.4377 15.0544 11.4814 14.9466 11.5428 14.8765C11.6023 14.8085 11.6675 14.7857 11.7189 14.7857ZM11.7189 0.5H24.2188C24.2702 0.5 24.3354 0.522772 24.3949 0.590762C24.4562 0.660885 24.5 0.768703 24.5 0.892857V2.67857C24.5 2.80273 24.4562 2.91054 24.3949 2.98067C24.3354 3.04866 24.2702 3.07143 24.2188 3.07143H11.7189C11.6675 3.07143 11.6023 3.04866 11.5428 2.98067C11.4814 2.91054 11.4377 2.80273 11.4377 2.67857V0.892857C11.4377 0.768702 11.4814 0.660884 11.5428 0.590762C11.6023 0.522771 11.6675 0.5 11.7189 0.5Z" stroke="black"/>
</svg>
