<svg width="27" height="27" viewBox="0 0 27 27" fill="none" xmlns="http://www.w3.org/2000/svg">
<path d="M14.8145 13.3841V13.6386L15.0204 13.7884L18.221 16.117L18.2224 16.118C18.2639 16.1481 18.2806 16.2115 18.241 16.2665C18.2409 16.2666 18.2409 16.2667 18.2408 16.2667L16.8221 18.2188C16.8219 18.219 16.8217 18.2192 16.8216 18.2195C16.7877 18.2647 16.7207 18.2767 16.671 18.241C16.6709 18.241 16.6709 18.2409 16.6708 18.2408L12.2304 15.0138C12.23 15.0135 12.2296 15.0132 12.2292 15.0129C12.2006 14.9911 12.1855 14.9589 12.1855 14.9264V6.44355C12.1855 6.38703 12.2338 6.33871 12.2903 6.33871H14.7097C14.7662 6.33871 14.8145 6.38703 14.8145 6.44355V13.3841ZM13.5 0.5C6.31862 0.5 0.5 6.31862 0.5 13.5C0.5 20.6814 6.31862 26.5 13.5 26.5C20.6814 26.5 26.5 20.6814 26.5 13.5C26.5 6.31862 20.6814 0.5 13.5 0.5Z" stroke="black"/>
</svg>
