<svg width="26" height="26" viewBox="0 0 26 26" fill="none" xmlns="http://www.w3.org/2000/svg">
<path d="M1.20536 22.4286H24.4196C24.5238 22.4286 24.6238 22.47 24.6974 22.5436C24.7711 22.6173 24.8125 22.7172 24.8125 22.8214V24.6071C24.8125 24.7113 24.7711 24.8113 24.6974 24.8849C24.6238 24.9586 24.5238 25 24.4196 25H1.20536C1.10116 25 1.00124 24.9586 0.927565 24.8849C0.85389 24.8113 0.8125 24.7113 0.8125 24.6071V22.8214C0.8125 22.7172 0.85389 22.6173 0.927565 22.5436C1.00124 22.47 1.10116 22.4286 1.20536 22.4286ZM1.20536 15.2857H24.4196C24.5238 15.2857 24.6238 15.3271 24.6974 15.4008C24.7711 15.4745 24.8125 15.5744 24.8125 15.6786V17.4643C24.8125 17.5685 24.7711 17.6684 24.6974 17.7421C24.6238 17.8158 24.5238 17.8571 24.4196 17.8571H1.20536C1.10116 17.8571 1.00124 17.8158 0.927565 17.7421C0.85389 17.6684 0.8125 17.5685 0.8125 17.4643V15.6786C0.8125 15.5744 0.85389 15.4745 0.927565 15.4008C1.00124 15.3271 1.10116 15.2857 1.20536 15.2857ZM1.20536 8.14286H24.4196C24.5238 8.14286 24.6238 8.18425 24.6974 8.25792C24.7711 8.3316 24.8125 8.43152 24.8125 8.53571V10.3214C24.8125 10.4256 24.7711 10.5255 24.6974 10.5992C24.6238 10.6729 24.5238 10.7143 24.4196 10.7143H1.20536C1.10117 10.7143 1.00124 10.6729 0.927565 10.5992C0.85389 10.5255 0.8125 10.4256 0.8125 10.3214V8.53571C0.8125 8.43152 0.85389 8.3316 0.927565 8.25792C1.00124 8.18425 1.10117 8.14286 1.20536 8.14286ZM1.20536 1H24.4196C24.5238 1 24.6238 1.04139 24.6974 1.11507C24.7711 1.18874 24.8125 1.28866 24.8125 1.39286V3.17857C24.8125 3.28276 24.7711 3.38269 24.6974 3.45636C24.6238 3.53004 24.5238 3.57143 24.4196 3.57143H1.20536C1.10117 3.57143 1.00124 3.53004 0.927565 3.45636C0.85389 3.38269 0.8125 3.28276 0.8125 3.17857V1.39286C0.8125 1.28866 0.85389 1.18874 0.927565 1.11507C1.00124 1.04139 1.10116 1 1.20536 1Z" stroke="black"/>
</svg>
