<svg width="25" height="25" viewBox="0 0 25 25" fill="none" xmlns="http://www.w3.org/2000/svg">
<path d="M6.64062 4.07143H7.00313L7.11584 3.72689L7.71637 1.89113C7.71639 1.89107 7.71641 1.89101 7.71643 1.89095C8.00218 1.01876 8.7072 0.5 9.43359 0.5H15.5615C16.288 0.5 16.993 1.01883 17.2787 1.89113L17.2791 1.89209L17.8845 3.72803L17.9978 4.07143H18.3594H22.6562C23.6134 4.07143 24.5 4.98254 24.5 6.25V22.3214C24.5 23.5889 23.6134 24.5 22.6562 24.5H2.34375C1.38657 24.5 0.5 23.5889 0.5 22.3214V6.25C0.5 4.98254 1.38657 4.07143 2.34375 4.07143H6.64062ZM18.8594 14.2857C18.8594 10.3802 16.0692 7.08929 12.5 7.08929C8.93081 7.08929 6.14062 10.3802 6.14062 14.2857C6.14062 18.1912 8.93081 21.4821 12.5 21.4821C16.0692 21.4821 18.8594 18.1912 18.8594 14.2857ZM16.2969 14.2857C16.2969 16.7808 14.5314 18.6964 12.5 18.6964C10.4686 18.6964 8.70312 16.7808 8.70312 14.2857C8.70312 11.7906 10.4686 9.875 12.5 9.875C14.5314 9.875 16.2969 11.7906 16.2969 14.2857Z" stroke="black"/>
</svg>
