<svg width="26" height="26" viewBox="0 0 26 26" fill="none" xmlns="http://www.w3.org/2000/svg">
<path d="M14.8634 10.3214V10.8214H15.3634H23.3991C24.109 10.8214 24.6848 11.3972 24.6848 12.1071V13.8929C24.6848 14.6028 24.109 15.1786 23.3991 15.1786H15.3634H14.8634V15.6786V23.7143C14.8634 24.4242 14.2876 25 13.5777 25H11.792C11.0821 25 10.5062 24.4242 10.5062 23.7143V15.6786V15.1786H10.0062H1.97053C1.26062 15.1786 0.684814 14.6028 0.684814 13.8929V12.1071C0.684814 11.3972 1.26062 10.8214 1.97053 10.8214H10.0062H10.5062V10.3214V2.28571C10.5062 1.57581 11.0821 1 11.792 1H13.5777C14.2876 1 14.8634 1.57581 14.8634 2.28571V10.3214Z" stroke="black"/>
</svg>
