<svg width="25" height="25" viewBox="0 0 25 25" fill="none" xmlns="http://www.w3.org/2000/svg">
<path d="M13.9866 0.5C14.8166 0.50011 15.6448 0.567843 16.4608 0.702307C16.5162 0.711461 16.5434 0.731094 16.5558 0.742967C16.5695 0.756188 16.5754 0.769794 16.5774 0.78024C16.5793 0.790496 16.5777 0.79814 16.5747 0.80422C16.5728 0.808188 16.5627 0.82743 16.5208 0.84876L16.7475 1.29443L16.5208 0.848763C12.9393 2.67028 10.7021 6.07441 10.7021 9.80977C10.7021 16.305 17.2785 21.1153 24.3035 19.9196C24.4065 19.902 24.4664 19.9467 24.4891 19.9805C24.4947 19.9889 24.4975 19.9957 24.4989 20.0002C24.5001 20.0044 24.5 20.0064 24.5 20.0066L24.4999 20.0072C24.4998 20.0075 24.4996 20.0085 24.4989 20.0101C24.4977 20.0129 24.4935 20.0217 24.4812 20.0353L24.8513 20.3715L24.4812 20.0353C21.9703 22.8002 18.167 24.5 13.9867 24.5C6.47842 24.5 0.5 19.0726 0.5 12.5C0.5 5.91907 6.48771 0.5 13.9866 0.5ZM13.9866 0.5L13.9867 0M13.9866 0.5L13.9867 0M13.9867 0C14.8439 0.000114079 15.6993 0.070065 16.5422 0.208984L13.9867 0Z" stroke="black"/>
</svg>
