<svg width="25" height="25" viewBox="0 0 25 25" fill="none" xmlns="http://www.w3.org/2000/svg">
<path d="M0.5 12.5C0.5 5.8709 5.8709 0.5 12.5 0.5C19.1291 0.5 24.5 5.8709 24.5 12.5C24.5 19.1291 19.1291 24.5 12.5 24.5C5.8709 24.5 0.5 19.1291 0.5 12.5ZM19.1532 15.0161C19.762 15.0161 20.2581 14.5201 20.2581 13.9113V11.0887C20.2581 10.4799 19.762 9.98387 19.1532 9.98387H15.0161V5.84677C15.0161 5.23797 14.5201 4.74194 13.9113 4.74194H11.0887C10.4799 4.74194 9.98387 5.23797 9.98387 5.84677V9.98387H5.84677C5.23797 9.98387 4.74194 10.4799 4.74194 11.0887V13.9113C4.74194 14.5201 5.23797 15.0161 5.84677 15.0161H9.98387V19.1532C9.98387 19.762 10.4799 20.2581 11.0887 20.2581H13.9113C14.5201 20.2581 15.0161 19.762 15.0161 19.1532V15.0161H19.1532Z" stroke="black"/>
</svg>
