<svg width="25" height="25" viewBox="0 0 25 25" fill="none" xmlns="http://www.w3.org/2000/svg">
<path d="M23.3555 18.1546L23.3112 18.4551L23.5575 18.633L24.4879 19.3045C24.2607 20.1935 23.8931 21.0024 23.4233 21.6859L22.6231 21.1083L22.2666 20.8509L21.9658 21.1717C21.5823 21.5805 21.148 21.8914 20.6859 22.0968L20.3889 22.2288V22.5537V23.9117C19.7345 24.073 19.043 24.0791 18.3574 23.9114V22.5537V22.2288L18.0604 22.0968C17.5982 21.8914 17.1639 21.5805 16.7805 21.1717L16.4797 20.8509L16.1232 21.1083L15.3234 21.6855C14.8528 20.998 14.4854 20.1926 14.2584 19.3045L15.1887 18.633L15.4351 18.4551L15.3907 18.1546C15.2963 17.5145 15.2963 16.8605 15.3907 16.2204L15.4351 15.9199L15.1887 15.742L14.2584 15.0705C14.4856 14.1815 14.8532 13.3726 15.3229 12.6891L16.1232 13.2667L16.4797 13.5241L16.7805 13.2033C17.1639 12.7945 17.5982 12.4836 18.0604 12.2782L18.3574 12.1462V11.8213V10.4633C19.0118 10.302 19.7033 10.2959 20.3889 10.4636V11.8213V12.1462L20.6859 12.2782C21.148 12.4836 21.5823 12.7945 21.9658 13.2033L22.2666 13.5241L22.6231 13.2667L23.4233 12.6891C23.8931 13.3726 24.2607 14.1815 24.4879 15.0705L23.5575 15.742L23.3112 15.9199L23.3555 16.2204C23.45 16.8605 23.45 17.5145 23.3555 18.1546ZM14.1804 19.3608C14.1794 19.3616 14.1783 19.3623 14.1772 19.3631L14.1772 19.3631L14.1804 19.3608ZM24.5691 15.0119L24.5658 15.0143L24.5691 15.0119L24.5691 15.0119ZM12.0559 14.5625C11.8619 15.5495 12.1939 16.6181 12.9779 17.1825C12.9783 17.1828 12.9787 17.1831 12.9791 17.1834L12.9915 17.1924L12.9771 17.2029C12.1593 17.797 11.8316 18.9328 12.0861 19.9583C12.4096 21.2737 12.9837 22.5116 13.7401 23.5346L13.7421 23.5373C14.113 24.0317 14.6622 24.3525 15.2711 24.3525C15.5695 24.3525 15.8568 24.2716 16.1143 24.1331C16.1183 24.2122 16.1259 24.2893 16.1364 24.3643C15.9736 24.4537 15.8008 24.5 15.6266 24.5H1.8752C1.21438 24.5 0.5 23.7839 0.5 22.6562V20.625C0.5 17.1683 2.72626 14.5625 5.25055 14.5625H5.77276C6.68099 15.0587 7.68583 15.3438 8.75092 15.3438C9.81528 15.3438 10.8237 15.059 11.7295 14.5625H12.0559ZM16.9823 17.1875C16.9823 18.6568 17.955 20.0557 19.377 20.0557C20.7991 20.0557 21.7718 18.6568 21.7718 17.1875C21.7718 15.7175 20.7946 14.3193 19.377 14.3193C17.9595 14.3193 16.9823 15.7175 16.9823 17.1875ZM13.2515 6.25C13.2515 9.53583 11.1385 12 8.75092 12C6.36336 12 4.2504 9.53583 4.2504 6.25C4.2504 2.96417 6.36336 0.5 8.75092 0.5C11.1385 0.5 13.2515 2.96417 13.2515 6.25Z" stroke="black"/>
</svg>
