<svg width="25" height="25" viewBox="0 0 25 25" fill="none" xmlns="http://www.w3.org/2000/svg">
<path d="M10.2679 14.4014L6.71187 10.8454C6.16793 10.3015 5.28602 10.3015 4.74207 10.8454L4.74204 10.8454L3.47937 12.1081C2.93545 12.652 2.93545 13.534 3.47937 14.0779L9.28291 19.8814C9.28292 19.8814 9.28293 19.8814 9.28294 19.8815C9.82692 20.4255 10.7088 20.4255 11.2528 19.8815L21.5206 9.61365C22.0646 9.06973 22.0646 8.1878 21.5206 7.64388L20.258 6.38121C19.7141 5.83731 18.8321 5.83721 18.2881 6.38121L10.2679 14.4014ZM22.3214 24.5H2.67857C1.47536 24.5 0.5 23.5246 0.5 22.3214V2.67857C0.5 1.47536 1.47536 0.5 2.67857 0.5H22.3214C23.5246 0.5 24.5 1.47536 24.5 2.67857V22.3214C24.5 23.5246 23.5246 24.5 22.3214 24.5Z" stroke="black"/>
</svg>
