<svg width="26" height="26" viewBox="0 0 26 26" fill="none" xmlns="http://www.w3.org/2000/svg">
<path d="M24.5307 21.6283L24.5293 21.6304L22.7643 24.364C22.4619 24.8322 22.1222 24.9879 21.8576 24.9879C21.5936 24.9879 21.2563 24.8329 20.9581 24.366L20.9565 24.3636L13.4198 12.7155L12.9996 12.0661L12.58 12.7159L5.05106 24.376C4.74871 24.8443 4.40899 25 4.14437 25C3.88037 25 3.54313 24.845 3.24486 24.3781L3.24299 24.3752L1.47065 21.6425C1.47051 21.6422 1.47036 21.642 1.47021 21.6418C1.16639 21.1709 1 20.5268 1 19.8589C1 19.1906 1.16663 18.5503 1.46933 18.0866L1.47065 18.0845L12.0923 1.63455L12.0936 1.63252C12.3968 1.15795 12.7371 1.00084 13.0016 1C13.2661 0.999171 13.6053 1.15412 13.9077 1.62245L24.5293 18.0724C24.8334 18.5434 25 19.1878 25 19.8559C25 20.5243 24.8334 21.1645 24.5307 21.6283Z" stroke="black"/>
</svg>
