<svg width="25" height="25" viewBox="0 0 25 25" fill="none" xmlns="http://www.w3.org/2000/svg">
<path d="M14.0144 22.9746L14.0125 22.9765L12.7738 24.2474C12.4445 24.5853 11.9215 24.5825 11.6003 24.2493L11.5983 24.2473L0.751431 13.1242C0.415171 12.7792 0.417832 12.2201 0.74956 11.8834L0.751431 11.8815L11.5984 0.752584C11.9277 0.414722 12.4507 0.417528 12.772 0.75067L12.7738 0.752584L14.0125 2.02348C14.3496 2.36926 14.3435 2.94095 13.9981 3.28119C13.998 3.28134 13.9978 3.28148 13.9977 3.28163L7.27521 9.85254L6.39787 10.7101H7.62471H23.6609C24.1148 10.7101 24.5 11.0866 24.5 11.584V13.416C24.5 13.9134 24.1148 14.2899 23.6609 14.2899H7.62471H6.39787L7.27521 15.1475L13.9988 21.7195L13.9995 21.7202C14.3485 22.06 14.3546 22.6292 14.0144 22.9746Z" stroke="black"/>
</svg>
