<svg width="25" height="25" viewBox="0 0 25 25" fill="none" xmlns="http://www.w3.org/2000/svg">
<path d="M2.90931 20.9828L3.26951 20.636C2.0205 19.3387 1.06659 17.7824 0.506278 16.0647C0.49947 16.0411 0.50146 16.0194 0.50897 16.0009C0.516554 15.9823 0.531484 15.9627 0.558823 15.9477L0.560764 15.9467L2.80372 14.7067L3.12178 14.5309L3.0527 14.1741C2.83845 13.0675 2.83845 11.9325 3.0527 10.8259L3.12178 10.4691L2.80372 10.2933L0.560767 9.05335L0.558821 9.05228C0.52945 9.03622 0.513611 9.01514 0.50614 8.99699C0.498873 8.97933 0.497829 8.96104 0.504259 8.9415L0.504826 8.93975C1.06495 7.21519 2.01934 5.65764 3.26886 4.36462L3.26889 4.36465L3.2727 4.36061C3.31021 4.32092 3.38123 4.30351 3.44778 4.33946L5.6839 5.5785L5.9796 5.74235L6.24182 5.52899C7.14318 4.79555 8.17545 4.22453 9.28868 3.8453L9.62745 3.7299V3.37201V0.892181C9.62745 0.858943 9.65452 0.80654 9.7246 0.79191L9.72698 0.7914C11.4973 0.412638 13.4057 0.393215 15.2673 0.791412L15.2697 0.791904C15.3398 0.80654 15.3668 0.858944 15.3668 0.892181V3.36697V3.72684L15.7081 3.8411C16.8249 4.21506 17.8555 4.7852 18.7502 5.52207L19.0125 5.73813L19.3099 5.57371L21.5529 4.3338L21.5548 4.33275C21.6073 4.30342 21.6867 4.31418 21.731 4.35992L22.0902 4.01213L21.73 4.35891C22.979 5.65624 23.933 7.21254 24.4933 8.93026C24.5001 8.95388 24.4981 8.97555 24.4906 8.99404C24.483 9.01271 24.4681 9.03229 24.4407 9.04724L24.4388 9.04831L22.1958 10.2882L21.8778 10.4641L21.9468 10.8209C22.1611 11.9274 22.1611 13.0625 21.9468 14.1691L21.8778 14.5259L22.1958 14.7017L24.4388 15.9416L24.4407 15.9427C24.4677 15.9574 24.4833 15.9771 24.4918 15.9978C24.5 16.0178 24.5031 16.0432 24.4962 16.0719C23.9356 17.7918 22.9827 19.3453 21.7359 20.6354L21.7359 20.6354L21.7321 20.6394C21.6946 20.6791 21.6234 20.6965 21.5568 20.6604C21.5566 20.6603 21.5564 20.6602 21.5562 20.6601L19.3152 19.4213L19.0197 19.2579L18.7577 19.471C17.8564 20.2045 16.8241 20.7755 15.7109 21.1547L15.3721 21.2701V21.628V24.1078C15.3721 24.1411 15.345 24.1935 15.2749 24.2081L15.2726 24.2086C13.5022 24.5874 11.5939 24.6068 9.73222 24.2086L9.72986 24.2081C9.65979 24.1935 9.63271 24.1411 9.63271 24.1078V21.628V21.2681L9.29147 21.1539C8.17462 20.7799 7.14407 20.2098 6.24937 19.4729L5.98704 19.2568L5.6896 19.4213L3.44665 20.6612L3.44478 20.6622C3.39226 20.6915 3.31282 20.6808 3.26854 20.635L2.90931 20.9828ZM2.90931 20.9828C3.10939 21.1895 3.43583 21.2399 3.68855 21.0988L0.318863 15.5091C0.0608713 15.6502 -0.0549618 15.9425 0.0292805 16.2147C0.613711 18.0091 1.60882 19.632 2.90931 20.9828ZM0.0293984 8.78534L0.0292805 8.7853L0.0293984 8.78534ZM7.78503 12.495C7.78503 15.0142 9.91986 17.0272 12.4971 17.0272C15.0744 17.0272 17.2093 15.0142 17.2093 12.495C17.2093 9.9757 15.0744 7.96272 12.4971 7.96272C9.91986 7.96272 7.78503 9.9757 7.78503 12.495Z" stroke="black"/>
</svg>
