<svg width="25" height="26" viewBox="0 0 25 26" fill="none" xmlns="http://www.w3.org/2000/svg">
<path d="M19.0312 7.53125C19.0312 11.1369 16.1057 14.0625 12.5 14.0625C8.89431 14.0625 5.96875 11.1369 5.96875 7.53125C5.96875 3.92556 8.89431 1 12.5 1C16.1057 1 19.0312 3.92556 19.0312 7.53125ZM12.5 17.4062C13.8052 17.4062 15.0468 17.1235 16.1673 16.625H18.75C21.926 16.625 24.5 19.199 24.5 22.375V23.1562C24.5 24.1741 23.6741 25 22.6562 25H2.34375C1.32595 25 0.5 24.1741 0.5 23.1562V22.375C0.5 19.199 3.07399 16.625 6.25 16.625H8.83307C9.95713 17.1232 11.1941 17.4062 12.5 17.4062Z" stroke="black"/>
</svg>
