<svg width="26" height="26" viewBox="0 0 26 26" fill="none" xmlns="http://www.w3.org/2000/svg">
<path d="M1.46964 4.36116L1.46965 4.36116L1.47097 4.35911L3.23715 1.62436C3.53971 1.15588 3.87973 1 4.14469 1C4.40904 1 4.74658 1.15517 5.04506 1.62231L5.04506 1.62232L5.04637 1.62436L12.58 13.2894L13 13.9398L13.42 13.2894L20.9536 1.62436C21.2562 1.15588 21.5962 1 21.8612 1C22.1255 1 22.4631 1.15517 22.7615 1.62232L22.7628 1.62436L24.529 4.35911C24.8333 4.83032 25 5.475 25 6.14345C25 6.81213 24.8333 7.45264 24.5303 7.91667L24.529 7.91872L13.9007 24.3756L13.9007 24.3756L13.8981 24.3798C13.6035 24.8457 13.2684 25 13.0059 25C12.742 25 12.402 24.8443 12.0993 24.3756L1.47097 7.91872C1.16666 7.44752 1 6.80283 1 6.13438C1 5.4657 1.16674 4.82519 1.46964 4.36116Z" stroke="black"/>
</svg>
