<svg width="20" height="20" viewBox="0 0 20 20" fill="none" xmlns="http://www.w3.org/2000/svg">
<path d="M12.9756 15.7919L12.9757 15.7923C13.108 16.5662 12.2941 17.1572 11.5994 16.7912L10 15.9508L8.40203 16.7907C8.40184 16.7908 8.40165 16.7909 8.40146 16.791C7.70346 17.1602 6.89288 16.5628 7.02474 15.7922L7.02479 15.7919L7.33066 14.0113L6.03753 12.7512C6.03748 12.7512 6.03742 12.7511 6.03737 12.7511C5.4744 12.2027 5.78474 11.2455 6.56277 11.1329M12.9756 15.7919L6.63437 11.6277M12.9756 15.7919L12.6697 14.0113L12.9756 15.7919ZM6.56277 11.1329L6.63437 11.6277M6.56277 11.1329L6.56227 11.133L6.63437 11.6277M6.56277 11.1329L8.35021 10.8724M6.63437 11.6277L8.68242 11.3293M8.35021 10.8724L8.23397 11.1082L8.68242 11.3293M8.35021 10.8724L9.14919 9.25196M8.35021 10.8724L8.61032 10.8345L8.68242 11.3293M8.68242 11.3293L9.14919 9.25196M9.14919 9.25196L9.59766 9.47305L9.1492 9.25193C9.1492 9.25194 9.1492 9.25195 9.14919 9.25196ZM11.6502 10.8724L13.4376 11.1329L13.4381 11.133L11.6502 10.8724ZM11.6502 10.8724L11.3901 10.8345L11.318 11.3293L11.6502 10.8724ZM7.94657 4.75651C6.68171 5.06547 5.52754 5.65206 4.55093 6.45021L0.523777 0.697043C0.523762 0.697022 0.523747 0.697 0.523732 0.696979C0.465451 0.613539 0.525211 0.5 0.626145 0.5H4.96795C5.09747 0.500002 5.22478 0.533549 5.33748 0.597373C5.45017 0.661198 5.54442 0.753124 5.61104 0.864197L5.61109 0.864291L7.94657 4.75651ZM14.3889 0.864291L14.389 0.864149C14.5244 0.638311 14.7686 0.5 15.032 0.5H19.3739C19.4748 0.5 19.5346 0.613597 19.4762 0.697043L15.449 6.4499C14.4724 5.65201 13.3183 5.06546 12.0534 4.75651L14.3889 0.864291ZM3.62498 13.125C3.62498 9.60427 6.47926 6.75 10 6.75C13.5207 6.75 16.375 9.60427 16.375 13.125C16.375 16.6457 13.5207 19.5 10 19.5C6.47926 19.5 3.62498 16.6457 3.62498 13.125Z" stroke="black"/>
</svg>
