<svg width="24" height="26" viewBox="0 0 24 26" fill="none" xmlns="http://www.w3.org/2000/svg">
<path d="M19.5379 11.4375V11.9375H20.0379H21.317C22.4951 11.9375 23.375 12.8037 23.375 13.7812V23.1562C23.375 24.1338 22.4951 25 21.317 25H2.55804C1.37985 25 0.5 24.1338 0.5 23.1562V13.7812C0.5 12.8037 1.37985 11.9375 2.55804 11.9375H3.83705H4.33705V11.4375V7.92188C4.33705 4.1465 7.70566 1 11.9375 1C16.1693 1 19.5379 4.1465 19.5379 7.92188V11.4375ZM15.7746 11.9375H16.2746V11.4375V7.92188C16.2746 5.66698 14.2873 3.90625 11.9375 3.90625C9.58772 3.90625 7.60045 5.66698 7.60045 7.92188V11.4375V11.9375H8.10045H15.7746Z" stroke="black"/>
</svg>
