<svg width="25" height="25" viewBox="0 0 25 25" fill="none" xmlns="http://www.w3.org/2000/svg">
<path d="M12.5025 0.5C13.2248 0.5 14.0277 1.07914 14.7775 2.3909C15.4462 3.56071 16.0035 5.20291 16.3694 7.16129H8.63568C9.00149 5.20291 9.55884 3.56071 10.2275 2.3909C10.9773 1.07914 11.7802 0.5 12.5025 0.5ZM16.7162 15.2258H8.28376C8.20621 14.3473 8.16284 13.4398 8.16284 12.5C8.16284 11.5602 8.20621 10.6527 8.28376 9.77419H16.7162C16.7938 10.6527 16.8372 11.5602 16.8372 12.5C16.8372 13.4398 16.7938 14.3473 16.7162 15.2258ZM17.2351 1.47705C19.8523 2.59961 21.9875 4.62512 23.2524 7.16129H19.0128C18.6502 5.03095 18.06 3.05386 17.2351 1.47705ZM1.75174 7.16129C3.01321 4.62605 5.15005 2.60071 7.76449 1.47785C6.94007 3.05445 6.3507 5.03114 5.99158 7.16129H1.75174ZM19.3373 15.2258C19.4131 14.3281 19.4554 13.4146 19.4554 12.5C19.4554 11.5854 19.4131 10.6719 19.3373 9.77419H24.1804C24.3852 10.6541 24.5 11.5613 24.5 12.5C24.5 13.4393 24.3851 14.3465 24.1771 15.2258H19.3373ZM0.824384 9.77419H5.66774C5.59198 10.6719 5.54961 11.5854 5.54961 12.5C5.54961 13.4151 5.59202 14.3287 5.66486 15.2258H0.824384C0.61836 14.3447 0.5 13.4376 0.5 12.5C0.5 11.5624 0.618361 10.6553 0.824384 9.77419ZM12.5025 24.5C11.7802 24.5 10.9773 23.9209 10.2275 22.6091C9.55884 21.4393 9.00149 19.7971 8.63568 17.8387H16.3694C16.0035 19.7971 15.4462 21.4393 14.7775 22.6091C14.0277 23.9209 13.2248 24.5 12.5025 24.5ZM19.0178 17.8387H23.2573C21.9923 20.3741 19.8549 22.3993 17.2406 23.5221C18.0652 21.9454 18.6553 19.9687 19.0178 17.8387ZM5.99228 17.8387C6.3548 19.969 6.94506 21.9461 7.7699 23.523C5.15273 22.4004 3.01755 20.3749 1.75268 17.8387H5.99228Z" stroke="black"/>
</svg>
