<svg width="25" height="25" viewBox="0 0 25 25" fill="none" xmlns="http://www.w3.org/2000/svg">
<path d="M11.5829 24.1566C9.87995 22.305 8.43101 20.757 7.19875 19.4404M11.5829 24.1566C11.583 24.1567 11.5832 24.1569 11.5834 24.1571L11.2154 24.4956L11.5828 24.1565C11.5828 24.1565 11.5828 24.1565 11.5829 24.1566ZM11.5829 24.1566L7.19875 19.4404M7.19875 19.4404C4.99319 17.084 3.48173 15.4692 2.45045 14.1831C1.65394 13.1898 1.17335 12.4269 0.887217 11.7023C0.604253 10.9857 0.5 10.2772 0.5 9.375C0.5 6.97882 1.79382 4.77137 3.96116 3.14587C6.12865 1.52025 9.14593 0.5 12.5 0.5C15.8541 0.5 18.8713 1.52025 21.0388 3.14587C23.2062 4.77137 24.5 6.97882 24.5 9.375C24.5 10.2772 24.3957 10.9857 24.1128 11.7023C23.8266 12.4269 23.3461 13.1898 22.5496 14.1831C21.5183 15.4692 20.0068 17.084 17.8012 19.4404C16.569 20.757 15.12 22.3051 13.417 24.1567L7.19875 19.4404ZM12.5 13.7812C14.036 13.7812 15.4458 13.3149 16.4829 12.5371C17.5201 11.7592 18.2083 10.6463 18.2083 9.375C18.2083 8.10365 17.5201 6.99078 16.4829 6.21286C15.4458 5.43505 14.036 4.96875 12.5 4.96875C10.964 4.96875 9.55423 5.43505 8.51715 6.21286C7.47991 6.99078 6.79167 8.10365 6.79167 9.375C6.79167 10.6463 7.47991 11.7592 8.51715 12.5371C9.55423 13.3149 10.964 13.7812 12.5 13.7812Z" stroke="black"/>
</svg>
