<svg width="29" height="29" viewBox="0 0 29 29" fill="none" xmlns="http://www.w3.org/2000/svg">
<path d="M18.6755 19.7472L18.9473 19.8959L19.2014 19.7186C20.178 19.0374 21.423 18.625 22.7857 18.625C26.0064 18.625 28.5 20.8962 28.5 23.5625C28.5 26.2288 26.0064 28.5 22.7857 28.5C19.565 28.5 17.0714 26.2288 17.0714 23.5625V23.5623C17.0713 23.207 17.1155 22.8524 17.2035 22.5047L17.2985 22.1292L16.9587 21.9434L10.3245 18.3153L10.0527 18.1666L9.79857 18.3439C8.82196 19.0251 7.57702 19.4375 6.21429 19.4375C2.99359 19.4375 0.5 17.1663 0.5 14.5C0.5 11.8337 2.99359 9.5625 6.21429 9.5625C7.57702 9.5625 8.82196 9.97489 9.79857 10.6561L10.0527 10.8334L10.3245 10.6847L16.9587 7.05663L17.2985 6.87078L17.2035 6.49528C17.1172 6.15435 17.0714 5.80064 17.0714 5.4375C17.0714 2.77124 19.565 0.5 22.7857 0.5C26.0064 0.5 28.5 2.77124 28.5 5.4375C28.5 8.10376 26.0064 10.375 22.7857 10.375C21.423 10.375 20.178 9.96261 19.2014 9.28136L18.9473 9.10408L18.6755 9.25275L12.0413 12.8808L11.7016 13.0666L11.7965 13.442C11.9726 14.1392 11.9726 14.8608 11.7965 15.558L11.7016 15.9334L12.0413 16.1191L18.6755 19.7472Z" stroke="black"/>
</svg>
