<svg width="25" height="25" viewBox="0 0 25 25" fill="none" xmlns="http://www.w3.org/2000/svg">
<path d="M13.8664 1.06836C13.4971 0.746387 13.0082 0.566986 12.5 0.566986C11.9919 0.566986 11.503 0.746387 11.1337 1.06836L1.49978 9.46554C1.2048 9.72299 0.969919 10.0333 0.809529 10.3773C0.649138 10.7215 0.566616 11.0922 0.567018 11.4667V21.6834C0.567545 22.4129 0.882084 23.1122 1.4415 23.6278C2.00091 24.1434 2.75941 24.433 3.55027 24.433H6.53352C7.32473 24.433 8.08353 24.1432 8.643 23.6272C9.20247 23.1112 9.51677 22.4114 9.51677 21.6816V17.096C9.51677 16.8528 9.62154 16.6195 9.80803 16.4475C9.99452 16.2755 10.2475 16.1789 10.5112 16.1789H14.4888C14.7526 16.1789 15.0056 16.2755 15.192 16.4475C15.3786 16.6195 15.4833 16.8528 15.4833 17.096V21.6816C15.4833 22.4114 15.7975 23.1112 16.3571 23.6272C16.9165 24.1432 17.6753 24.433 18.4665 24.433H21.4498C22.241 24.433 22.9998 24.1432 23.5592 23.6272C24.1188 23.1112 24.433 22.4114 24.433 21.6816V11.4649C24.4329 11.0905 24.35 10.7201 24.1892 10.3763C24.0285 10.0325 23.7934 9.72262 23.4982 9.46554C20.39 6.54134 17.1885 3.74196 13.8664 1.06836Z" stroke="black"/>
</svg>
