<svg width="25" height="25" viewBox="0 0 25 25" fill="none" xmlns="http://www.w3.org/2000/svg">
<path d="M22.3707 9.80929L22.4367 10.0155L22.6323 10.1085C23.6808 10.6068 24.5 11.9147 24.5 13.5417V16.6667C24.5 17.615 24.2102 18.4621 23.757 19.1098L23.6667 19.2389V19.3965V22.9167C23.6667 23.9008 23.0458 24.5 22.5 24.5H20.8333C20.2875 24.5 19.6667 23.9008 19.6667 22.9167V20.8333V20.3333H19.1667H5.83333H5.33333V20.8333V22.9167C5.33333 23.9008 4.71249 24.5 4.16667 24.5H2.5C1.95418 24.5 1.33333 23.9008 1.33333 22.9167V19.3965V19.239L1.24312 19.11C0.78971 18.4614 0.5 17.6143 0.5 16.6667V13.5417C0.5 11.9147 1.31923 10.6068 2.36774 10.1085L2.56333 10.0155L2.62934 9.80929L3.21475 7.97986L3.21476 7.97985L4.25277 4.73574C4.25277 4.73573 4.25278 4.73572 4.25278 4.73571C5.09658 2.09918 7.06745 0.5 9.19271 0.5H15.8073C17.933 0.5 19.9034 2.09915 20.7472 4.73571C20.7472 4.73572 20.7472 4.73573 20.7472 4.73574L21.7852 7.97985L21.7852 7.97986L22.3707 9.80929ZM6.39515 5.97843L6.39514 5.97849L5.35712 9.22263L5.14838 9.875H5.83333H19.1667H19.8516L19.6429 9.22263L18.6049 5.97849L18.6048 5.97843C18.1778 4.64431 17.1034 3.66667 15.8073 3.66667H9.19271C7.89662 3.66667 6.82219 4.64431 6.39515 5.97843ZM2 14.5768C2 15.2848 2.18929 15.9231 2.56838 16.3955C2.9551 16.8774 3.51529 17.1536 4.16667 17.1536C4.28193 17.1536 4.40537 17.1566 4.54017 17.1598L4.54933 17.16C4.68543 17.1632 4.83175 17.1666 4.97917 17.1666C5.27041 17.1666 5.59249 17.1538 5.89334 17.0913C6.19198 17.0293 6.51727 16.9089 6.76967 16.6573C7.03565 16.3921 7.16667 16.0358 7.16667 15.6152C7.16667 14.8277 6.7128 13.9393 6.18162 13.2774C5.90837 12.9369 5.59288 12.6283 5.26376 12.4004C4.94392 12.179 4.56201 12 4.16667 12C3.51529 12 2.9551 12.2763 2.56838 12.7582C2.18929 13.2306 2 13.8689 2 14.5768ZM17.8333 15.6152C17.8333 16.0358 17.9643 16.3921 18.2303 16.6573C18.4827 16.9089 18.808 17.0293 19.1067 17.0913C19.4075 17.1538 19.7296 17.1666 20.0208 17.1666C20.1683 17.1666 20.3146 17.1632 20.4507 17.16L20.4598 17.1598C20.5946 17.1566 20.7181 17.1536 20.8333 17.1536C21.4847 17.1536 22.0449 16.8774 22.4316 16.3955C22.8107 15.9231 23 15.2848 23 14.5768C23 13.8689 22.8107 13.2306 22.4316 12.7582C22.0449 12.2763 21.4847 12 20.8333 12C20.438 12 20.0561 12.179 19.7362 12.4004C19.4071 12.6283 19.0916 12.9369 18.8184 13.2774C18.2872 13.9393 17.8333 14.8277 17.8333 15.6152Z" stroke="black"/>
</svg>
