<svg width="25" height="25" viewBox="0 0 25 25" fill="none" xmlns="http://www.w3.org/2000/svg">
<path d="M23.2816 4.55182L23.282 4.55196C24.0312 4.84399 24.5 5.52286 24.5 6.24939C24.5 16.8118 17.5867 22.6711 13.2769 24.3546C12.7792 24.5484 12.2162 24.5485 11.7185 24.3548C6.33237 22.2499 0.5 15.7316 0.5 6.24939C0.5 5.52337 0.968231 4.84461 1.72237 4.5523L1.72361 4.55182L11.7229 0.645457C11.723 0.645418 11.7231 0.64538 11.7232 0.645341C11.9694 0.549619 12.2344 0.5 12.5026 0.5C12.7708 0.5 13.0358 0.54962 13.282 0.645341C13.2821 0.64538 13.2822 0.645418 13.2823 0.645457L23.2816 4.55182ZM12.0052 21.793L12.0054 22.5776L12.7165 22.2461C17.7705 19.8894 21.9851 14.3604 22.1613 6.77864L22.1695 6.42869L21.8434 6.30131L12.682 2.72185L11.9998 2.45533L12 3.18771L12.0052 21.793Z" stroke="black"/>
</svg>
