<svg width="25" height="25" viewBox="0 0 25 25" fill="none" xmlns="http://www.w3.org/2000/svg">
<path d="M20.5635 16.4541L20.5675 16.4541C21.6997 16.447 22.8279 16.3298 23.9361 16.1044C23.5501 17.3291 22.9687 18.485 22.2133 19.527C17.884 20.7451 13.1406 19.9743 9.25203 17.4374C10.1975 16.2753 11.3246 15.2728 12.5902 14.4691C15.0952 15.7689 17.8202 16.4491 20.5635 16.4541ZM10.751 11.5956C7.43094 13.7125 4.93548 16.8942 3.6679 20.6103C2.79875 19.6671 2.08482 18.5901 1.55424 17.4195C2.66147 13.0522 5.70266 9.32446 9.85225 7.22424C10.3853 8.62289 10.689 10.099 10.751 11.5956ZM8.69061 4.8836C5.14561 6.67619 2.29276 9.49761 0.507866 12.9005C0.346976 8.40948 2.70213 4.33366 6.43712 2.14491C7.30296 2.95745 8.06031 3.87797 8.69061 4.8836ZM9.88702 0.791911C11.6413 0.396282 13.0177 0.493019 13.7168 0.567686C16.9396 3.70783 18.6467 8.2024 18.3946 12.8443C16.9163 12.6072 15.4857 12.1322 14.1585 11.4373C13.9847 7.50167 12.4747 3.74814 9.88702 0.791911ZM13.4234 24.4652C11.0311 24.6481 8.6421 24.1069 6.56559 22.9163C6.84064 21.765 7.24353 20.6638 7.78754 19.6361C10.2841 21.2654 14.102 22.9129 18.8014 22.7119C17.1822 23.7136 15.3391 24.3187 13.4234 24.4652ZM21.0009 13.0158C21.2245 9.0565 20.208 5.17714 18.1548 1.93377C21.9118 3.94343 24.474 7.88248 24.4998 12.4375C23.3626 12.7784 22.1868 12.9727 21.0009 13.0158Z" stroke="black"/>
</svg>
