<svg width="25" height="25" viewBox="0 0 25 25" fill="none" xmlns="http://www.w3.org/2000/svg">
<path d="M23.8619 5.81901L24.1883 5.49265L23.8619 5.81901C24.2705 6.22757 24.5 6.7817 24.5 7.35949V22.3214C24.5 23.5246 23.5246 24.5 22.3214 24.5H2.67857C1.47536 24.5 0.5 23.5246 0.5 22.3214V2.67857C0.5 1.47536 1.47536 0.5 2.67857 0.5H17.6405C18.2183 0.500003 18.7724 0.729532 19.181 1.13809L19.5313 0.787786L19.181 1.1381L23.8619 5.81901ZM8.42857 17.8571C8.42857 20.1057 10.2514 21.9286 12.5 21.9286C14.7486 21.9286 16.5714 20.1057 16.5714 17.8571C16.5714 15.6086 14.7486 13.7857 12.5 13.7857C10.2514 13.7857 8.42857 15.6086 8.42857 17.8571ZM18.3571 10.0446V4.43531C18.3571 4.4353 18.3571 4.43528 18.3571 4.43527C18.3572 4.28166 18.3269 4.12956 18.2681 3.98765C18.2093 3.84575 18.1232 3.71682 18.0145 3.60822C18.0145 3.6082 18.0145 3.60818 18.0145 3.60816L17.8204 3.4141C17.601 3.19462 17.3035 3.07143 16.9933 3.07143H4.24107C3.59512 3.07143 3.07143 3.59512 3.07143 4.24107V10.0446C3.07143 10.6906 3.59512 11.2143 4.24107 11.2143H17.1875C17.8335 11.2143 18.3571 10.6906 18.3571 10.0446Z" stroke="black"/>
</svg>
