<svg width="25" height="25" viewBox="0 0 25 25" fill="none" xmlns="http://www.w3.org/2000/svg">
<path d="M13.7846 2.99739V2.58008V1.5625C13.7846 1.03619 13.2738 0.5 12.5 0.5C11.7262 0.5 11.2154 1.03619 11.2154 1.5625V2.58008V2.99739L10.8048 3.07202C6.88188 3.78508 4.07592 6.66139 4.07592 10.1562C4.07592 12.724 3.55655 14.4418 2.86794 15.6619C2.26702 16.7266 1.54629 17.3885 1.02727 17.8652C0.954977 17.9316 0.886599 17.9944 0.823003 18.0542C0.585154 18.278 0.498347 18.5229 0.500024 18.7462L13.7846 2.99739ZM13.7846 2.99739L14.1952 3.07202M13.7846 2.99739L14.1952 3.07202M14.1952 3.07202C18.1181 3.78508 20.9241 6.66139 20.9241 10.1562C20.9241 12.724 21.4434 14.4418 22.1321 15.6619C22.733 16.7266 23.4537 17.3885 23.9727 17.8652C24.045 17.9316 24.1134 17.9944 24.177 18.0542L24.5195 17.6899M14.1952 3.07202L24.5195 17.6899M24.5195 17.6899L24.1772 18.0544C24.4147 18.2774 24.5017 18.5226 24.5 18.7462L24.5 18.7465C24.4965 19.2403 24.0342 19.8125 23.2087 19.8125H1.79133C0.966104 19.8125 0.503843 19.2405 0.500024 18.7462L24.5195 17.6899ZM15.5127 22.375C15.2431 23.5477 14.0447 24.5 12.5 24.5C10.9553 24.5 9.75685 23.5477 9.48727 22.375H15.5127Z" stroke="black"/>
</svg>
