<svg width="25" height="26" viewBox="0 0 25 26" fill="none" xmlns="http://www.w3.org/2000/svg">
<path d="M13.2838 13.7866L13.2836 13.7867C12.8494 14.2213 12.1445 14.2213 11.7103 13.7867L11.71 13.7864C11.2755 13.3523 11.2753 12.6478 11.7101 12.2129C12.1443 11.7787 12.849 11.7785 13.2839 12.2131C13.7184 12.6472 13.7186 13.3517 13.2838 13.7866ZM15.9842 15.4458L15.9842 15.4457L19.3093 8.17005C19.3093 8.17004 19.3093 8.17003 19.3093 8.17003C19.8854 6.90958 18.587 5.6116 17.3269 6.18678L17.3267 6.18688L10.0515 9.51198L10.0514 9.51199C9.5903 9.72277 9.22049 10.0926 9.0097 10.5537L5.68409 17.8294L6.13884 18.0373L5.68409 17.8295C5.10804 19.0898 6.40691 20.3887 7.66725 19.8126L14.9425 16.4875L14.9425 16.4875C15.4036 16.2767 15.7734 15.9069 15.9842 15.4458ZM0.496704 13C0.496704 6.37241 5.86912 1 12.4967 1C19.1243 1 24.4967 6.37241 24.4967 13C24.4967 19.6276 19.1243 25 12.4967 25C5.86912 25 0.496704 19.6276 0.496704 13Z" stroke="black"/>
</svg>
