<svg width="25" height="19" viewBox="0 0 25 19" fill="none" xmlns="http://www.w3.org/2000/svg">
<path d="M8.8384 17.7868L8.83842 17.7868C9.13279 18.071 9.61713 18.0711 9.91158 17.7868L8.8384 17.7868ZM8.8384 17.7868L0.713399 9.94193C0.428881 9.66722 0.428851 9.22928 0.713404 8.9545C0.713408 8.9545 0.713413 8.95449 0.713417 8.95449L2.48113 7.24768L2.48114 7.24766C2.77553 6.9634 3.2599 6.9634 3.55428 7.24766L3.5543 7.24768L9.02769 12.5323L9.37499 12.8676L9.72229 12.5323L21.4457 1.21318L21.0987 0.853851L21.4457 1.21318C21.7401 0.928941 22.2245 0.928941 22.5189 1.21318L24.2866 2.92L24.5985 2.5969L24.2866 2.92C24.5711 3.19471 24.5711 3.63264 24.2866 3.90742C24.2866 3.90743 24.2866 3.90743 24.2866 3.90744L9.9116 17.7868L8.8384 17.7868Z" stroke="black"/>
</svg>
