<svg width="23" height="28" viewBox="0 0 23 28" fill="none" xmlns="http://www.w3.org/2000/svg">
<path d="M21.9967 24.1562V6.96875C21.9967 5.36827 20.6227 4.125 18.9967 4.125H15.294C15.0346 2.33972 13.4055 1 11.4967 1C9.58789 1 7.95882 2.33972 7.69936 4.125H3.9967C2.37072 4.125 0.996704 5.36827 0.996704 6.96875V24.1562C0.996704 25.7567 2.37072 27 3.9967 27H18.9967C20.6227 27 21.9967 25.7567 21.9967 24.1562ZM10.7467 4.625C10.7467 4.28383 11.0516 3.95312 11.4967 3.95312C11.9418 3.95312 12.2467 4.28383 12.2467 4.625C12.2467 4.96617 11.9418 5.29688 11.4967 5.29688C11.0516 5.29688 10.7467 4.96617 10.7467 4.625ZM15.9967 8.25V8.8125H6.9967V8.25H15.9967Z" stroke="black"/>
</svg>
