<svg width="25" height="25" viewBox="0 0 25 25" fill="none" xmlns="http://www.w3.org/2000/svg">
<path d="M16.8851 12.1464L16.5315 12.5L16.8851 12.8536L23.9922 19.9607C23.9922 19.9607 23.9923 19.9608 23.9923 19.9608C24.6694 20.6385 24.6691 21.736 23.9923 22.4128L22.4128 23.9923C21.7359 24.6692 20.6377 24.6692 19.9608 23.9923L12.8536 16.8851L12.5 16.5315L12.1464 16.8851L5.0392 23.9923C4.36231 24.6692 3.26412 24.6692 2.58722 23.9923L1.00782 22.4129C0.330648 21.7352 0.330855 20.6376 1.00767 19.9608L8.11492 12.8536L8.46847 12.5L8.11492 12.1464L1.00782 5.03935C1.00777 5.0393 1.00772 5.03925 1.00767 5.0392C0.330648 4.36147 0.330903 3.26399 1.00767 2.58722L2.58707 1.00782C3.26479 0.330648 4.36238 0.330855 5.0392 1.00767L12.1464 8.11492L12.5 8.46847L12.8536 8.11492L19.9607 1.00782C19.9607 1.00777 19.9608 1.00772 19.9608 1.00767C20.6385 0.330649 21.736 0.330903 22.4128 1.00767L23.9922 2.58707C23.9922 2.58712 23.9923 2.58717 23.9923 2.58722C24.6694 3.26495 24.6691 4.36243 23.9923 5.0392L16.8851 12.1464Z" stroke="black"/>
</svg>
