<svg width="25" height="25" viewBox="0 0 25 25" fill="none" xmlns="http://www.w3.org/2000/svg">
<path d="M4.03379 16.2092L4.03396 16.2093C4.34543 16.5433 4.71806 16.7884 5.125 16.9131V17.4107C5.125 17.624 5.18465 17.8385 5.30689 18.0132C5.42807 18.1863 5.64336 18.3571 5.9375 18.3571H6.5625C6.85664 18.3571 7.07193 18.1863 7.19311 18.0132C7.31535 17.8385 7.375 17.624 7.375 17.4107V16.9221C7.82691 16.7694 8.20118 16.4361 8.47076 16.0306C8.83317 15.4855 9.0418 14.7666 9.0418 13.9961C9.0418 13.3659 8.89886 12.7598 8.64282 12.2573C8.38894 11.7591 8.00555 11.3298 7.50525 11.1152L7.50516 11.1152L5.7714 10.3722C5.76715 10.3661 5.76107 10.3562 5.75388 10.3413C5.7293 10.2904 5.70781 10.2096 5.70781 10.111C5.70781 10.0035 5.73247 9.92215 5.75632 9.875H6.7668C6.80208 9.875 6.85855 9.88737 6.93371 9.95479L6.93411 9.95515C7.07911 10.0849 7.28224 10.178 7.51477 10.1581C7.75189 10.1379 7.94204 10.007 8.06627 9.83783L8.06641 9.83764L8.52539 9.21208L8.52549 9.21195C8.67401 9.00939 8.72608 8.76466 8.71975 8.55338C8.71348 8.34442 8.64725 8.09277 8.4659 7.89808C8.1542 7.56338 7.78146 7.3185 7.37461 7.19398V6.69643C7.37461 6.48318 7.31496 6.26862 7.19272 6.09399C7.07154 5.92087 6.85625 5.75 6.56211 5.75H5.93711C5.64297 5.75 5.42768 5.92087 5.3065 6.09399C5.18426 6.26862 5.12461 6.48318 5.12461 6.69643V7.18505C4.67265 7.33785 4.29838 7.6713 4.02883 8.07678C3.66645 8.62189 3.45781 9.34081 3.45781 10.111C3.45781 10.7412 3.60075 11.3473 3.85679 11.8498C4.11067 12.3481 4.49406 12.7774 4.99436 12.9919L4.99445 12.9919L6.72821 13.735C6.73246 13.7411 6.73854 13.7509 6.74573 13.7658C6.77031 13.8168 6.7918 13.8976 6.7918 13.9961C6.7918 14.1036 6.76714 14.185 6.74329 14.2321H5.73281C5.69831 14.2321 5.64141 14.2198 5.56514 14.1517L5.23225 14.5243L5.5655 14.152C5.4205 14.0222 5.21737 13.9292 4.98484 13.949C4.74771 13.9692 4.55757 14.1002 4.43334 14.2693L4.4332 14.2695L3.97422 14.8951L3.97412 14.8952C3.82559 15.0978 3.77353 15.3425 3.77986 15.5538C3.78613 15.7628 3.85238 16.0144 4.03379 16.2092ZM5.77796 10.3803C5.77795 10.3804 5.77761 10.3801 5.77699 10.3794C5.77766 10.38 5.77797 10.3803 5.77796 10.3803ZM5.77988 9.8382C5.7799 9.83827 5.77923 9.83909 5.77784 9.84043C5.77918 9.8388 5.77987 9.83813 5.77988 9.8382ZM6.72262 13.7278C6.72196 13.7272 6.72164 13.7268 6.72165 13.7268C6.72166 13.7268 6.72199 13.7271 6.72262 13.7278ZM6.71972 14.2689C6.71971 14.2689 6.72038 14.2681 6.72177 14.2667C6.72043 14.2683 6.71974 14.269 6.71972 14.2689ZM1.25 0.5H23.75C23.8871 0.5 24.0625 0.578801 24.2242 0.80982C24.3848 1.03923 24.5 1.38273 24.5 1.78571V23.2143C24.5 23.6173 24.3848 23.9608 24.2242 24.1902C24.0625 24.4212 23.8871 24.5 23.75 24.5H1.25C1.11288 24.5 0.937491 24.4212 0.775778 24.1902C0.615191 23.9608 0.5 23.6173 0.5 23.2143V1.78571C0.5 1.38273 0.615191 1.03923 0.775778 0.80982C0.937491 0.578801 1.11288 0.5 1.25 0.5ZM15.9375 16.5714C16.2316 16.5714 16.4469 16.4006 16.5681 16.2274C16.6904 16.0528 16.75 15.8382 16.75 15.625V14.7321C16.75 14.5189 16.6904 14.3043 16.5681 14.1297C16.4469 13.9566 16.2316 13.7857 15.9375 13.7857H11.5625C11.2684 13.7857 11.0531 13.9566 10.9319 14.1297C10.8096 14.3043 10.75 14.5189 10.75 14.7321V15.625C10.75 15.8382 10.8096 16.0528 10.9319 16.2274C11.0531 16.4006 11.2684 16.5714 11.5625 16.5714H15.9375ZM22.1875 16.5714C22.4816 16.5714 22.6969 16.4006 22.8181 16.2274C22.9404 16.0528 23 15.8382 23 15.625V14.7321C23 14.5189 22.9404 14.3043 22.8181 14.1297C22.6969 13.9566 22.4816 13.7857 22.1875 13.7857H19.0625C18.7684 13.7857 18.5531 13.9566 18.4319 14.1297C18.3096 14.3043 18.25 14.5189 18.25 14.7321V15.625C18.25 15.8382 18.3096 16.0528 18.4319 16.2274C18.5531 16.4006 18.7684 16.5714 19.0625 16.5714H22.1875ZM22.1875 11.2143C22.4816 11.2143 22.6969 11.0434 22.8181 10.8703C22.9404 10.6957 23 10.4811 23 10.2679V9.375C23 9.16175 22.9404 8.94719 22.8181 8.77256C22.6969 8.59945 22.4816 8.42857 22.1875 8.42857H11.5625C11.2684 8.42857 11.0531 8.59945 10.9319 8.77256C10.8096 8.94719 10.75 9.16175 10.75 9.375V10.2679C10.75 10.4811 10.8096 10.6957 10.9319 10.8703C11.0531 11.0434 11.2684 11.2143 11.5625 11.2143H22.1875Z" stroke="black"/>
</svg>
