<svg width="25" height="25" viewBox="0 0 25 25" fill="none" xmlns="http://www.w3.org/2000/svg">
<path d="M21.375 10.1562V10.6562H21.875H24.375L24.3759 10.6564C24.3766 10.6566 24.3791 10.6573 24.3832 10.6595C24.3916 10.664 24.4075 10.675 24.426 10.6981C24.4641 10.7457 24.5 10.8292 24.5 10.9375V12.5C24.5 12.6083 24.4641 12.6918 24.426 12.7394C24.4075 12.7625 24.3916 12.7735 24.3832 12.778C24.3791 12.7802 24.3766 12.7809 24.3759 12.7811L24.375 12.7812H21.875H21.375V13.2812V16.4062C21.375 16.5145 21.3391 16.598 21.301 16.6457C21.2825 16.6688 21.2666 16.6798 21.2582 16.6843C21.2571 16.6848 21.2561 16.6853 21.2553 16.6857C21.2529 16.6868 21.2514 16.6872 21.2509 16.6874L21.25 16.6875H20L19.9991 16.6874C19.9988 16.6873 19.9983 16.6871 19.9975 16.6868C19.9962 16.6864 19.9943 16.6856 19.9918 16.6843C19.9834 16.6798 19.9675 16.6688 19.949 16.6457C19.9109 16.598 19.875 16.5145 19.875 16.4062V13.2812V12.7812H19.375H16.875L16.8741 12.7811C16.8738 12.781 16.8732 12.7808 16.8722 12.7805C16.8709 12.78 16.8691 12.7792 16.8668 12.778C16.8584 12.7735 16.8425 12.7625 16.824 12.7394C16.7859 12.6918 16.75 12.6083 16.75 12.5V10.9375C16.75 10.8292 16.7859 10.7457 16.824 10.6981C16.8425 10.675 16.8584 10.664 16.8668 10.6595C16.8709 10.6573 16.8734 10.6566 16.8741 10.6564L16.875 10.6562H19.375H19.875V10.1562V7.03125C19.875 6.92296 19.9109 6.83948 19.949 6.79184C19.9675 6.76873 19.9834 6.75773 19.9918 6.75324C19.9959 6.75106 19.9984 6.75035 19.9991 6.75015L20 6.75H21.25L21.2509 6.75015C21.2516 6.75035 21.2541 6.75106 21.2582 6.75324C21.2666 6.75773 21.2825 6.76873 21.301 6.79184C21.3391 6.83948 21.375 6.92296 21.375 7.03125V10.1562ZM13.25 6.25C13.25 9.53589 11.1372 12 8.75 12C6.36277 12 4.25 9.53589 4.25 6.25C4.25 2.96411 6.36277 0.5 8.75 0.5C11.1372 0.5 13.25 2.96411 13.25 6.25ZM8.75 15.3438C9.81425 15.3438 10.8226 15.059 11.7283 14.5625H12.25C14.7739 14.5625 17 17.1682 17 20.625V22.6562C17 23.7839 16.2857 24.5 15.625 24.5H1.875C1.21434 24.5 0.5 23.7839 0.5 22.6562V20.625C0.5 17.1682 2.72605 14.5625 5.25 14.5625H5.77213C6.68026 15.0587 7.685 15.3438 8.75 15.3438Z" stroke="black"/>
</svg>
