<svg width="25" height="25" viewBox="0 0 25 25" fill="none" xmlns="http://www.w3.org/2000/svg">
<path d="M20.75 21.875V22.375H21.25H24.375C24.375 22.375 24.3775 22.3746 24.3847 22.3784C24.393 22.3828 24.4085 22.3935 24.4266 22.4161C24.4638 22.4627 24.5 22.5459 24.5 22.6562V24.2187C24.5 24.3291 24.4638 24.4123 24.4266 24.4589C24.4085 24.4815 24.393 24.4922 24.3847 24.4966C24.3775 24.5004 24.375 24.5 24.375 24.5H19.25V6.24996V5.74996H18.75H15.5V3.62496H19.375C20.0225 3.62496 20.75 4.3595 20.75 5.53951V21.875ZM12.3509 0.524949L12.3511 0.52489C12.5347 0.465364 12.7322 0.511449 12.9138 0.695114C13.1009 0.884423 13.25 1.20998 13.25 1.62007V24.5H0.625C0.624961 24.5 0.622496 24.5004 0.615289 24.4966C0.607032 24.4922 0.591546 24.4815 0.573443 24.4589C0.536154 24.4123 0.5 24.3291 0.5 24.2187V22.6562C0.5 22.5459 0.536154 22.4627 0.573443 22.4161C0.591546 22.3935 0.607032 22.3828 0.615289 22.3784C0.622496 22.3746 0.624961 22.375 0.625 22.375H3.75H4.25V21.875V4.04879C4.25 3.44706 4.56417 3.04648 4.85085 2.95369L4.85091 2.95367L12.3509 0.524949ZM8.875 12.5C8.875 13.0065 8.99722 13.4892 9.22092 13.862C9.43861 14.2248 9.80901 14.5625 10.3125 14.5625C10.816 14.5625 11.1864 14.2248 11.4041 13.862C11.6278 13.4892 11.75 13.0065 11.75 12.5C11.75 11.9935 11.6278 11.5107 11.4041 11.1379C11.1864 10.7751 10.816 10.4375 10.3125 10.4375C9.80901 10.4375 9.43861 10.7751 9.22092 11.1379C8.99722 11.5107 8.875 11.9935 8.875 12.5Z" stroke="black"/>
</svg>
