<svg width="25" height="25" viewBox="0 0 25 25" fill="none" xmlns="http://www.w3.org/2000/svg">
<path d="M1.35922 0.872329C1.66252 0.6229 2.00523 0.5 2.34375 0.5C2.79527 0.5 3.25535 0.720025 3.61298 1.16018C3.9729 1.60317 4.1875 2.22245 4.1875 2.88462C4.1875 3.37672 4.06859 3.85171 3.85309 4.24866C3.63763 4.64553 3.34092 4.93731 3.01357 5.1042C2.68893 5.2697 2.34023 5.31012 2.0054 5.22815C1.66836 5.14563 1.34156 4.93771 1.07453 4.60905C0.806853 4.27961 0.616403 3.84882 0.538631 3.3676C0.460895 2.88661 0.501314 2.38881 0.652291 1.94021C0.803353 1.49135 1.05416 1.1232 1.35922 0.872329ZM1.35922 10.4877C1.66252 10.2383 2.00523 10.1154 2.34375 10.1154C2.79527 10.1154 3.25535 10.3354 3.61298 10.7756C3.9729 11.2186 4.1875 11.8378 4.1875 12.5C4.1875 12.9921 4.06859 13.4671 3.85309 13.864C3.63763 14.2609 3.34092 14.5527 3.01357 14.7196C2.68893 14.8851 2.34023 14.9255 2.0054 14.8435C1.66836 14.761 1.34156 14.5531 1.07453 14.2244C0.806853 13.895 0.616403 13.4642 0.538631 12.983C0.460895 12.502 0.501314 12.0042 0.652291 11.5556C0.803353 11.1067 1.05416 10.7386 1.35922 10.4877ZM1.35922 20.1031C1.66252 19.8537 2.00523 19.7308 2.34375 19.7308C2.79527 19.7308 3.25535 19.9508 3.61298 20.3909C3.9729 20.8339 4.1875 21.4532 4.1875 22.1154C4.1875 22.6075 4.06859 23.0825 3.85309 23.4794C3.63763 23.8763 3.34092 24.1681 3.01357 24.335C2.68893 24.5005 2.34023 24.5409 2.0054 24.4589C1.66836 24.3764 1.34156 24.1685 1.07453 23.8398C0.806853 23.5104 0.616403 23.0796 0.538631 22.5984C0.460895 22.1174 0.501314 21.6196 0.652291 21.171C0.803353 20.7221 1.05416 20.354 1.35922 20.1031ZM8.59375 20.6923H24.2188C24.2559 20.6923 24.3185 20.7097 24.3831 20.7892C24.45 20.8716 24.5 21.0017 24.5 21.1538V23.0769C24.5 23.2291 24.45 23.3592 24.3831 23.4415C24.3185 23.521 24.2559 23.5385 24.2188 23.5385H8.59375C8.55663 23.5385 8.49398 23.521 8.42938 23.4415C8.36248 23.3592 8.3125 23.2291 8.3125 23.0769V21.1538C8.3125 21.0017 8.36248 20.8716 8.42938 20.7892C8.49398 20.7097 8.55663 20.6923 8.59375 20.6923ZM8.59375 1.46154H24.2188C24.2559 1.46154 24.3185 1.47895 24.3831 1.55846C24.45 1.6408 24.5 1.77094 24.5 1.92308V3.84615C24.5 3.99829 24.45 4.12843 24.3831 4.21077C24.3185 4.29028 24.2559 4.30769 24.2188 4.30769H8.59375C8.55663 4.30769 8.49398 4.29028 8.42938 4.21077C8.36248 4.12843 8.3125 3.99829 8.3125 3.84615V1.92308C8.3125 1.77094 8.36248 1.6408 8.42938 1.55846C8.49398 1.47895 8.55663 1.46154 8.59375 1.46154ZM8.59375 11.0769H24.2188C24.2559 11.0769 24.3185 11.0943 24.3831 11.1738C24.45 11.2562 24.5 11.3863 24.5 11.5385V13.4615C24.5 13.6137 24.45 13.7438 24.3831 13.8262C24.3185 13.9057 24.2559 13.9231 24.2188 13.9231H8.59375C8.55663 13.9231 8.49398 13.9057 8.42938 13.8262C8.36248 13.7438 8.3125 13.6137 8.3125 13.4615V11.5385C8.3125 11.3863 8.36248 11.2562 8.42938 11.1738C8.49398 11.0943 8.55663 11.0769 8.59375 11.0769Z" stroke="black"/>
</svg>
