<svg width="25" height="25" viewBox="0 0 25 25" fill="none" xmlns="http://www.w3.org/2000/svg">
<path d="M7.3125 19.6429V20.1429H7.8125H24.2188C24.3117 20.1429 24.5 20.256 24.5 20.5357V22.3214C24.5 22.6012 24.3117 22.7143 24.2188 22.7143H7.8125H7.3125V23.2143V24.1071C7.3125 24.3869 7.12417 24.5 7.03125 24.5H5.46875C5.37583 24.5 5.1875 24.3869 5.1875 24.1071V23.2143V22.7143H4.6875H0.78125C0.688331 22.7143 0.5 22.6012 0.5 22.3214V20.5357C0.5 20.256 0.688331 20.1429 0.78125 20.1429H4.6875H5.1875V19.6429V18.75C5.1875 18.4703 5.37583 18.3571 5.46875 18.3571H7.03125C7.12417 18.3571 7.3125 18.4703 7.3125 18.75V19.6429ZM19.8125 10.7143V11.2143H20.3125H24.2188C24.3117 11.2143 24.5 11.3274 24.5 11.6071V13.3929C24.5 13.6726 24.3117 13.7857 24.2188 13.7857H20.3125H19.8125V14.2857V15.1786C19.8125 15.4583 19.6242 15.5714 19.5312 15.5714H17.9688C17.8758 15.5714 17.6875 15.4583 17.6875 15.1786V14.2857V13.7857H17.1875H0.78125C0.688331 13.7857 0.5 13.6726 0.5 13.3929V11.6071C0.5 11.3274 0.688331 11.2143 0.78125 11.2143H17.1875H17.6875V10.7143V9.82143C17.6875 9.5417 17.8758 9.42857 17.9688 9.42857H19.5312C19.6242 9.42857 19.8125 9.5417 19.8125 9.82143V10.7143ZM13.5625 1.78571V2.28571H14.0625H24.2188C24.3117 2.28571 24.5 2.39884 24.5 2.67857V4.46429C24.5 4.74402 24.3117 4.85714 24.2188 4.85714H14.0625H13.5625V5.35714V6.25C13.5625 6.52973 13.3742 6.64286 13.2812 6.64286H11.7188C11.6258 6.64286 11.4375 6.52973 11.4375 6.25V5.35714V4.85714H10.9375H0.78125C0.688331 4.85714 0.5 4.74402 0.5 4.46429V2.67857C0.5 2.39884 0.688331 2.28571 0.78125 2.28571H10.9375H11.4375V1.78571V0.892857C11.4375 0.613125 11.6258 0.5 11.7188 0.5H13.2812C13.3742 0.5 13.5625 0.613125 13.5625 0.892857V1.78571Z" stroke="black"/>
</svg>
