<svg width="25" height="25" viewBox="0 0 25 25" fill="none" xmlns="http://www.w3.org/2000/svg">
<path d="M11.7463 24.1877L11.7461 24.1876L0.812188 13.2538C0.812141 13.2538 0.812094 13.2537 0.812047 13.2537C0.395984 12.8371 0.395984 12.1625 0.812047 11.746C0.812094 11.7459 0.812141 11.7459 0.812188 11.7458L11.746 0.812186C11.746 0.812165 11.7461 0.812067 11.7461 0.812045C12.1628 0.395784 12.8379 0.396084 13.2539 0.812045L24.1878 11.7458C24.1879 11.7459 24.1879 11.7459 24.188 11.746C24.604 12.1625 24.604 12.8371 24.188 13.2537C24.1879 13.2537 24.1879 13.2538 24.1878 13.2538L13.2539 24.1876C12.8372 24.6042 12.1622 24.604 11.7463 24.1877ZM19.95 12.3731L19.9502 12.3729C20.3319 12.0202 20.3319 11.417 19.9502 11.0643L19.95 11.0641L15.8382 7.26871L15.838 7.26852C15.2672 6.74227 14.3433 7.14705 14.3433 7.92322V10.0467H9.37451C8.23558 10.0467 7.31201 10.9703 7.31201 12.1092V16.0154C7.31201 16.5074 7.71068 16.906 8.20264 16.906H9.76514C10.2571 16.906 10.6558 16.5074 10.6558 16.0154V13.3904H14.3433V15.5139C14.3433 16.2909 15.2681 16.6949 15.8382 16.1684C15.8382 16.1684 15.8383 16.1684 15.8383 16.1683L19.95 12.3731Z" stroke="black"/>
</svg>
