<svg width="25" height="25" viewBox="0 0 25 25" fill="none" xmlns="http://www.w3.org/2000/svg">
<path d="M16.2496 14.5625C15.1849 14.5625 14.4996 13.5291 14.4996 12.5C14.4996 11.4709 15.1849 10.4375 16.2496 10.4375C17.3143 10.4375 17.9995 11.4708 17.9996 12.4998L16.2496 14.5625ZM16.2496 14.5625C17.3146 14.5625 18 13.5293 17.9996 12.5L16.2496 14.5625ZM19.5 21.875V22.375H20H24.375C24.375 22.375 24.3775 22.3746 24.3847 22.3784C24.393 22.3828 24.4085 22.3935 24.4266 22.4161C24.4638 22.4627 24.5 22.5459 24.5 22.6562V24.2188C24.5 24.3291 24.4638 24.4123 24.4266 24.4589C24.4085 24.4815 24.393 24.4922 24.3847 24.4966C24.3775 24.5004 24.375 24.5 24.375 24.5H0.625C0.624961 24.5 0.622496 24.5004 0.615289 24.4966C0.607031 24.4922 0.591545 24.4815 0.573442 24.4589C0.536154 24.4123 0.5 24.3291 0.5 24.2188V22.6562C0.5 22.5459 0.536154 22.4627 0.573442 22.4161C0.591545 22.3935 0.607031 22.3828 0.615289 22.3784C0.622496 22.3746 0.624961 22.375 0.625 22.375H4.99961H5.49961V21.875V2.48047C5.49961 1.89535 5.68006 1.38341 5.94822 1.02869C6.2163 0.674075 6.54901 0.5 6.87461 0.5H18.125C18.4506 0.5 18.7833 0.674075 19.0514 1.02869C19.3195 1.38341 19.5 1.89535 19.5 2.48047V21.875Z" stroke="black"/>
</svg>
