<svg width="25" height="25" viewBox="0 0 25 25" fill="none" xmlns="http://www.w3.org/2000/svg">
<path d="M2.67857 0.5H22.3214C23.5387 0.5 24.5 1.43052 24.5 2.34375V22.6562C24.5 23.5695 23.5387 24.5 22.3214 24.5H2.67857C1.46134 24.5 0.5 23.5695 0.5 22.6562V2.34375C0.5 1.43052 1.46134 0.5 2.67857 0.5ZM6.42857 22.375C6.74762 22.375 7.03953 22.2392 7.24889 22.056C7.45362 21.8768 7.64286 21.5939 7.64286 21.25V19.375C7.64286 19.0311 7.45362 18.7482 7.24889 18.569C7.03953 18.3858 6.74762 18.25 6.42857 18.25H4.28571C3.96667 18.25 3.67475 18.3858 3.46539 18.569C3.26066 18.7482 3.07143 19.0311 3.07143 19.375V21.25C3.07143 21.5939 3.26066 21.8768 3.46539 22.056C3.67475 22.2392 3.96667 22.375 4.28571 22.375H6.42857ZM6.42857 16.125C6.74762 16.125 7.03953 15.9892 7.24889 15.806C7.45362 15.6268 7.64286 15.3439 7.64286 15V13.125C7.64286 12.7811 7.45362 12.4982 7.24889 12.319C7.03953 12.1358 6.74762 12 6.42857 12H4.28571C3.96667 12 3.67475 12.1358 3.46539 12.319C3.26066 12.4982 3.07143 12.7811 3.07143 13.125V15C3.07143 15.3439 3.26066 15.6268 3.46539 15.806C3.67475 15.9892 3.96667 16.125 4.28571 16.125H6.42857ZM13.5714 22.375C13.8905 22.375 14.1824 22.2392 14.3918 22.056C14.5965 21.8768 14.7857 21.5939 14.7857 21.25V19.375C14.7857 19.0311 14.5965 18.7482 14.3918 18.569C14.1824 18.3858 13.8905 18.25 13.5714 18.25H11.4286C11.1095 18.25 10.8176 18.3858 10.6082 18.569C10.4035 18.7482 10.2143 19.0311 10.2143 19.375V21.25C10.2143 21.5939 10.4035 21.8768 10.6082 22.056C10.8176 22.2392 11.1095 22.375 11.4286 22.375H13.5714ZM13.5714 16.125C13.8905 16.125 14.1824 15.9892 14.3918 15.806C14.5965 15.6268 14.7857 15.3439 14.7857 15V13.125C14.7857 12.7811 14.5965 12.4982 14.3918 12.319C14.1824 12.1358 13.8905 12 13.5714 12H11.4286C11.1095 12 10.8176 12.1358 10.6082 12.319C10.4035 12.4982 10.2143 12.7811 10.2143 13.125V15C10.2143 15.3439 10.4035 15.6268 10.6082 15.806C10.8176 15.9892 11.1095 16.125 11.4286 16.125H13.5714ZM20.7143 22.375C21.0333 22.375 21.3252 22.2392 21.5346 22.056C21.7393 21.8768 21.9286 21.5939 21.9286 21.25V13.125C21.9286 12.7811 21.7393 12.4982 21.5346 12.319C21.3252 12.1358 21.0333 12 20.7143 12H18.5714C18.2524 12 17.9605 12.1358 17.7511 12.319C17.5464 12.4982 17.3571 12.7811 17.3571 13.125V21.25C17.3571 21.5939 17.5464 21.8768 17.7511 22.056C17.9605 22.2392 18.2524 22.375 18.5714 22.375H20.7143ZM20.7143 9.875C21.0333 9.875 21.3252 9.73917 21.5346 9.55598C21.7393 9.37684 21.9286 9.09393 21.9286 8.75V3.75C21.9286 3.40607 21.7393 3.12316 21.5346 2.94402C21.3252 2.76083 21.0333 2.625 20.7143 2.625H4.28571C3.96667 2.625 3.67475 2.76083 3.46539 2.94402C3.26066 3.12316 3.07143 3.40607 3.07143 3.75V8.75C3.07143 9.09393 3.26066 9.37684 3.46539 9.55598C3.67475 9.73917 3.96667 9.875 4.28571 9.875H20.7143Z" stroke="black"/>
</svg>
