<svg width="26" height="26" viewBox="0 0 26 26" fill="none" xmlns="http://www.w3.org/2000/svg">
<path d="M4.17241 24.5306L4.17035 24.5293L1.43544 22.7642C0.966875 22.4618 0.811157 22.1221 0.811157 21.8576C0.811157 21.5937 0.966167 21.2565 1.43339 20.9581L1.43544 20.9568L13.1012 13.4279L13.7521 13.0078L13.1012 12.5877L1.43544 5.05881C0.966875 4.75641 0.811157 4.41668 0.811157 4.15218C0.811157 3.8883 0.966167 3.55105 1.43339 3.25272L1.43341 3.25275L1.43797 3.24976L4.15945 1.46994C4.63061 1.16629 5.27486 1 5.94285 1C6.61164 1 7.25224 1.16665 7.71632 1.46939L7.71632 1.46939L7.71837 1.47071L24.1763 12.0924L24.1783 12.0937C24.6532 12.397 24.8103 12.7372 24.8112 13.0016C24.812 13.266 24.657 13.6052 24.1884 13.9076L7.73047 24.5293C7.25921 24.8334 6.61443 25 5.94588 25C5.27709 25 4.63649 24.8333 4.17241 24.5306Z" stroke="black"/>
</svg>
