<svg width="25" height="25" viewBox="0 0 25 25" fill="none" xmlns="http://www.w3.org/2000/svg">
<path d="M11.7802 14.6129C10.5723 14.931 9.68145 16.0308 9.68145 17.3387C9.68145 18.8953 10.9434 20.1573 12.5 20.1573C14.0566 20.1573 15.3185 18.8953 15.3185 17.3387C15.3185 16.0308 14.4277 14.931 13.2198 14.6129H13.7234C14.3102 14.6129 14.7947 14.1542 14.8266 13.5683M11.7802 14.6129L14.8266 13.5683M11.7802 14.6129H11.2766C10.6898 14.6129 10.2053 14.1542 10.1734 13.5683M11.7802 14.6129L10.1734 13.5683M14.8266 13.5683L14.8266 13.5683L14.3535 13.5425L14.8266 13.5683ZM10.1734 13.5683L10.6465 13.5425L10.1734 13.5683L10.1734 13.5683ZM24.5 12.5C24.5 19.1289 19.127 24.5 12.5 24.5C5.87302 24.5 0.5 19.1289 0.5 12.5C0.5 5.87503 5.87312 0.5 12.5 0.5C19.1269 0.5 24.5 5.87503 24.5 12.5Z" stroke="black"/>
</svg>
