<svg width="25" height="25" viewBox="0 0 25 25" fill="none" xmlns="http://www.w3.org/2000/svg">
<path d="M21.6084 6.37971L21.9134 6.07467L21.6564 5.72823C20.9829 4.82057 20.1794 4.01708 19.2718 3.34362L18.9253 3.08657L18.6203 3.39161L15.4248 6.58712L14.9692 7.0427L15.5236 7.37093C16.388 7.88266 17.1181 8.61325 17.6291 9.47639L17.9573 10.0308L18.4129 9.57523L21.6084 6.37971ZM6.37971 3.39161L6.07468 3.08657L5.72823 3.34362C4.82056 4.01706 4.01706 4.82056 3.34362 5.72823L3.08657 6.07468L3.39161 6.37971L6.58712 9.57523L7.0427 10.0308L7.37093 9.4764C7.88266 8.61203 8.61325 7.88191 9.47639 7.37093L10.0308 7.04271L9.57523 6.58712L6.37971 3.39161ZM3.39161 18.6203L3.08657 18.9253L3.34362 19.2718C4.01708 20.1794 4.82057 20.9829 5.72823 21.6564L6.07467 21.9134L6.37971 21.6084L9.57523 18.4129L10.0308 17.9573L9.4764 17.6291C8.61203 17.1173 7.88191 16.3867 7.37093 15.5236L7.04271 14.9692L6.58712 15.4248L3.39161 18.6203ZM18.6203 21.6084L18.9253 21.9134L19.2718 21.6564C20.1794 20.9829 20.9829 20.1794 21.6564 19.2718L21.9134 18.9253L21.6084 18.6203L18.4129 15.4248L17.9573 14.9692L17.6291 15.5236C17.1173 16.388 16.3867 17.1181 15.5236 17.6291L14.9692 17.9573L15.4248 18.4129L18.6203 21.6084ZM0.5 12.5C0.5 5.87256 5.87256 0.5 12.5 0.5C19.1274 0.5 24.5 5.87256 24.5 12.5C24.5 19.1274 19.1274 24.5 12.5 24.5C5.87256 24.5 0.5 19.1274 0.5 12.5ZM7.16129 12.5C7.16129 15.4485 9.55153 17.8387 12.5 17.8387C15.4485 17.8387 17.8387 15.4485 17.8387 12.5C17.8387 9.55153 15.4485 7.16129 12.5 7.16129C9.55153 7.16129 7.16129 9.55153 7.16129 12.5Z" stroke="black"/>
</svg>
