<svg width="25" height="25" viewBox="0 0 25 25" fill="none" xmlns="http://www.w3.org/2000/svg">
<path d="M23.4769 12.443L23.476 12.4427L21.656 11.8666L21.4604 11.8047L21.3647 11.6233L20.607 10.188L20.6069 10.1878C19.5801 8.24078 16.6022 6.75384 13.0655 6.74908H13.0653C10.6553 6.7449 9.2134 7.11513 6.89573 7.71023C6.58165 7.79087 6.25149 7.87564 5.90066 7.96418L5.90038 7.96424C4.28581 8.3707 3.01342 9.13027 2.28843 10.0449C2.2883 10.0451 2.28818 10.0453 2.28805 10.0454L1.7655 10.7084L1.76518 10.7088C1.57873 10.9448 1.5768 11.1596 1.68117 11.3572C1.80128 11.5846 2.10069 11.8492 2.63201 12.0163L2.63288 12.0166C3.15401 12.1815 3.74187 12.1988 4.26449 12.0888C4.79433 11.9774 5.19759 11.7491 5.41031 11.4841C5.41064 11.4836 5.41098 11.4832 5.41132 11.4828L5.93242 10.8217L5.93466 10.8188L5.93467 10.8188C6.29335 10.3705 6.85355 10.0552 7.49183 9.89448C7.49185 9.89448 7.49187 9.89447 7.49189 9.89447L9.58522 9.36722L10.5362 9.12769L10.1715 10.038L8.98428 13.0012L23.4769 12.443ZM23.4769 12.443C24.0064 12.6095 24.3069 12.8759 24.4287 13.1064C24.5354 13.3085 24.532 13.5242 24.352 13.7547C24.1392 14.0196 23.7361 14.2476 23.2066 14.359C22.684 14.4689 22.0961 14.4517 21.575 14.2868L19.7551 13.7107C19.755 13.7107 19.755 13.7107 19.755 13.7107C18.6597 13.3638 17.9026 12.7788 17.5704 12.148L17.5691 12.1457L17.1395 11.3402L16.6338 10.3919L16.2342 11.3895L14.8907 14.7435L14.7414 15.1161L15.0729 15.3424L18.627 17.7688L18.6286 17.7699C19.1261 18.1067 19.4501 18.5021 19.6088 18.8945C19.6089 18.8948 19.609 18.8951 19.6092 18.8954L21.3425 23.2386L21.343 23.2399C21.4218 23.4357 21.3886 23.654 21.1634 23.888C20.9274 24.1333 20.4988 24.3609 19.9092 24.4536C19.3242 24.5455 18.738 24.4775 18.2725 24.3025C17.7948 24.1229 17.5161 23.8614 17.4203 23.6241C17.4202 23.6238 17.4201 23.6236 17.42 23.6234L15.991 20.0459L15.9903 20.0442C15.7421 19.4296 15.2687 18.894 14.6456 18.4667L14.6446 18.4661M23.4769 12.443L14.6446 18.4661M14.6446 18.4661L9.96658 15.2737C9.96638 15.2736 9.96618 15.2735 9.96598 15.2733M14.6446 18.4661L9.96598 15.2733M9.96598 15.2733C8.95979 14.5835 8.69217 13.7319 8.98418 13.0015L9.96598 15.2733ZM7.46698 17.0851C7.49401 17.1052 7.52453 17.1274 7.55961 17.1525C7.77624 17.3072 8.22141 17.6102 9.22306 18.292C9.54776 18.5131 9.93093 18.7739 10.3838 19.0824L9.59311 20.3197C9.59272 20.3203 9.59232 20.3209 9.59193 20.3215C9.38012 20.6457 9.06235 20.953 8.63779 21.2183L3.99795 24.1183C3.6063 24.3631 3.0649 24.5 2.49762 24.5C1.93035 24.5 1.38895 24.3631 0.997302 24.1183C0.6079 23.8749 0.5 23.6151 0.5 23.4365C0.5 23.2579 0.6079 22.9981 0.997302 22.7547L0.997683 22.7545L4.8998 20.3107C4.90044 20.3103 4.90109 20.3099 4.90174 20.3095C5.43679 19.9801 5.87102 19.5742 6.16863 19.104C6.169 19.1034 6.16936 19.1029 6.16972 19.1023L7.46698 17.0851ZM19.4947 2.34341C19.4947 2.75557 19.2257 3.20471 18.6312 3.57627C18.0439 3.94338 17.2015 4.18681 16.2453 4.18681C15.2891 4.18681 14.4467 3.94338 13.8594 3.57627C13.2649 3.20471 12.9959 2.75557 12.9959 2.34341C12.9959 1.93124 13.2649 1.48211 13.8594 1.11054C14.4467 0.743432 15.2891 0.5 16.2453 0.5C17.2015 0.5 18.0439 0.743432 18.6312 1.11054C19.2257 1.48211 19.4947 1.93124 19.4947 2.34341Z" stroke="black"/>
</svg>
