<svg width="25" height="25" viewBox="0 0 25 25" fill="none" xmlns="http://www.w3.org/2000/svg">
<path d="M24.026 22.2826L24.0761 22.4432L24.2131 22.5409C24.4027 22.6761 24.5 22.8652 24.5 23.0469V23.8281C24.5 24.1408 24.1916 24.5 23.6607 24.5H5.35714C2.61089 24.5 0.5 22.5636 0.5 20.3125V4.6875C0.5 2.43638 2.61089 0.5 5.35714 0.5H23.6607C24.1916 0.5 24.5 0.85923 24.5 1.17188V17.5781C24.5 17.7605 24.4023 17.9474 24.2175 18.0761L24.077 18.174L24.026 18.3375C23.8842 18.7924 23.8276 19.5835 23.8276 20.3101C23.8276 21.0366 23.8842 21.8277 24.026 22.2826ZM21.2835 22.375H21.851L21.7795 21.812C21.6788 21.0189 21.6788 19.6061 21.7795 18.813L21.851 18.25H21.2835H5.35714C4.16366 18.25 3.07143 19.1164 3.07143 20.3125C3.07143 21.5135 4.15808 22.375 5.35714 22.375H21.2835ZM7.47768 5.75C7.08219 5.75 6.64286 6.04507 6.64286 6.54297V7.51953C6.64286 8.01743 7.08219 8.3125 7.47768 8.3125H19.308C19.7035 8.3125 20.1429 8.01743 20.1429 7.51953V6.54297C20.1429 6.04507 19.7035 5.75 19.308 5.75H7.47768ZM7.47768 8.875C7.08219 8.875 6.64286 9.17007 6.64286 9.66797V10.6445C6.64286 11.1424 7.08219 11.4375 7.47768 11.4375H19.308C19.7035 11.4375 20.1429 11.1424 20.1429 10.6445V9.66797C20.1429 9.17007 19.7035 8.875 19.308 8.875H7.47768Z" stroke="black"/>
</svg>
