<svg width="25" height="25" viewBox="0 0 25 25" fill="none" xmlns="http://www.w3.org/2000/svg">
<path d="M12.4999 24.4651C14.3866 24.4651 15.9169 23.1261 15.9169 21.4738H9.08294C9.08294 23.1261 10.6133 24.4651 12.4999 24.4651ZM24.0051 17.4678C22.9732 16.4976 21.0422 15.0379 21.0422 10.2565C21.0422 6.62492 18.1321 3.71777 14.2082 3.00453V2.03049C14.2082 1.20462 13.4433 0.534851 12.4999 0.534851C11.5566 0.534851 10.7917 1.20462 10.7917 2.03049V3.00453C6.86779 3.71777 3.9577 6.62492 3.9577 10.2565C3.9577 15.0379 2.02673 16.4976 0.994736 17.4678C0.674241 17.7693 0.532156 18.1296 0.534827 18.4826C0.540703 19.2491 1.22816 19.9782 2.24947 19.9782H22.7504C23.7717 19.9782 24.4597 19.2491 24.4651 18.4826C24.4677 18.1296 24.3256 17.7689 24.0051 17.4678Z" stroke="black"/>
</svg>
