<svg width="25" height="25" viewBox="0 0 25 25" fill="none" xmlns="http://www.w3.org/2000/svg">
<path d="M23.0807 12.5L23.0806 12.4947L23.0805 12.4805L23.069 11.396L22.2518 12.109L21.2781 12.9586L18.6514 10.507L19.3413 6.96987L20.6213 7.0845L21.7179 7.1827L21.0702 6.29237C19.7549 4.48411 17.8978 3.11492 15.7425 2.42383L14.6996 2.08944L15.1301 3.09646L15.6407 4.29119L12.5 6.03122L9.35931 4.29123L9.86995 3.09651L10.3004 2.0895L9.25752 2.42388C7.10614 3.1137 5.24726 4.48123 3.92978 6.29242L3.2827 7.18199L4.3784 7.08458L5.67046 6.96971L6.34933 10.5064L3.72198 12.9586L2.74828 12.109L1.93113 11.3961L1.91958 12.4805L1.91943 12.4947L1.91941 12.4947V12.5C1.91941 14.7742 2.63344 16.9412 3.95539 18.7429L4.60334 19.626L4.84608 18.5579L5.13428 17.2899L8.70208 17.7277L10.2234 20.9893L9.10498 21.6546L8.15812 22.2178L9.20544 22.5596C11.3325 23.2539 13.6633 23.2553 15.7946 22.5596L16.8419 22.2178L15.895 21.6546L14.7766 20.9893L16.2979 17.7277L19.8657 17.2899L20.1539 18.5579L20.3967 19.626L21.0446 18.7429C22.3666 16.9412 23.0806 14.7742 23.0807 12.5ZM24.5 12.5C24.5 19.1274 19.1274 24.5 12.5 24.5C5.87256 24.5 0.5 19.1274 0.5 12.5C0.5 5.87256 5.87256 0.5 12.5 0.5C19.1274 0.5 24.5 5.87256 24.5 12.5ZM10.4379 15.5066L9.15736 11.5951L12.5 9.17255L15.8435 11.5957L14.5748 15.5066H10.4379Z" stroke="black"/>
</svg>
