<svg width="25" height="25" viewBox="0 0 25 25" fill="none" xmlns="http://www.w3.org/2000/svg">
<path d="M5.75 7.14286C5.75 8.0375 5.4946 8.8275 5.10747 9.38054C4.71909 9.93538 4.23111 10.2143 3.75 10.2143C3.26889 10.2143 2.78091 9.93538 2.39253 9.38054C2.0054 8.8275 1.75 8.0375 1.75 7.14286C1.75 6.24821 2.0054 5.45821 2.39253 4.90517C2.78091 4.35034 3.26889 4.07143 3.75 4.07143C4.23111 4.07143 4.71909 4.35034 5.10747 4.90517C5.4946 5.45821 5.75 6.24821 5.75 7.14286ZM23.25 7.14286C23.25 8.0375 22.9946 8.8275 22.6075 9.38054C22.2191 9.93538 21.7311 10.2143 21.25 10.2143C20.7689 10.2143 20.2809 9.93538 19.8925 9.38054C19.5054 8.8275 19.25 8.0375 19.25 7.14286C19.25 6.24821 19.5054 5.45821 19.8925 4.90517C20.2809 4.35034 20.7689 4.07143 21.25 4.07143C21.7311 4.07143 22.2191 4.35034 22.6075 4.90517C22.9946 5.45821 23.25 6.24821 23.25 7.14286ZM21.6195 19.1429C21.3149 16.8031 20.342 14.7744 18.9398 13.4793C19.2663 13.1599 19.6344 13 20 13H22.5C22.9811 13 23.4691 13.2789 23.8575 13.8337C24.2446 14.3868 24.5 15.1768 24.5 16.0714V17.8571C24.5 18.2613 24.3849 18.6047 24.2247 18.8337C24.0635 19.0639 23.8882 19.1429 23.75 19.1429H21.6195ZM16.375 6.25C16.375 7.88727 15.9104 9.34679 15.1846 10.3836C14.4578 11.4219 13.5013 12 12.5 12C11.4987 12 10.5422 11.4219 9.81538 10.3836C9.08961 9.34679 8.625 7.88727 8.625 6.25C8.625 4.61273 9.08961 3.15321 9.81538 2.11639C10.5422 1.07811 11.4987 0.5 12.5 0.5C13.5013 0.5 14.4578 1.07811 15.1846 2.11639C15.9104 3.15321 16.375 4.61273 16.375 6.25ZM12.5 15.6786C13.5282 15.6786 14.4818 15.3373 15.3276 14.7857H15.5C16.5341 14.7857 17.522 15.3844 18.272 16.4558C19.0209 17.5256 19.5 19.0298 19.5 20.7143V22.3214C19.5 22.9707 19.3148 23.5375 19.0411 23.9285C18.7662 24.3212 18.4345 24.5 18.125 24.5H6.875C6.56547 24.5 6.23382 24.3212 5.95893 23.9285C5.68519 23.5375 5.5 22.9707 5.5 22.3214V20.7143C5.5 19.0298 5.97914 17.5256 6.72798 16.4558C7.47796 15.3844 8.46586 14.7857 9.5 14.7857H9.6729C10.5209 15.3368 11.471 15.6786 12.5 15.6786ZM5 13C5.36563 13 5.73372 13.1599 6.06016 13.4793C4.65794 14.7745 3.68478 16.8032 3.37725 19.1429H1.25C1.11176 19.1429 0.936518 19.0639 0.775339 18.8337C0.615085 18.6047 0.5 18.2613 0.5 17.8571V16.0714C0.5 15.1768 0.755398 14.3868 1.14253 13.8337C1.53091 13.2789 2.01889 13 2.5 13H5Z" stroke="black"/>
</svg>
