<svg width="25" height="25" viewBox="0 0 25 25" fill="none" xmlns="http://www.w3.org/2000/svg">
<path d="M19.4961 4.30369V15.1572L14.6091 8.54741L15.4377 7.28328L15.4387 7.28174C15.6278 6.99096 15.7128 6.63315 15.722 6.29973C15.7312 5.96586 15.6659 5.60354 15.4968 5.29759C15.3301 4.99243 15.0454 4.73176 14.6614 4.70445C14.2689 4.67654 13.9524 4.90451 13.7587 5.19749L13.7575 5.19927L10.6687 9.91388C10.6525 9.9319 10.6369 9.95181 10.6224 9.9737C10.3832 10.3278 10.1328 10.393 9.94863 10.3693C9.73786 10.3422 9.47599 10.1804 9.28606 9.83405L9.28579 9.83355C9.05819 9.41965 8.92957 8.85142 8.93746 8.26133C8.94534 7.67104 9.08902 7.10939 9.35107 6.6991L9.35124 6.6992L9.35839 6.68728C9.36794 6.67137 9.37504 6.65762 9.37971 6.64814C9.38025 6.64705 9.38077 6.64598 9.38128 6.64493L13.1994 0.820872C13.1994 0.82085 13.1994 0.820828 13.1994 0.820807C13.3731 0.555997 13.5371 0.5 13.625 0.5H16.9805C17.0741 0.5 17.2557 0.566107 17.4327 0.865907L17.4346 0.869074L19.4961 4.30369ZM17.7857 21.842C17.7029 21.8562 17.5439 21.8373 17.3552 21.5829C17.3551 21.5828 17.355 21.5826 17.3549 21.5825L17.1448 21.2972L16.6551 20.6325L16.2929 21.3744L15.0663 23.8865L15.0661 23.8869C14.8562 24.3179 14.6101 24.4669 14.4525 24.4942C14.3192 24.5174 14.109 24.4766 13.8795 24.1665L13.1844 23.1637L12.7432 22.5273L12.3447 23.1912L12.3369 23.2042L12.3258 23.2227L12.3164 23.2421C11.9228 24.0478 11.4207 24.4113 10.9975 24.4844C10.5993 24.5531 10.1136 24.3902 9.65954 23.7797L6.13153 18.4603L5.9832 18.2367H5.71484H5.5V4.30391L7.56522 0.86942L7.56542 0.869074C7.7486 0.563892 7.92777 0.5 8.01953 0.5H10.3674L7.67949 4.60042L7.67919 4.60087C7.04568 5.5696 6.72363 6.84279 6.69012 8.10718C6.65657 9.37295 6.91064 10.6835 7.48752 11.7339L7.48774 11.7343C8.05513 12.7652 8.88355 13.4269 9.82574 13.5015C10.7806 13.5772 11.6699 13.0368 12.3162 12.0544L12.3167 12.0535L13.0952 10.8646L18.4993 18.1735C18.4994 18.1737 18.4995 18.1738 18.4996 18.174C18.6952 18.4405 18.8293 18.849 18.8579 19.3125C18.8863 19.7733 18.8069 20.2359 18.6325 20.5938L18.2615 21.3552L18.2607 21.3568C18.0858 21.719 17.8899 21.8242 17.7857 21.842ZM21.75 18.7497V4.67817H24.5V20.3323H22.5C22.3984 20.3323 22.222 20.2616 22.0444 19.9657C21.8725 19.6793 21.75 19.2509 21.75 18.7497ZM22 17.7084C22 18.0706 22.0879 18.4229 22.2549 18.7011C22.4153 18.9684 22.7073 19.2497 23.125 19.2497C23.5427 19.2497 23.8347 18.9684 23.9951 18.7011C24.1621 18.4229 24.25 18.0706 24.25 17.7084C24.25 17.3462 24.1621 16.9939 23.9951 16.7157C23.8347 16.4484 23.5427 16.1671 23.125 16.1671C22.7073 16.1671 22.4153 16.4484 22.2549 16.7157C22.0879 16.9939 22 17.3462 22 17.7084ZM2.5 20.3258H0.5V4.67817H3.25V18.7432C3.25 19.2444 3.12745 19.6728 2.95557 19.9591C2.77796 20.2551 2.60165 20.3258 2.5 20.3258ZM3 17.7084C3 17.3462 2.91211 16.9939 2.74511 16.7157C2.58468 16.4484 2.29272 16.1671 1.875 16.1671C1.45993 16.1671 1.16746 16.4436 1.00538 16.7124C0.837534 16.9909 0.75 17.3438 0.75 17.7084C0.75 18.0706 0.83789 18.4229 1.00489 18.7011C1.16532 18.9684 1.45728 19.2497 1.875 19.2497C2.29272 19.2497 2.58468 18.9684 2.74511 18.7011C2.91211 18.4229 3 18.0706 3 17.7084Z" stroke="black"/>
</svg>
