<svg width="21" height="25" viewBox="0 0 21 25" fill="none" xmlns="http://www.w3.org/2000/svg">
<path d="M17.1951 20.8125H17.6951V20.3125V14.8438V14.6271L17.537 14.479L15.479 12.5495L15.479 12.5495C15.0426 12.1405 14.3476 12.1404 13.9112 12.5495L8.86172 17.2834L7.14562 15.6745C6.73542 15.29 6.06462 15.2182 5.60308 15.6509L3.54501 17.5803L3.38928 17.7263L3.38701 17.9397L3.36175 20.3072L3.35636 20.8125H3.86172H17.1951ZM19.9643 5.75H14.3333V0.520703C14.4703 0.551978 14.5941 0.617386 14.6908 0.707981C14.6908 0.707984 14.6908 0.707987 14.6908 0.70799L19.7919 5.49026C19.8728 5.56607 19.9305 5.6553 19.9643 5.75ZM11.6667 6.64062C11.6667 7.59121 12.4839 8.3125 13.4167 8.3125H20V23.8281C20 24.1693 19.6951 24.5 19.25 24.5H1.75C1.30489 24.5 1 24.1693 1 23.8281V1.17188C1 0.830708 1.30489 0.5 1.75 0.5H11.6667V6.64062ZM9.36172 10.9375C9.36172 9.33702 7.9877 8.09375 6.36172 8.09375C4.73579 8.09375 3.36172 9.33701 3.36172 10.9375C3.36172 12.538 4.73573 13.7812 6.36172 13.7812C7.9877 13.7812 9.36172 12.538 9.36172 10.9375Z" stroke="black"/>
</svg>
