<svg width="25" height="25" viewBox="0 0 25 25" fill="none" xmlns="http://www.w3.org/2000/svg">
<mask id="path-1-inside-1_610_4944" fill="white">
<path d="M11.7634 0.00501967C10.3139 0.0890655 9.17464 0.315794 7.96472 0.757523C6.85103 1.16602 5.67056 1.84035 4.72187 2.60849C2.23326 4.62754 0.553896 7.66296 0.108029 10.9486C0.0235701 11.574 0 11.9493 0 12.6881C0 13.3722 0.00982086 13.5774 0.0785669 14.154C0.214095 15.2994 0.4989 16.2943 1.02137 17.4416C2.52592 20.7487 5.53111 23.4264 8.90555 24.4702C10.1469 24.8533 11.1585 24.996 12.6669 24.9999C13.4998 25.0018 13.7571 24.9842 14.474 24.8826C15.9609 24.6715 17.4674 24.1555 18.8089 23.3971C20.0915 22.672 21.1757 21.767 22.146 20.6138C22.2678 20.4692 22.4151 20.2933 22.474 20.2249C22.6489 20.0216 22.9494 19.6092 23.1497 19.3043C24.0022 18.0026 24.6052 16.4135 24.8527 14.8186C24.9685 14.0778 25 13.6302 25 12.8152C25.0019 11.7108 24.8998 10.8235 24.6562 9.80516C23.9 6.65246 21.8494 3.70108 19.188 1.93416C18.3493 1.37516 17.3358 0.884569 16.4087 0.583568C15.9864 0.444794 15.0907 0.243475 14.5329 0.161384C14.142 0.102747 13.9535 0.0812473 13.5017 0.0402016C13.1992 0.0128379 12.0247 -0.0106168 11.7634 0.00501967ZM13.5803 0.46434C14.2344 0.513204 15.0947 0.671523 15.7487 0.865024C16.0217 0.94516 16.5148 1.13475 16.8506 1.28721C17.6383 1.6488 18.147 2.07294 18.4161 2.5948C18.5241 2.80394 18.5221 2.84694 18.4023 3.15967C18.1038 3.94345 17.6206 4.70768 16.9508 5.45627C16.8035 5.62241 16.7878 5.63414 16.6719 5.66541C16.503 5.71036 16.2476 5.73773 15.8116 5.75923C15.6053 5.77095 15.352 5.78855 15.2498 5.79832C14.7765 5.84718 13.6058 5.91364 12.991 5.92732L12.4312 5.93905L12.117 5.61068C11.1349 4.58063 10.2569 3.60531 10.0801 3.34535C9.91907 3.1069 9.868 2.80981 9.93478 2.50685C10.0585 1.95957 10.6419 1.28525 11.459 0.745796C11.8813 0.468249 11.8872 0.466294 12.4803 0.444794C12.8771 0.429158 13.2051 0.436976 13.5803 0.46434ZM19.5199 3.22808C19.6908 3.27303 19.8833 3.35903 20.2094 3.53885C20.3724 3.62876 20.5492 3.72454 20.6042 3.7519C20.8615 3.8809 21.6118 4.6295 22.0773 5.22173C23.0456 6.45309 23.7586 8.0226 24.0552 9.58038C24.124 9.93416 24.1338 10.0768 24.1082 10.3055C24.0375 10.9564 23.7567 11.4978 22.9533 12.5415C22.7235 12.8386 22.7196 12.8445 22.6115 12.8777L22.5015 12.9109L22.258 12.8015C21.0009 12.2405 19.8597 11.5936 18.9798 10.9466L18.7323 10.7648L18.6321 10.5518C18.3571 9.96738 18.1431 9.36733 17.7522 8.07537C17.595 7.55937 17.4359 7.04532 17.4006 6.93196C17.3044 6.63682 17.2906 6.56255 17.2906 6.31823C17.2906 6.03091 17.3495 5.80223 17.5047 5.48168C17.6442 5.19241 17.7895 4.97154 18.2314 4.38322C18.4161 4.13695 18.6203 3.84181 18.6891 3.72845C18.9228 3.33363 18.9837 3.26326 19.131 3.21831C19.2214 3.1929 19.3962 3.19681 19.5199 3.22808ZM9.26696 3.3649C9.53998 3.41376 9.78747 3.57208 9.95835 3.81054C10.0389 3.92195 10.198 4.10567 10.5162 4.44968C11.1918 5.18459 11.457 5.5325 11.6554 5.94491C11.8145 6.27718 11.8675 6.47459 11.8852 6.7971C11.897 7.01796 11.895 7.02969 11.8322 7.20755C11.7988 7.30919 11.6888 7.61996 11.5925 7.89946C11.2351 8.92561 10.8678 10.0456 10.7696 10.3974L10.7224 10.5694L9.92692 11.015C9.04305 11.5134 8.47344 11.8242 7.97257 12.0822C7.7899 12.178 7.59545 12.2894 7.54045 12.3324C7.31065 12.5142 7.00424 12.6158 6.76461 12.5904C6.61926 12.5748 6.40713 12.5044 6.26178 12.4223C5.97894 12.262 5.53111 11.8555 4.9831 11.2593C4.28582 10.499 4.06191 10.1707 3.94995 9.73675L3.9087 9.57256L3.95191 9.43965C3.97548 9.36733 4.10708 8.9647 4.24261 8.54642C4.37814 8.12815 4.53724 7.65905 4.5942 7.50074C5.12256 6.05241 5.65485 5.19045 6.40713 4.56499C6.68015 4.34022 6.87656 4.21708 7.401 3.9454C8.22006 3.52126 8.54611 3.39617 8.95466 3.34926C9.06858 3.33558 9.11376 3.33753 9.26696 3.3649ZM4.54902 4.14086C4.85543 4.29331 5.07149 4.608 5.13434 4.99891L5.15791 5.14745L5.02631 5.38395C4.33296 6.64269 3.69853 8.35488 3.34695 9.9322C3.26445 10.2977 3.10928 10.542 2.6202 11.0756C2.47878 11.232 2.31969 11.4118 2.27058 11.4763C2.21951 11.5408 2.04077 11.7558 1.87186 11.9552C1.67937 12.1838 1.53795 12.3695 1.49081 12.4575C1.45152 12.5357 1.38278 12.6393 1.34153 12.6862C1.25903 12.778 1.09208 12.8738 1.01351 12.8738C0.917268 12.8738 0.807274 12.8249 0.726743 12.7468C0.54604 12.5728 0.475329 12.2933 0.514613 11.9239C0.526398 11.8066 0.542111 11.6131 0.548004 11.4958C0.563717 11.2027 0.591216 10.9447 0.648177 10.5889C0.956551 8.67542 1.82472 6.78732 3.29784 4.82104C3.37445 4.7194 3.46676 4.58454 3.50408 4.52199C3.62586 4.32068 3.81442 4.15845 4.01084 4.08417C4.05601 4.06854 4.1444 4.06072 4.24261 4.06267C4.3801 4.06854 4.41939 4.07831 4.54902 4.14086ZM11.1958 11.4255C11.9186 11.7363 12.6277 12.2073 13.3839 12.8738C13.6353 13.0947 14.2088 13.6224 14.2913 13.7084L14.364 13.7827L14.2756 14.4668C14.0831 15.9913 13.9181 17.0077 13.7158 17.9166C13.6078 18.3954 13.5351 18.5322 13.2287 18.8352C12.8967 19.1616 12.5118 19.3805 11.8125 19.6405C10.7578 20.0314 10.4926 20.1057 10.1744 20.1057C9.868 20.1057 9.3907 19.9767 9.03322 19.7968C8.68164 19.6229 8.36344 19.4118 7.65634 18.8841C7.39511 18.6906 7.1103 18.4795 7.01995 18.415C6.71157 18.1921 6.42677 17.8501 6.23821 17.4768C6.05554 17.1132 5.97894 16.8122 5.96519 16.392C5.9534 16.0773 5.97501 15.8604 6.04572 15.5515C6.07322 15.4382 6.10464 15.2408 6.11643 15.1118C6.22642 13.9527 6.70765 13.1259 7.50117 12.7311C7.57777 12.694 7.71723 12.6353 7.81347 12.6021C8.03543 12.5239 8.23184 12.4321 8.59129 12.2386C9.57534 11.7089 9.83657 11.5858 10.2412 11.4685C10.4671 11.402 10.7401 11.3532 10.911 11.3512C10.9974 11.3493 11.0563 11.3649 11.1958 11.4255ZM19.1428 11.6678C20.5531 12.3519 21.3859 12.8562 22.1598 13.4914L22.366 13.6595L22.3523 13.7807C22.3464 13.8452 22.3189 14.1677 22.2914 14.4961C22.1892 15.749 22.1362 16.1809 22.0144 16.7438C21.93 17.1347 21.7139 17.4807 21.2995 17.899C20.9282 18.2723 20.6867 18.4501 19.5474 19.1968C19.3176 19.3473 19.023 19.5506 18.8934 19.6463C18.363 20.0431 17.98 20.2483 17.6795 20.2992C17.5538 20.3207 17.5322 20.3187 17.324 20.264C16.4323 20.0275 15.4973 19.5545 14.4249 18.8C14.1951 18.6378 14.1106 18.5674 14.1106 18.5381C14.1106 18.4716 14.2069 17.7602 14.2795 17.2813C14.364 16.7301 14.6783 14.846 14.69 14.8284C14.694 14.8205 14.7215 14.6446 14.749 14.4355C14.8413 13.7397 14.8786 13.6654 15.3382 13.3234C15.458 13.2334 15.735 13.0145 15.9569 12.8367C16.4853 12.4106 16.7269 12.2249 16.9783 12.0568C17.5617 11.6678 18.0606 11.4685 18.583 11.4098C18.5948 11.4098 18.8482 11.5252 19.1428 11.6678ZM0.938874 13.4836C0.944766 13.509 0.970301 13.6732 0.999763 13.8511C1.16279 14.8714 1.49277 15.9933 1.93471 17.0272C2.08595 17.3849 2.47878 18.1804 2.56521 18.3016C2.71645 18.5225 2.7577 18.8411 2.67913 19.1948C2.65752 19.2906 2.63788 19.3727 2.63395 19.3766C2.62413 19.3864 2.15666 18.6065 1.95239 18.241C1.72061 17.8266 1.38867 17.1386 1.23939 16.7634C1.04494 16.2767 0.742457 15.2447 0.632463 14.6915C0.597108 14.5117 0.587287 14.4003 0.587287 14.1345C0.587287 13.8159 0.589251 13.7983 0.638356 13.6947C0.699245 13.5696 0.756206 13.5051 0.840665 13.468C0.923161 13.4328 0.929053 13.4348 0.938874 13.4836ZM22.9258 17.7543C23.1144 17.8423 23.1497 18.1198 23.0181 18.4736C22.9317 18.7062 22.8413 18.8567 22.4014 19.5095C21.6825 20.5767 20.6631 21.5598 19.4237 22.3866C18.6086 22.928 17.5106 23.5007 17.0176 23.6395C16.8546 23.6844 16.7937 23.6903 16.5462 23.6923C16.2908 23.6923 16.2516 23.6884 16.1651 23.6473C16.0257 23.5848 15.9451 23.5183 15.8862 23.4186L15.8351 23.3326L16.0473 23.0238C16.6581 22.1325 17.0058 21.6869 17.4576 21.2256C17.7875 20.8855 17.9781 20.7292 18.2648 20.5532C18.7991 20.2307 19.2862 19.8965 20.4352 19.0697C21.3329 18.4228 21.543 18.2762 21.9889 17.9811C22.2973 17.7778 22.3248 17.7621 22.4603 17.7406C22.5408 17.7289 22.6194 17.7152 22.6351 17.7113C22.6901 17.6996 22.861 17.725 22.9258 17.7543ZM5.51736 17.8872C5.72949 17.9146 5.82377 17.9556 6.0575 18.1276C6.35606 18.3485 6.65461 18.5811 7.10834 18.9525C8.15524 19.8086 8.5795 20.1174 9.14518 20.436C9.36321 20.5591 9.3966 20.5865 9.48891 20.7057C9.81693 21.1416 10.0899 21.724 10.2058 22.2478C10.2392 22.3964 10.249 22.5078 10.249 22.7345C10.251 23.0785 10.2157 23.2271 10.0841 23.4245C10.0075 23.5379 9.9996 23.5437 9.8621 23.5848C9.51052 23.6923 9.13143 23.7411 8.65021 23.7411H8.33987L8.06882 23.6512C6.82157 23.2408 5.5645 22.4785 4.38796 21.4172C3.95781 21.0282 3.618 20.6979 3.54533 20.5943C3.37248 20.348 3.25463 20.0412 3.19767 19.6854C3.17999 19.5642 3.16232 19.2945 3.15642 18.9798L3.14464 18.4697L3.24088 18.4462C3.29195 18.4326 3.48248 18.37 3.66122 18.3036C4.62562 17.9556 4.79454 17.9048 5.09506 17.8775C5.26005 17.8638 5.32683 17.8638 5.51736 17.8872ZM13.3348 23.7607C13.6353 23.7861 13.9633 23.8271 14.3365 23.8858C14.4995 23.9131 14.7018 23.9444 14.7882 23.9561C15.1104 24.005 15.3088 24.0969 15.2813 24.1848C15.2577 24.2571 15.0554 24.3255 14.7588 24.3646C14.6783 24.3744 14.4917 24.4018 14.3463 24.4233C14.201 24.4467 13.8553 24.4858 13.5803 24.5132C12.0011 24.6695 10.854 24.5699 10.0153 24.2004C9.87585 24.1379 9.87389 24.1399 10.1921 24.046C10.7794 23.874 11.3058 23.788 12.1072 23.7333C12.28 23.7216 13.0775 23.7392 13.3348 23.7607Z"/>
</mask>
<path d="M11.7634 0.00501967C10.3139 0.0890655 9.17464 0.315794 7.96472 0.757523C6.85103 1.16602 5.67056 1.84035 4.72187 2.60849C2.23326 4.62754 0.553896 7.66296 0.108029 10.9486C0.0235701 11.574 0 11.9493 0 12.6881C0 13.3722 0.00982086 13.5774 0.0785669 14.154C0.214095 15.2994 0.4989 16.2943 1.02137 17.4416C2.52592 20.7487 5.53111 23.4264 8.90555 24.4702C10.1469 24.8533 11.1585 24.996 12.6669 24.9999C13.4998 25.0018 13.7571 24.9842 14.474 24.8826C15.9609 24.6715 17.4674 24.1555 18.8089 23.3971C20.0915 22.672 21.1757 21.767 22.146 20.6138C22.2678 20.4692 22.4151 20.2933 22.474 20.2249C22.6489 20.0216 22.9494 19.6092 23.1497 19.3043C24.0022 18.0026 24.6052 16.4135 24.8527 14.8186C24.9685 14.0778 25 13.6302 25 12.8152C25.0019 11.7108 24.8998 10.8235 24.6562 9.80516C23.9 6.65246 21.8494 3.70108 19.188 1.93416C18.3493 1.37516 17.3358 0.884569 16.4087 0.583568C15.9864 0.444794 15.0907 0.243475 14.5329 0.161384C14.142 0.102747 13.9535 0.0812473 13.5017 0.0402016C13.1992 0.0128379 12.0247 -0.0106168 11.7634 0.00501967ZM13.5803 0.46434C14.2344 0.513204 15.0947 0.671523 15.7487 0.865024C16.0217 0.94516 16.5148 1.13475 16.8506 1.28721C17.6383 1.6488 18.147 2.07294 18.4161 2.5948C18.5241 2.80394 18.5221 2.84694 18.4023 3.15967C18.1038 3.94345 17.6206 4.70768 16.9508 5.45627C16.8035 5.62241 16.7878 5.63414 16.6719 5.66541C16.503 5.71036 16.2476 5.73773 15.8116 5.75923C15.6053 5.77095 15.352 5.78855 15.2498 5.79832C14.7765 5.84718 13.6058 5.91364 12.991 5.92732L12.4312 5.93905L12.117 5.61068C11.1349 4.58063 10.2569 3.60531 10.0801 3.34535C9.91907 3.1069 9.868 2.80981 9.93478 2.50685C10.0585 1.95957 10.6419 1.28525 11.459 0.745796C11.8813 0.468249 11.8872 0.466294 12.4803 0.444794C12.8771 0.429158 13.2051 0.436976 13.5803 0.46434ZM19.5199 3.22808C19.6908 3.27303 19.8833 3.35903 20.2094 3.53885C20.3724 3.62876 20.5492 3.72454 20.6042 3.7519C20.8615 3.8809 21.6118 4.6295 22.0773 5.22173C23.0456 6.45309 23.7586 8.0226 24.0552 9.58038C24.124 9.93416 24.1338 10.0768 24.1082 10.3055C24.0375 10.9564 23.7567 11.4978 22.9533 12.5415C22.7235 12.8386 22.7196 12.8445 22.6115 12.8777L22.5015 12.9109L22.258 12.8015C21.0009 12.2405 19.8597 11.5936 18.9798 10.9466L18.7323 10.7648L18.6321 10.5518C18.3571 9.96738 18.1431 9.36733 17.7522 8.07537C17.595 7.55937 17.4359 7.04532 17.4006 6.93196C17.3044 6.63682 17.2906 6.56255 17.2906 6.31823C17.2906 6.03091 17.3495 5.80223 17.5047 5.48168C17.6442 5.19241 17.7895 4.97154 18.2314 4.38322C18.4161 4.13695 18.6203 3.84181 18.6891 3.72845C18.9228 3.33363 18.9837 3.26326 19.131 3.21831C19.2214 3.1929 19.3962 3.19681 19.5199 3.22808ZM9.26696 3.3649C9.53998 3.41376 9.78747 3.57208 9.95835 3.81054C10.0389 3.92195 10.198 4.10567 10.5162 4.44968C11.1918 5.18459 11.457 5.5325 11.6554 5.94491C11.8145 6.27718 11.8675 6.47459 11.8852 6.7971C11.897 7.01796 11.895 7.02969 11.8322 7.20755C11.7988 7.30919 11.6888 7.61996 11.5925 7.89946C11.2351 8.92561 10.8678 10.0456 10.7696 10.3974L10.7224 10.5694L9.92692 11.015C9.04305 11.5134 8.47344 11.8242 7.97257 12.0822C7.7899 12.178 7.59545 12.2894 7.54045 12.3324C7.31065 12.5142 7.00424 12.6158 6.76461 12.5904C6.61926 12.5748 6.40713 12.5044 6.26178 12.4223C5.97894 12.262 5.53111 11.8555 4.9831 11.2593C4.28582 10.499 4.06191 10.1707 3.94995 9.73675L3.9087 9.57256L3.95191 9.43965C3.97548 9.36733 4.10708 8.9647 4.24261 8.54642C4.37814 8.12815 4.53724 7.65905 4.5942 7.50074C5.12256 6.05241 5.65485 5.19045 6.40713 4.56499C6.68015 4.34022 6.87656 4.21708 7.401 3.9454C8.22006 3.52126 8.54611 3.39617 8.95466 3.34926C9.06858 3.33558 9.11376 3.33753 9.26696 3.3649ZM4.54902 4.14086C4.85543 4.29331 5.07149 4.608 5.13434 4.99891L5.15791 5.14745L5.02631 5.38395C4.33296 6.64269 3.69853 8.35488 3.34695 9.9322C3.26445 10.2977 3.10928 10.542 2.6202 11.0756C2.47878 11.232 2.31969 11.4118 2.27058 11.4763C2.21951 11.5408 2.04077 11.7558 1.87186 11.9552C1.67937 12.1838 1.53795 12.3695 1.49081 12.4575C1.45152 12.5357 1.38278 12.6393 1.34153 12.6862C1.25903 12.778 1.09208 12.8738 1.01351 12.8738C0.917268 12.8738 0.807274 12.8249 0.726743 12.7468C0.54604 12.5728 0.475329 12.2933 0.514613 11.9239C0.526398 11.8066 0.542111 11.6131 0.548004 11.4958C0.563717 11.2027 0.591216 10.9447 0.648177 10.5889C0.956551 8.67542 1.82472 6.78732 3.29784 4.82104C3.37445 4.7194 3.46676 4.58454 3.50408 4.52199C3.62586 4.32068 3.81442 4.15845 4.01084 4.08417C4.05601 4.06854 4.1444 4.06072 4.24261 4.06267C4.3801 4.06854 4.41939 4.07831 4.54902 4.14086ZM11.1958 11.4255C11.9186 11.7363 12.6277 12.2073 13.3839 12.8738C13.6353 13.0947 14.2088 13.6224 14.2913 13.7084L14.364 13.7827L14.2756 14.4668C14.0831 15.9913 13.9181 17.0077 13.7158 17.9166C13.6078 18.3954 13.5351 18.5322 13.2287 18.8352C12.8967 19.1616 12.5118 19.3805 11.8125 19.6405C10.7578 20.0314 10.4926 20.1057 10.1744 20.1057C9.868 20.1057 9.3907 19.9767 9.03322 19.7968C8.68164 19.6229 8.36344 19.4118 7.65634 18.8841C7.39511 18.6906 7.1103 18.4795 7.01995 18.415C6.71157 18.1921 6.42677 17.8501 6.23821 17.4768C6.05554 17.1132 5.97894 16.8122 5.96519 16.392C5.9534 16.0773 5.97501 15.8604 6.04572 15.5515C6.07322 15.4382 6.10464 15.2408 6.11643 15.1118C6.22642 13.9527 6.70765 13.1259 7.50117 12.7311C7.57777 12.694 7.71723 12.6353 7.81347 12.6021C8.03543 12.5239 8.23184 12.4321 8.59129 12.2386C9.57534 11.7089 9.83657 11.5858 10.2412 11.4685C10.4671 11.402 10.7401 11.3532 10.911 11.3512C10.9974 11.3493 11.0563 11.3649 11.1958 11.4255ZM19.1428 11.6678C20.5531 12.3519 21.3859 12.8562 22.1598 13.4914L22.366 13.6595L22.3523 13.7807C22.3464 13.8452 22.3189 14.1677 22.2914 14.4961C22.1892 15.749 22.1362 16.1809 22.0144 16.7438C21.93 17.1347 21.7139 17.4807 21.2995 17.899C20.9282 18.2723 20.6867 18.4501 19.5474 19.1968C19.3176 19.3473 19.023 19.5506 18.8934 19.6463C18.363 20.0431 17.98 20.2483 17.6795 20.2992C17.5538 20.3207 17.5322 20.3187 17.324 20.264C16.4323 20.0275 15.4973 19.5545 14.4249 18.8C14.1951 18.6378 14.1106 18.5674 14.1106 18.5381C14.1106 18.4716 14.2069 17.7602 14.2795 17.2813C14.364 16.7301 14.6783 14.846 14.69 14.8284C14.694 14.8205 14.7215 14.6446 14.749 14.4355C14.8413 13.7397 14.8786 13.6654 15.3382 13.3234C15.458 13.2334 15.735 13.0145 15.9569 12.8367C16.4853 12.4106 16.7269 12.2249 16.9783 12.0568C17.5617 11.6678 18.0606 11.4685 18.583 11.4098C18.5948 11.4098 18.8482 11.5252 19.1428 11.6678ZM0.938874 13.4836C0.944766 13.509 0.970301 13.6732 0.999763 13.8511C1.16279 14.8714 1.49277 15.9933 1.93471 17.0272C2.08595 17.3849 2.47878 18.1804 2.56521 18.3016C2.71645 18.5225 2.7577 18.8411 2.67913 19.1948C2.65752 19.2906 2.63788 19.3727 2.63395 19.3766C2.62413 19.3864 2.15666 18.6065 1.95239 18.241C1.72061 17.8266 1.38867 17.1386 1.23939 16.7634C1.04494 16.2767 0.742457 15.2447 0.632463 14.6915C0.597108 14.5117 0.587287 14.4003 0.587287 14.1345C0.587287 13.8159 0.589251 13.7983 0.638356 13.6947C0.699245 13.5696 0.756206 13.5051 0.840665 13.468C0.923161 13.4328 0.929053 13.4348 0.938874 13.4836ZM22.9258 17.7543C23.1144 17.8423 23.1497 18.1198 23.0181 18.4736C22.9317 18.7062 22.8413 18.8567 22.4014 19.5095C21.6825 20.5767 20.6631 21.5598 19.4237 22.3866C18.6086 22.928 17.5106 23.5007 17.0176 23.6395C16.8546 23.6844 16.7937 23.6903 16.5462 23.6923C16.2908 23.6923 16.2516 23.6884 16.1651 23.6473C16.0257 23.5848 15.9451 23.5183 15.8862 23.4186L15.8351 23.3326L16.0473 23.0238C16.6581 22.1325 17.0058 21.6869 17.4576 21.2256C17.7875 20.8855 17.9781 20.7292 18.2648 20.5532C18.7991 20.2307 19.2862 19.8965 20.4352 19.0697C21.3329 18.4228 21.543 18.2762 21.9889 17.9811C22.2973 17.7778 22.3248 17.7621 22.4603 17.7406C22.5408 17.7289 22.6194 17.7152 22.6351 17.7113C22.6901 17.6996 22.861 17.725 22.9258 17.7543ZM5.51736 17.8872C5.72949 17.9146 5.82377 17.9556 6.0575 18.1276C6.35606 18.3485 6.65461 18.5811 7.10834 18.9525C8.15524 19.8086 8.5795 20.1174 9.14518 20.436C9.36321 20.5591 9.3966 20.5865 9.48891 20.7057C9.81693 21.1416 10.0899 21.724 10.2058 22.2478C10.2392 22.3964 10.249 22.5078 10.249 22.7345C10.251 23.0785 10.2157 23.2271 10.0841 23.4245C10.0075 23.5379 9.9996 23.5437 9.8621 23.5848C9.51052 23.6923 9.13143 23.7411 8.65021 23.7411H8.33987L8.06882 23.6512C6.82157 23.2408 5.5645 22.4785 4.38796 21.4172C3.95781 21.0282 3.618 20.6979 3.54533 20.5943C3.37248 20.348 3.25463 20.0412 3.19767 19.6854C3.17999 19.5642 3.16232 19.2945 3.15642 18.9798L3.14464 18.4697L3.24088 18.4462C3.29195 18.4326 3.48248 18.37 3.66122 18.3036C4.62562 17.9556 4.79454 17.9048 5.09506 17.8775C5.26005 17.8638 5.32683 17.8638 5.51736 17.8872ZM13.3348 23.7607C13.6353 23.7861 13.9633 23.8271 14.3365 23.8858C14.4995 23.9131 14.7018 23.9444 14.7882 23.9561C15.1104 24.005 15.3088 24.0969 15.2813 24.1848C15.2577 24.2571 15.0554 24.3255 14.7588 24.3646C14.6783 24.3744 14.4917 24.4018 14.3463 24.4233C14.201 24.4467 13.8553 24.4858 13.5803 24.5132C12.0011 24.6695 10.854 24.5699 10.0153 24.2004C9.87585 24.1379 9.87389 24.1399 10.1921 24.046C10.7794 23.874 11.3058 23.788 12.1072 23.7333C12.28 23.7216 13.0775 23.7392 13.3348 23.7607Z" stroke="black" stroke-width="2" mask="url(#path-1-inside-1_610_4944)"/>
</svg>
