<svg width="25" height="25" viewBox="0 0 25 25" fill="none" xmlns="http://www.w3.org/2000/svg">
<path d="M8.38311 5.9623L5.29304 2.87223C6.76577 1.76789 8.43518 1.0516 10.1677 0.713193C10.0128 2.68556 9.39911 4.47848 8.38311 5.9623ZM13.6066 0.535242C15.7709 0.733451 17.8878 1.50662 19.7071 2.87208L12.5 10.0792L10.8343 8.41352C12.5089 6.2147 13.4563 3.49092 13.6066 0.535242ZM5.96274 8.38356C4.48216 9.39908 2.68635 10.0128 0.713191 10.1677C1.0516 8.43518 1.76789 6.76577 2.87223 5.29304L5.96274 8.38356ZM16.5866 14.1658L14.9208 12.5L22.1279 5.2929C23.4935 7.11238 24.2667 9.22957 24.4648 11.3941C21.5055 11.5483 18.7816 12.4953 16.5866 14.1658ZM11.3941 24.4648C9.23036 24.2662 7.11323 23.4899 5.29342 22.1274L12.5 14.9208L14.1658 16.5866C12.4953 18.7816 11.5483 21.5055 11.3941 24.4648ZM19.0379 16.6171C20.518 15.6052 22.3107 14.9916 24.2866 14.8334C23.9481 16.5655 23.2319 18.2345 22.1278 19.707L19.0379 16.6171ZM8.41354 10.8344L10.0792 12.5L2.87208 19.7071C1.50677 17.888 0.733624 15.7714 0.53531 13.6073C3.49163 13.4606 6.21521 12.509 8.41354 10.8344ZM16.6172 19.038L19.707 22.1278C18.2346 23.2319 16.5656 23.9481 14.8335 24.2866C14.9919 22.3138 15.6054 20.5184 16.6172 19.038Z" stroke="black"/>
</svg>
