<svg width="25" height="25" viewBox="0 0 25 25" fill="none" xmlns="http://www.w3.org/2000/svg">
<path d="M17.7715 16.0966L17.1397 16.9046H18.1654H18.9613C19.1431 16.9046 19.3133 16.9753 19.438 17.1L24.3046 21.9658C24.3049 21.9661 24.3051 21.9663 24.3054 21.9666C24.5656 22.2305 24.5654 22.6568 24.3016 22.9205L22.9197 24.3022L22.9178 24.3041C22.6604 24.5642 22.2361 24.567 21.9713 24.3022L17.1028 19.4345C16.9781 19.3099 16.9074 19.1398 16.9074 18.9581V18.1623V17.1368L16.0995 17.7684C14.4608 19.0494 12.4003 19.8105 10.157 19.8105C4.82229 19.8105 0.5 15.4888 0.5 10.1553C0.5 4.82168 4.82229 0.5 10.157 0.5C15.4917 0.5 19.814 4.82168 19.814 10.1553C19.814 12.3981 19.0528 14.4582 17.7715 16.0966ZM3.40654 10.1553C3.40654 13.8884 6.42878 16.9046 10.157 16.9046C13.8906 16.9046 16.9074 13.883 16.9074 10.1553C16.9074 6.42209 13.8852 3.40587 10.157 3.40587C6.42339 3.40587 3.40654 6.42748 3.40654 10.1553Z" stroke="black"/>
</svg>
