<svg width="25" height="25" viewBox="0 0 25 25" fill="none" xmlns="http://www.w3.org/2000/svg">
<path d="M6.5454 7.06867L6.5454 7.06867C7.26361 5.99504 8.09805 5.1294 9.13542 4.53487C10.1755 3.93882 11.3885 3.63306 12.8354 3.63306C14.3791 3.63306 15.9586 4.23248 17.1561 5.22187C18.3556 6.21303 19.209 7.62977 19.209 9.27419C19.209 10.3426 18.9181 11.1732 18.4664 11.8328C18.0202 12.4842 17.4346 12.9431 16.8845 13.2997C16.6179 13.4726 16.3525 13.6258 16.1143 13.7632L16.0927 13.7757C15.8434 13.9195 15.6311 14.0428 15.4529 14.1643C15.0677 14.427 15.0161 14.5681 15.0161 14.6506V14.7177C15.0161 15.3279 14.5215 15.8226 13.9113 15.8226H11.0887C10.4785 15.8226 9.98387 15.3279 9.98387 14.7177V14.5161C9.98387 12.1982 11.7261 11.2261 12.8748 10.5852C12.9153 10.5626 12.9551 10.5404 12.994 10.5186C13.5138 10.2271 13.8683 10.0159 14.0995 9.80126C14.3056 9.61 14.3783 9.44956 14.3783 9.24219C14.3783 8.97617 14.2092 8.69602 13.8404 8.45644C13.4755 8.21937 12.9945 8.081 12.575 8.081C11.9833 8.081 11.5889 8.21998 11.2423 8.4638C10.872 8.72438 10.5336 9.11878 10.0794 9.69482L6.5454 7.06867ZM6.5454 7.06867C6.22057 7.55426 6.32863 8.21034 6.79572 8.56454L6.79574 8.56455M6.5454 7.06867L6.79574 8.56455M6.79574 8.56455L8.54466 9.89064M6.79574 8.56455L8.54466 9.89064M8.54466 9.89064C9.02354 10.2538 9.70641 10.168 10.0794 9.69485L8.54466 9.89064ZM24.5 12.5C24.5 19.1289 19.127 24.5 12.5 24.5C5.87302 24.5 0.5 19.1289 0.5 12.5C0.5 5.87503 5.87312 0.5 12.5 0.5C19.1269 0.5 24.5 5.87503 24.5 12.5ZM12.5 16.1331C10.9454 16.1331 9.68145 17.397 9.68145 18.9516C9.68145 20.5062 10.9454 21.7702 12.5 21.7702C14.0546 21.7702 15.3185 20.5062 15.3185 18.9516C15.3185 17.397 14.0546 16.1331 12.5 16.1331Z" stroke="black"/>
</svg>
