<svg width="25" height="25" viewBox="0 0 25 25" fill="none" xmlns="http://www.w3.org/2000/svg">
<path d="M22.6435 11.4064L22.3936 11.7188L22.6435 12.0311L24.425 14.2577C24.525 14.3827 24.525 14.6212 24.425 14.7462L23.5343 15.8595C23.5141 15.8847 23.4978 15.8951 23.4901 15.899C23.486 15.901 23.4833 15.9019 23.4819 15.9022C23.481 15.9024 23.4803 15.9025 23.4799 15.9026C23.4796 15.9026 23.4795 15.9026 23.4793 15.9026C23.4789 15.9026 23.4781 15.9026 23.4767 15.9022C23.4753 15.9019 23.4726 15.901 23.4685 15.899C23.4608 15.8951 23.4445 15.8847 23.4244 15.8595L21.6429 13.6329L21.2525 13.145L20.8621 13.6329L19.0806 15.8595C19.0604 15.8847 19.0442 15.8951 19.0365 15.899C19.0324 15.901 19.0297 15.9019 19.0282 15.9022C19.0268 15.9026 19.0261 15.9026 19.0257 15.9026C19.0253 15.9026 19.0245 15.9026 19.0231 15.9022C19.0217 15.9019 19.0189 15.901 19.0149 15.899C19.0072 15.8951 18.9909 15.8847 18.9707 15.8595L18.08 14.7462C17.98 14.6212 17.98 14.3827 18.08 14.2577L19.8614 12.0311L20.1114 11.7188L19.8614 11.4064L18.08 9.17982C17.98 9.05482 17.98 8.81628 18.08 8.69128L18.9707 7.578C18.9909 7.55278 19.0072 7.54242 19.0149 7.53851C19.0189 7.53645 19.0217 7.53562 19.0231 7.53528C19.0239 7.53509 19.0245 7.535 19.0249 7.53495C19.0253 7.53492 19.0255 7.53491 19.0257 7.53491C19.0261 7.53491 19.0268 7.53494 19.0282 7.53528C19.0288 7.53541 19.0295 7.5356 19.0303 7.53589C19.0318 7.5364 19.0339 7.53721 19.0365 7.53851C19.0442 7.54242 19.0604 7.55278 19.0806 7.57799L20.8621 9.80456L21.2525 10.2925L21.6429 9.80456L23.4244 7.57799C23.4445 7.55278 23.4608 7.54242 23.4685 7.53852C23.4726 7.53645 23.4753 7.53562 23.4767 7.53528C23.4781 7.53494 23.4789 7.53491 23.4793 7.53491C23.4795 7.53491 23.4798 7.53492 23.4802 7.53496C23.4806 7.53501 23.4812 7.53511 23.4819 7.53528C23.4833 7.53562 23.486 7.53645 23.4901 7.53852C23.4978 7.54242 23.5141 7.55278 23.5343 7.57799L24.425 8.69128C24.525 8.81628 24.525 9.05482 24.425 9.17982L22.6435 11.4064ZM13.2516 6.25C13.2516 9.53583 11.1386 12 8.75103 12C6.36343 12 4.25044 9.53583 4.25044 6.25C4.25044 2.96417 6.36343 0.5 8.75103 0.5C11.1386 0.5 13.2516 2.96417 13.2516 6.25ZM8.75103 15.3438C9.81539 15.3438 10.8239 15.059 11.7297 14.5625H12.2514C14.7758 14.5625 17.0021 17.1683 17.0021 20.625V22.6562C17.0021 23.7839 16.2877 24.5 15.6268 24.5H1.87522C1.21439 24.5 0.5 23.7839 0.5 22.6562V20.625C0.5 17.1683 2.72628 14.5625 5.25062 14.5625H5.77283C6.68107 15.0587 7.68592 15.3438 8.75103 15.3438Z" stroke="black"/>
</svg>
