<svg width="25" height="26" viewBox="0 0 25 26" fill="none" xmlns="http://www.w3.org/2000/svg">
<path d="M19.1429 3.93896V4.43896H19.6429H22.3214C23.5889 4.43896 24.5 5.32554 24.5 6.28271V8.12646H0.5V6.28271C0.5 5.32554 1.41112 4.43896 2.67857 4.43896H5.35714H5.85714V3.93896V1.59521C5.85714 1.5023 5.97027 1.31396 6.25 1.31396H8.03571C8.31545 1.31396 8.42857 1.5023 8.42857 1.59521V3.93896V4.43896H8.92857H16.0714H16.5714V3.93896V1.59521C16.5714 1.5023 16.6846 1.31396 16.9643 1.31396H18.75C19.0297 1.31396 19.1429 1.5023 19.1429 1.59521V3.93896ZM2.67857 25.314C1.41112 25.314 0.5 24.4274 0.5 23.4702V10.689H24.5V23.4702C24.5 24.4274 23.5889 25.314 22.3214 25.314H2.67857ZM18.5268 12.814C17.9471 12.814 17.3571 13.2409 17.3571 13.8999V15.853C17.3571 16.5121 17.9471 16.939 18.5268 16.939H20.7589C21.3386 16.939 21.9286 16.5121 21.9286 15.853V13.8999C21.9286 13.2409 21.3386 12.814 20.7589 12.814H18.5268ZM18.5268 19.064C17.9471 19.064 17.3571 19.4909 17.3571 20.1499V22.103C17.3571 22.7621 17.9471 23.189 18.5268 23.189H20.7589C21.3386 23.189 21.9286 22.7621 21.9286 22.103V20.1499C21.9286 19.4909 21.3386 19.064 20.7589 19.064H18.5268ZM11.3839 12.814C10.8043 12.814 10.2143 13.2409 10.2143 13.8999V15.853C10.2143 16.5121 10.8043 16.939 11.3839 16.939H13.6161C14.1957 16.939 14.7857 16.5121 14.7857 15.853V13.8999C14.7857 13.2409 14.1957 12.814 13.6161 12.814H11.3839ZM11.3839 19.064C10.8043 19.064 10.2143 19.4909 10.2143 20.1499V22.103C10.2143 22.7621 10.8043 23.189 11.3839 23.189H13.6161C14.1957 23.189 14.7857 22.7621 14.7857 22.103V20.1499C14.7857 19.4909 14.1957 19.064 13.6161 19.064H11.3839ZM4.24107 12.814C3.66143 12.814 3.07143 13.2409 3.07143 13.8999V15.853C3.07143 16.5121 3.66143 16.939 4.24107 16.939H6.47321C7.05286 16.939 7.64286 16.5121 7.64286 15.853V13.8999C7.64286 13.2409 7.05286 12.814 6.47321 12.814H4.24107ZM4.24107 19.064C3.66143 19.064 3.07143 19.4909 3.07143 20.1499V22.103C3.07143 22.7621 3.66143 23.189 4.24107 23.189H6.47321C7.05286 23.189 7.64286 22.7621 7.64286 22.103V20.1499C7.64286 19.4909 7.05286 19.064 6.47321 19.064H4.24107Z" stroke="black"/>
</svg>
