<svg width="25" height="25" viewBox="0 0 25 25" fill="none" xmlns="http://www.w3.org/2000/svg">
<path d="M15.5766 0.509913C15.6726 0.531537 15.7969 0.596476 15.9231 0.760797C15.9232 0.760989 15.9234 0.761182 15.9235 0.761374L24.2548 11.6937C24.255 11.6941 24.2552 11.6944 24.2555 11.6947C24.5815 12.1282 24.5815 12.8704 24.2555 13.3039C24.2552 13.3042 24.255 13.3046 24.2548 13.3049L15.9226 24.2385C15.7974 24.4028 15.6735 24.468 15.5775 24.4899C15.4804 24.512 15.3725 24.4989 15.2614 24.439C15.0366 24.3179 14.7864 23.9859 14.7864 23.435V17.186V16.686H14.2864H7.54006C7.39838 16.686 7.23703 16.6128 7.09507 16.4265C6.95246 16.2394 6.84952 15.9578 6.84952 15.6238V9.37483C6.84952 9.04078 6.95246 8.75924 7.09507 8.57212C7.23703 8.38583 7.39838 8.31259 7.54006 8.31259H14.2864H14.7864V7.81259V1.56362C14.7864 1.01595 15.0355 0.683332 15.2605 0.561509C15.3715 0.501395 15.4794 0.488018 15.5766 0.509913ZM9.02428 21.6124V24.2161C9.02428 24.3304 8.98803 24.4171 8.95174 24.4647C8.93661 24.4846 8.9255 24.4935 8.91961 24.4972H4.76214C3.63694 24.4972 2.58238 23.8995 1.79284 22.8634C1.00302 21.827 0.5 20.3736 0.5 18.7483V6.25035C0.5 4.62506 1.00302 3.17161 1.79284 2.1352C2.58238 1.09915 3.63694 0.501384 4.76214 0.501384H8.9196C8.92549 0.505082 8.93661 0.514046 8.95174 0.533901C8.98803 0.581529 9.02428 0.668249 9.02428 0.782505V3.38624C9.02428 3.50049 8.98803 3.58721 8.95174 3.63484C8.93661 3.6547 8.92549 3.66366 8.9196 3.66736H4.76214C4.13435 3.66736 3.60138 4.0015 3.24151 4.47373C2.8821 4.94536 2.67476 5.57501 2.67476 6.25035V18.7483C2.67476 19.4236 2.8821 20.0533 3.24151 20.5249C3.60138 20.9971 4.13435 21.3313 4.76214 21.3313H8.91961C8.9255 21.335 8.93661 21.3439 8.95174 21.3638C8.98803 21.4114 9.02428 21.4981 9.02428 21.6124ZM8.91482 24.4995C8.91478 24.4994 8.91565 24.4989 8.91751 24.4985C8.91578 24.4994 8.91486 24.4996 8.91482 24.4995ZM8.91482 0.499103C8.91484 0.49899 8.91576 0.499231 8.91751 0.500161C8.91567 0.49968 8.9148 0.499215 8.91482 0.499103ZM8.91482 3.66964C8.91481 3.66952 8.91568 3.66906 8.91751 3.66858C8.91575 3.66952 8.91483 3.66976 8.91482 3.66964ZM8.91482 21.329C8.91487 21.3289 8.91579 21.3291 8.91751 21.33C8.91564 21.3295 8.91477 21.3291 8.91482 21.329Z" stroke="black"/>
</svg>
