<svg width="21" height="30" viewBox="0 0 21 30" fill="none" xmlns="http://www.w3.org/2000/svg">
<path d="M13.6169 16.875V29.5H7.31111V16.875V16.375H6.81111H1.375V11.9457H6.81111H7.31111V11.4457V7.30781C7.31111 5.08963 8.127 3.41234 9.53728 2.27827C10.962 1.13263 13.0461 0.5 15.642 0.5C16.8995 0.5 18.1909 0.590302 19.1715 0.681261C19.6609 0.726661 20.071 0.772046 20.3583 0.806025C20.3639 0.806688 20.3695 0.807347 20.375 0.808002V4.48926H17.927C16.397 4.48926 15.3048 4.8709 14.5926 5.53253C13.8763 6.19791 13.6169 7.0789 13.6169 7.92246V11.4457V11.9457H14.1169H19.9969L19.1508 16.375H14.1169H13.6169V16.875Z" stroke="black"/>
</svg>
