<svg width="25" height="25" viewBox="0 0 25 25" fill="none" xmlns="http://www.w3.org/2000/svg">
<path d="M16.9772 1.81158L17.1213 2.06251H17.4107H24.1071C24.2313 2.06251 24.3391 2.10626 24.4092 2.16762C24.4772 2.22711 24.5 2.29235 24.5 2.34376V3.90626C24.5 3.95767 24.4772 4.02291 24.4092 4.0824C24.3391 4.14375 24.2313 4.18751 24.1071 4.18751H0.892857C0.768704 4.18751 0.660887 4.14375 0.590764 4.0824C0.522773 4.02291 0.5 3.95767 0.5 3.90626V2.34376C0.5 2.29235 0.522774 2.22711 0.590764 2.16762C0.660887 2.10626 0.768703 2.06251 0.892857 2.06251H7.58929H7.87868L8.02284 1.81158L8.54739 0.89849L8.54742 0.898507L8.55031 0.893341C8.61004 0.786454 8.70853 0.686942 8.84311 0.613754C8.97792 0.540444 9.13869 0.499442 9.30635 0.500009H9.30804L15.6864 0.500009L15.6867 0.500008C15.8557 0.499902 16.0177 0.541265 16.1539 0.614999C16.2899 0.688617 16.3901 0.788757 16.4516 0.896772L16.4526 0.89849L16.9772 1.81158ZM2.8995 23.9373C2.49663 23.5847 2.28571 23.1221 2.28571 22.6563V6.75001H22.7143V22.6563C22.7143 23.1221 22.5034 23.5847 22.1005 23.9373C21.6955 24.2916 21.1335 24.5 20.5357 24.5H4.46429C3.86653 24.5 3.30451 24.2916 2.8995 23.9373ZM16.8965 9.22754C16.6296 9.46108 16.4643 9.79327 16.4643 10.1563V21.0938C16.4643 21.4568 16.6296 21.7889 16.8965 22.0225C17.1613 22.2541 17.5077 22.375 17.8571 22.375C18.2066 22.375 18.553 22.2541 18.8177 22.0225C19.0846 21.7889 19.25 21.4568 19.25 21.0938V10.1563C19.25 9.79327 19.0846 9.46108 18.8177 9.22754C18.553 8.99587 18.2066 8.87501 17.8571 8.87501C17.5077 8.87501 17.1613 8.99587 16.8965 9.22754ZM11.5394 9.22754C11.2725 9.46108 11.1071 9.79327 11.1071 10.1563V21.0938C11.1071 21.4568 11.2725 21.7889 11.5394 22.0225C11.8042 22.2541 12.1506 22.375 12.5 22.375C12.8494 22.375 13.1958 22.2541 13.4606 22.0225C13.7275 21.7889 13.8929 21.4568 13.8929 21.0938V10.1563C13.8929 9.79327 13.7275 9.46108 13.4606 9.22754C13.1958 8.99587 12.8494 8.87501 12.5 8.87501C12.1506 8.87501 11.8042 8.99587 11.5394 9.22754ZM6.18226 9.22754C5.91536 9.46108 5.75 9.79327 5.75 10.1563V21.0938C5.75 21.4568 5.91536 21.7889 6.18226 22.0225C6.44702 22.2541 6.79341 22.375 7.14286 22.375C7.4923 22.375 7.83869 22.2541 8.10345 22.0225C8.37035 21.7889 8.53571 21.4568 8.53571 21.0938V10.1563C8.53571 9.79327 8.37035 9.46108 8.10345 9.22754C7.83869 8.99587 7.4923 8.87501 7.14286 8.87501C6.79341 8.87501 6.44702 8.99587 6.18226 9.22754ZM16.8862 0.649423C16.775 0.454215 16.6039 0.29001 16.3919 0.175281C16.18 0.0605526 15.9356 -0.00014785 15.6864 8.5609e-06L16.8862 0.649423Z" stroke="black"/>
</svg>
