<svg width="26" height="26" viewBox="0 0 26 26" fill="none" xmlns="http://www.w3.org/2000/svg">
<path d="M24.2415 1.09083L24.2419 1.09062C24.7265 0.810561 25.3315 1.22336 25.2369 1.78541L25.2368 1.7862L21.7214 22.8741C21.7214 22.8745 21.7213 22.8748 21.7213 22.8752C21.6474 23.3057 21.1916 23.5523 20.7976 23.3858L20.7962 23.3852L14.7122 20.8369L14.369 20.6932L14.1327 20.9807L11.0321 24.7543L11.0316 24.755C10.6415 25.2314 9.84326 24.9762 9.84326 24.3004V20.5495L21.4917 6.36051C21.4918 6.36039 21.4919 6.36026 21.492 6.36014C22.1118 5.6079 21.0857 4.61338 20.3545 5.26291C20.3542 5.26321 20.3538 5.26352 20.3535 5.26382L6.56222 17.4157L1.66174 15.36C1.66164 15.36 1.66154 15.36 1.66144 15.3599C1.15723 15.1468 1.08991 14.4434 1.60892 14.1453L1.60968 14.1449L24.2415 1.09083Z" stroke="black"/>
</svg>
