<svg width="25" height="25" viewBox="0 0 25 25" fill="none" xmlns="http://www.w3.org/2000/svg">
<path d="M20.7893 3.82344L21.1427 4.16114L21.4883 3.81552L23.2885 2.01538C23.7356 1.56828 24.5 1.88495 24.5 2.51721V9.27421C24.5 9.66616 24.1823 9.98388 23.7903 9.98388H17.0333C16.4011 9.98388 16.0844 9.21949 16.5315 8.77237C16.5315 8.77236 16.5315 8.77236 16.5315 8.77236L18.6358 6.66804L19.0012 6.30267L18.624 5.9495C16.9768 4.40717 14.8434 3.55213 12.5794 3.5326C7.64879 3.49001 3.48992 7.48003 3.53258 12.5772C3.57303 17.4101 7.49076 21.4677 12.5 21.4677C14.694 21.4677 16.7705 20.684 18.4058 19.2491C18.4457 19.2141 18.5078 19.215 18.5475 19.2546C18.5475 19.2546 18.5475 19.2546 18.5475 19.2547L20.5466 21.2537C20.5877 21.2949 20.5883 21.3648 20.5407 21.4078L20.5407 21.4078C18.4125 23.3301 15.5935 24.5 12.5 24.5C5.87261 24.5 0.500048 19.1274 0.5 12.5001C0.499952 5.88102 5.90289 0.488166 12.522 0.500019C15.7288 0.505778 18.6394 1.76885 20.7893 3.82344Z" stroke="black"/>
</svg>
