<svg width="25" height="25" viewBox="0 0 25 25" fill="none" xmlns="http://www.w3.org/2000/svg">
<path d="M11.2598 11.867C11.2211 10.0348 10.8327 8.2268 10.1156 6.54025C5.53886 8.67701 2.17688 12.7086 1.02766 17.4659C1.70021 19.0066 2.67551 20.3965 3.89567 21.553C5.05601 17.519 7.68257 14.0642 11.2598 11.867ZM9.39983 5.09391C8.63323 3.75851 7.65629 2.55542 6.50662 1.53097C1.91982 4.04065 -0.791939 9.23639 0.206068 14.7446C1.88958 10.5567 5.16586 7.08452 9.39983 5.09391ZM18.8557 13.4142C19.2892 8.38472 17.4797 3.4611 13.9413 0.0896645C13.2003 0.00399266 11.3404 -0.187509 8.95628 0.518024C11.8732 3.54015 13.5543 7.54375 13.6691 11.742C15.2754 12.6252 17.036 13.1928 18.8557 13.4142ZM12.5703 13.8929C11.0025 14.8446 9.63056 16.0863 8.52784 17.5516C12.661 20.4393 17.8275 21.3363 22.5151 19.9605C23.5234 18.6098 24.247 17.0685 24.6421 15.43C23.3092 15.7695 21.9399 15.9455 20.5644 15.9541C17.8123 15.949 15.0754 15.2435 12.5703 13.8929ZM7.61552 18.9173C6.84937 20.2276 6.32012 21.6588 5.99754 23.1606C8.23345 24.5327 10.8456 25.1637 13.4615 24.9637C16.0773 24.7637 18.5632 23.7429 20.5644 22.0469C14.8738 22.8582 10.3172 20.7971 7.61552 18.9173ZM16.7034 0.744802C19.4908 4.29263 20.8618 8.86851 20.4636 13.525C21.9992 13.5283 23.5254 13.2867 24.9849 12.8094C24.9849 12.7086 25 12.6078 25 12.507C25 7.07444 21.5372 2.47336 16.7034 0.744802Z" fill="black"/>
</svg>
