<svg width="25" height="25" viewBox="0 0 25 25" fill="none" xmlns="http://www.w3.org/2000/svg">
<path d="M25 6.25V22.3214C25 23.8002 23.9502 25 22.6562 25H2.34375C1.0498 25 0 23.8002 0 22.3214V6.25C0 4.77121 1.0498 3.57143 2.34375 3.57143H6.64062L7.24121 1.73549C7.58301 0.691964 8.45703 0 9.43359 0H15.5615C16.5381 0 17.4121 0.691964 17.7539 1.73549L18.3594 3.57143H22.6562C23.9502 3.57143 25 4.77121 25 6.25ZM18.3594 14.2857C18.3594 10.5915 15.7324 7.58929 12.5 7.58929C9.26758 7.58929 6.64062 10.5915 6.64062 14.2857C6.64062 17.9799 9.26758 20.9821 12.5 20.9821C15.7324 20.9821 18.3594 17.9799 18.3594 14.2857ZM16.7969 14.2857C16.7969 16.9922 14.8682 19.1964 12.5 19.1964C10.1318 19.1964 8.20312 16.9922 8.20312 14.2857C8.20312 11.5792 10.1318 9.375 12.5 9.375C14.8682 9.375 16.7969 11.5792 16.7969 14.2857Z" fill="black"/>
</svg>
