<svg width="25" height="25" viewBox="0 0 25 25" fill="none" xmlns="http://www.w3.org/2000/svg">
<path d="M23.75 0H1.25C0.559766 0 0 0.799665 0 1.78571V23.2143C0 24.2003 0.559766 25 1.25 25H23.75C24.4402 25 25 24.2003 25 23.2143V1.78571C25 0.799665 24.4402 0 23.75 0ZM6.875 16.5112V17.4107C6.875 17.6574 6.73516 17.8571 6.5625 17.8571H5.9375C5.76484 17.8571 5.625 17.6574 5.625 17.4107V16.5017C5.18398 16.4693 4.75508 16.2494 4.39961 15.8683C4.24727 15.7048 4.23945 15.3789 4.37734 15.1908L4.83633 14.5653C4.94453 14.418 5.10547 14.4113 5.23203 14.5246C5.3832 14.6596 5.55469 14.7321 5.73281 14.7321H6.83086C7.08477 14.7321 7.2918 14.4018 7.2918 13.9961C7.2918 13.6641 7.15078 13.3717 6.94922 13.2857L5.19141 12.5324C4.46523 12.221 3.95781 11.2254 3.95781 10.111C3.95781 8.74275 4.70195 7.63114 5.62461 7.59598V6.69643C5.62461 6.44978 5.76445 6.25 5.93711 6.25H6.56211C6.73477 6.25 6.87461 6.44978 6.87461 6.69643V7.60547C7.31563 7.63783 7.74453 7.85714 8.1 8.23884C8.25234 8.40234 8.26016 8.72824 8.12227 8.91629L7.66328 9.54185C7.55508 9.68917 7.39414 9.69587 7.26758 9.58259C7.11641 9.44699 6.94492 9.375 6.7668 9.375H5.66875C5.41484 9.375 5.20781 9.70536 5.20781 10.111C5.20781 10.4431 5.34883 10.7355 5.55039 10.8214L7.3082 11.5748C8.03437 11.8862 8.5418 12.8817 8.5418 13.9961C8.5418 15.365 7.79766 16.476 6.875 16.5112ZM16.25 15.625C16.25 15.8717 16.1102 16.0714 15.9375 16.0714H11.5625C11.3898 16.0714 11.25 15.8717 11.25 15.625V14.7321C11.25 14.4855 11.3898 14.2857 11.5625 14.2857H15.9375C16.1102 14.2857 16.25 14.4855 16.25 14.7321V15.625ZM22.5 15.625C22.5 15.8717 22.3602 16.0714 22.1875 16.0714H19.0625C18.8898 16.0714 18.75 15.8717 18.75 15.625V14.7321C18.75 14.4855 18.8898 14.2857 19.0625 14.2857H22.1875C22.3602 14.2857 22.5 14.4855 22.5 14.7321V15.625ZM22.5 10.2679C22.5 10.5145 22.3602 10.7143 22.1875 10.7143H11.5625C11.3898 10.7143 11.25 10.5145 11.25 10.2679V9.375C11.25 9.12835 11.3898 8.92857 11.5625 8.92857H22.1875C22.3602 8.92857 22.5 9.12835 22.5 9.375V10.2679Z" fill="black"/>
</svg>
