<svg width="25" height="25" viewBox="0 0 25 25" fill="none" xmlns="http://www.w3.org/2000/svg">
<path d="M23.4635 4.08609L13.4635 0.179464C13.1589 0.0609851 12.8324 0 12.5026 0C12.1728 0 11.8463 0.0609851 11.5417 0.179464L1.54167 4.08609C0.609375 4.44746 0 5.30203 0 6.24939C0 15.9427 5.96354 22.6426 11.5365 24.8205C12.151 25.0598 12.8437 25.0598 13.4583 24.8205C17.9219 23.0772 25 17.0561 25 6.24939C25 5.30203 24.3906 4.44746 23.4635 4.08609ZM12.5052 21.7929L12.5 3.18757L21.6615 6.76702C21.4896 14.1603 17.3854 19.5173 12.5052 21.7929Z" fill="black"/>
</svg>
