<svg width="21" height="25" viewBox="0 0 21 25" fill="none" xmlns="http://www.w3.org/2000/svg">
<path d="M20.5 5.95415V6.25H13.8333V0H14.1489C14.4804 1.62498e-06 14.7983 0.123458 15.0328 0.343213L20.1339 5.12549C20.3683 5.34526 20.5 5.64334 20.5 5.95415ZM13.4167 7.8125C12.7292 7.8125 12.1667 7.28516 12.1667 6.64062V0H1.75C1.05964 0 0.5 0.524658 0.5 1.17188V23.8281C0.5 24.4753 1.05964 25 1.75 25H19.25C19.9404 25 20.5 24.4753 20.5 23.8281V7.8125H13.4167ZM6.36172 8.59375C7.74245 8.59375 8.86172 9.64307 8.86172 10.9375C8.86172 12.2319 7.74245 13.2812 6.36172 13.2812C4.98099 13.2812 3.86172 12.2319 3.86172 10.9375C3.86172 9.64307 4.98104 8.59375 6.36172 8.59375ZM17.1951 20.3125H3.86172L3.88698 17.9451L5.94505 16.0156C6.18911 15.7868 6.55958 15.8105 6.80365 16.0393L8.86172 17.9688L14.2531 12.9143C14.4972 12.6855 14.8929 12.6855 15.137 12.9143L17.1951 14.8438V20.3125Z" fill="black"/>
</svg>
