<svg width="25" height="25" viewBox="0 0 25 25" fill="none" xmlns="http://www.w3.org/2000/svg">
<path d="M13.9313 0.5252C13.5444 0.187925 13.0323 0 12.5 0C11.9677 0 11.4556 0.187925 11.0688 0.5252L0.977085 9.32137C0.668088 9.59105 0.422046 9.91607 0.254035 10.2765C0.0860231 10.637 -0.000419942 11.0253 1.53386e-06 11.4176V22.1198C0.000553828 22.8839 0.330038 23.6164 0.916029 24.1565C1.50202 24.6966 2.29656 25 3.125 25H6.25C7.0788 25 7.87366 24.6964 8.45971 24.1559C9.04576 23.6154 9.375 22.8823 9.375 22.1179V17.3144C9.375 17.0596 9.48475 16.8152 9.6801 16.6351C9.87545 16.4549 10.1404 16.3537 10.4167 16.3537H14.5833C14.8596 16.3537 15.1246 16.4549 15.3199 16.6351C15.5153 16.8152 15.625 17.0596 15.625 17.3144V22.1179C15.625 22.8823 15.9542 23.6154 16.5403 24.1559C17.1263 24.6964 17.9212 25 18.75 25H21.875C22.7038 25 23.4987 24.6964 24.0847 24.1559C24.6708 23.6154 25 22.8823 25 22.1179V11.4157C24.9999 11.0235 24.913 10.6355 24.7446 10.2754C24.5762 9.91529 24.33 9.59066 24.0208 9.32137L13.9313 0.521358V0.5252Z" fill="black"/>
</svg>
