<svg width="26" height="26" viewBox="0 0 26 26" fill="none" xmlns="http://www.w3.org/2000/svg">
<path d="M23.3991 10.3214H15.3634V2.28571C15.3634 1.29967 14.5637 0.5 13.5777 0.5H11.792C10.8059 0.5 10.0062 1.29967 10.0062 2.28571V10.3214H1.97053C0.98448 10.3214 0.184814 11.1211 0.184814 12.1071V13.8929C0.184814 14.8789 0.98448 15.6786 1.97053 15.6786H10.0062V23.7143C10.0062 24.7003 10.8059 25.5 11.792 25.5H13.5777C14.5637 25.5 15.3634 24.7003 15.3634 23.7143V15.6786H23.3991C24.3851 15.6786 25.1848 14.8789 25.1848 13.8929V12.1071C25.1848 11.1211 24.3851 10.3214 23.3991 10.3214Z" fill="black"/>
</svg>
