<svg width="25" height="25" viewBox="0 0 25 25" fill="none" xmlns="http://www.w3.org/2000/svg">
<path d="M16.2453 4.68681C18.3153 4.68681 19.9947 3.63716 19.9947 2.34341C19.9947 1.04965 18.3153 0 16.2453 0C14.1753 0 12.4959 1.04965 12.4959 2.34341C12.4959 3.63716 14.1753 4.68681 16.2453 4.68681ZM23.6269 11.966L21.8069 11.3899L21.0492 9.9546C19.9009 7.77718 16.6984 6.25397 13.0662 6.24908C10.2541 6.2442 8.6997 6.74218 5.77832 7.47937C4.09111 7.90412 2.70853 8.70966 1.89616 9.7349L1.37282 10.3989C0.763543 11.1702 1.25565 12.1076 2.482 12.4933C3.70055 12.879 5.18467 12.5665 5.80175 11.7951L6.3251 11.1312C6.59849 10.7894 7.05154 10.5209 7.61395 10.3793L9.70734 9.85207L8.52004 12.8155C8.11386 13.831 8.55129 14.9099 9.68391 15.6862L14.3628 18.8791C14.9252 19.2648 15.3236 19.7286 15.5267 20.2314L16.9561 23.81C17.292 24.6448 18.6511 25.1574 19.9869 24.9475C21.3226 24.7376 22.1427 23.8881 21.8069 23.0533L20.0728 18.7082C19.8697 18.2053 19.4713 17.7367 18.9089 17.3559L15.3548 14.9295L16.6984 11.5755L17.128 12.381C17.542 13.167 18.4324 13.8163 19.6041 14.1874L21.4241 14.7635C22.6427 15.1491 24.1268 14.8367 24.7439 14.0653C25.3453 13.2988 24.8532 12.3517 23.6269 11.966ZM5.74708 18.8351C5.49712 19.2306 5.12218 19.587 4.63789 19.8848L0.732298 22.3307C-0.244099 22.941 -0.244099 23.932 0.732298 24.5423C1.7087 25.1526 3.28655 25.1526 4.26295 24.5423L8.90279 21.6423C9.37927 21.3445 9.75421 20.9881 10.012 20.5927L11.0665 18.9425C6.74691 15.9986 8.04356 16.9018 7.36399 16.3209L5.74708 18.8351Z" fill="black"/>
</svg>
