<svg width="25" height="25" viewBox="0 0 25 25" fill="none" xmlns="http://www.w3.org/2000/svg">
<path d="M24.375 21.875H20V2.48047C20 1.1123 19.159 0 18.125 0H6.87461C5.84063 0 4.99961 1.1123 4.99961 2.48047V21.875H0.625C0.279687 21.875 0 22.2246 0 22.6562V24.2188C0 24.6504 0.279687 25 0.625 25H24.375C24.7203 25 25 24.6504 25 24.2188V22.6562C25 22.2246 24.7203 21.875 24.375 21.875ZM16.2496 14.0625C15.5594 14.0625 14.9996 13.3628 14.9996 12.5C14.9996 11.6372 15.5594 10.9375 16.2496 10.9375C16.9398 10.9375 17.4996 11.6372 17.4996 12.5C17.5 13.3628 16.9402 14.0625 16.2496 14.0625Z" fill="black"/>
</svg>
