<svg width="21" height="26" viewBox="0 0 21 26" fill="none" xmlns="http://www.w3.org/2000/svg">
<path d="M20.4967 5.96875V23.1562C20.4967 24.4507 19.3774 25.5 17.9967 25.5H2.9967C1.61597 25.5 0.496704 24.4507 0.496704 23.1562V5.96875C0.496704 4.67432 1.61597 3.625 2.9967 3.625H7.16337C7.16337 1.90186 8.65868 0.5 10.4967 0.5C12.3347 0.5 13.83 1.90186 13.83 3.625H17.9967C19.3774 3.625 20.4967 4.67432 20.4967 5.96875ZM10.4967 2.45312C9.80634 2.45312 9.2467 2.97778 9.2467 3.625C9.2467 4.27222 9.80634 4.79688 10.4967 4.79688C11.1871 4.79688 11.7467 4.27222 11.7467 3.625C11.7467 2.97778 11.1871 2.45312 10.4967 2.45312ZM15.4967 8.01953V7.04297C15.4967 6.96527 15.4638 6.89075 15.4052 6.83581C15.3466 6.78087 15.2671 6.75 15.1842 6.75H5.8092C5.72632 6.75 5.64684 6.78087 5.58823 6.83581C5.52963 6.89075 5.4967 6.96527 5.4967 7.04297V8.01953C5.4967 8.09723 5.52963 8.17175 5.58823 8.22669C5.64684 8.28163 5.72632 8.3125 5.8092 8.3125H15.1842C15.2671 8.3125 15.3466 8.28163 15.4052 8.22669C15.4638 8.17175 15.4967 8.09723 15.4967 8.01953Z" fill="black"/>
</svg>
