<svg width="24" height="26" viewBox="0 0 24 26" fill="none" xmlns="http://www.w3.org/2000/svg">
<path d="M21.317 11.4375H20.0379V7.92188C20.0379 3.83008 16.4034 0.5 11.9375 0.5C7.4716 0.5 3.83705 3.83008 3.83705 7.92188V11.4375H2.55804C1.14579 11.4375 0 12.4873 0 13.7812V23.1562C0 24.4502 1.14579 25.5 2.55804 25.5H21.317C22.7292 25.5 23.875 24.4502 23.875 23.1562V13.7812C23.875 12.4873 22.7292 11.4375 21.317 11.4375ZM15.7746 11.4375H8.10045V7.92188C8.10045 5.9834 9.82179 4.40625 11.9375 4.40625C14.0532 4.40625 15.7746 5.9834 15.7746 7.92188V11.4375Z" fill="black"/>
</svg>
