<svg width="25" height="25" viewBox="0 0 25 25" fill="none" xmlns="http://www.w3.org/2000/svg">
<path d="M24.375 10.1562H21.875V7.03125C21.875 6.60156 21.5938 6.25 21.25 6.25H20C19.6562 6.25 19.375 6.60156 19.375 7.03125V10.1562H16.875C16.5312 10.1562 16.25 10.5078 16.25 10.9375V12.5C16.25 12.9297 16.5312 13.2812 16.875 13.2812H19.375V16.4062C19.375 16.8359 19.6562 17.1875 20 17.1875H21.25C21.5938 17.1875 21.875 16.8359 21.875 16.4062V13.2812H24.375C24.7188 13.2812 25 12.9297 25 12.5V10.9375C25 10.5078 24.7188 10.1562 24.375 10.1562ZM8.75 12.5C11.5117 12.5 13.75 9.70215 13.75 6.25C13.75 2.79785 11.5117 0 8.75 0C5.98828 0 3.75 2.79785 3.75 6.25C3.75 9.70215 5.98828 12.5 8.75 12.5ZM12.25 14.0625H11.5977C10.7305 14.5605 9.76562 14.8438 8.75 14.8438C7.73438 14.8438 6.77344 14.5605 5.90234 14.0625H5.25C2.35156 14.0625 0 17.002 0 20.625V22.6562C0 23.9502 0.839844 25 1.875 25H15.625C16.6602 25 17.5 23.9502 17.5 22.6562V20.625C17.5 17.002 15.1484 14.0625 12.25 14.0625Z" fill="black"/>
</svg>
