<svg width="25" height="25" viewBox="0 0 25 25" fill="none" xmlns="http://www.w3.org/2000/svg">
<path d="M24.5415 11.3924L13.6074 0.458489C12.9961 -0.15283 12.0044 -0.15283 11.3926 0.458489L0.458496 11.3924C-0.152832 12.0042 -0.152832 12.9954 0.458496 13.6072L11.3926 24.5411C12.0039 25.153 12.9956 25.153 13.6074 24.5411L24.5415 13.6072C25.1528 12.9954 25.1528 12.0042 24.5415 11.3924ZM19.6108 12.0057L15.499 15.801C15.249 16.032 14.8433 15.8547 14.8433 15.5139V12.8904H10.1558V16.0154C10.1558 16.2312 9.98096 16.406 9.76514 16.406H8.20264C7.98682 16.406 7.81201 16.2312 7.81201 16.0154V12.1092C7.81201 11.2464 8.51172 10.5467 9.37451 10.5467H14.8433V7.92322C14.8433 7.5829 15.2485 7.40516 15.499 7.63612L19.6108 11.4315C19.7783 11.5863 19.7783 11.8509 19.6108 12.0057Z" fill="black"/>
</svg>
