<svg width="29" height="29" viewBox="0 0 29 29" fill="none" xmlns="http://www.w3.org/2000/svg">
<path d="M22.7857 18.125C21.3222 18.125 19.9772 18.5679 18.9154 19.3085L12.2812 15.6804C12.4777 14.9029 12.4777 14.0971 12.2812 13.3195L18.9154 9.69144C19.9772 10.4321 21.3222 10.875 22.7857 10.875C26.2177 10.875 29 8.44053 29 5.4375C29 2.43447 26.2177 0 22.7857 0C19.3537 0 16.5714 2.43447 16.5714 5.4375C16.5714 5.84293 16.6226 6.23783 16.7188 6.61795L10.0846 10.246C9.02282 9.50537 7.67775 9.0625 6.21429 9.0625C2.78225 9.0625 0 11.497 0 14.5C0 17.503 2.78225 19.9375 6.21429 19.9375C7.67775 19.9375 9.02282 19.4946 10.0846 18.754L16.7188 22.3821C16.6207 22.7697 16.5713 23.1655 16.5714 23.5625C16.5714 26.5655 19.3537 29 22.7857 29C26.2177 29 29 26.5655 29 23.5625C29 20.5595 26.2177 18.125 22.7857 18.125Z" fill="black"/>
</svg>
