<svg width="25" height="26" viewBox="0 0 25 26" fill="none" xmlns="http://www.w3.org/2000/svg">
<path d="M11.3566 11.8594C10.7265 12.4894 10.7265 13.5106 11.3566 14.1401C11.9861 14.7702 13.0078 14.7702 13.6373 14.1401C14.2674 13.5101 14.2674 12.4889 13.6373 11.8594C13.0073 11.2298 11.9861 11.2298 11.3566 11.8594ZM12.4967 0.5C5.59297 0.5 -0.0032959 6.09627 -0.0032959 13C-0.0032959 19.9037 5.59297 25.5 12.4967 25.5C19.4004 25.5 24.9967 19.9037 24.9967 13C24.9967 6.09627 19.4004 0.5 12.4967 0.5ZM18.8546 7.9622L15.5295 15.2379C15.3686 15.5898 15.0865 15.8719 14.7346 16.0328L7.45941 19.3579C6.62019 19.7414 5.75527 18.8765 6.13884 18.0373L9.46445 10.7616C9.62528 10.4097 9.90745 10.1276 10.2593 9.96673L17.5345 6.64163C18.3737 6.25857 19.2381 7.12298 18.8546 7.9622Z" fill="black"/>
</svg>
