<svg width="25" height="25" viewBox="0 0 25 25" fill="none" xmlns="http://www.w3.org/2000/svg">
<path d="M1.78571 22.6563C1.78571 23.2779 2.06792 23.874 2.57025 24.3135C3.07258 24.7531 3.75388 25 4.46429 25H20.5357C21.2461 25 21.9274 24.7531 22.4298 24.3135C22.9321 23.874 23.2143 23.2779 23.2143 22.6563V6.25001H1.78571V22.6563ZM16.9643 10.1563C16.9643 9.94906 17.0584 9.75034 17.2258 9.60383C17.3932 9.45732 17.6203 9.37501 17.8571 9.37501C18.0939 9.37501 18.321 9.45732 18.4885 9.60383C18.6559 9.75034 18.75 9.94906 18.75 10.1563V21.0938C18.75 21.301 18.6559 21.4997 18.4885 21.6462C18.321 21.7927 18.0939 21.875 17.8571 21.875C17.6203 21.875 17.3932 21.7927 17.2258 21.6462C17.0584 21.4997 16.9643 21.301 16.9643 21.0938V10.1563ZM11.6071 10.1563C11.6071 9.94906 11.7012 9.75034 11.8687 9.60383C12.0361 9.45732 12.2632 9.37501 12.5 9.37501C12.7368 9.37501 12.9639 9.45732 13.1313 9.60383C13.2988 9.75034 13.3929 9.94906 13.3929 10.1563V21.0938C13.3929 21.301 13.2988 21.4997 13.1313 21.6462C12.9639 21.7927 12.7368 21.875 12.5 21.875C12.2632 21.875 12.0361 21.7927 11.8687 21.6462C11.7012 21.4997 11.6071 21.301 11.6071 21.0938V10.1563ZM6.25 10.1563C6.25 9.94906 6.34407 9.75034 6.51151 9.60383C6.67896 9.45732 6.90606 9.37501 7.14286 9.37501C7.37966 9.37501 7.60676 9.45732 7.7742 9.60383C7.94165 9.75034 8.03571 9.94906 8.03571 10.1563V21.0938C8.03571 21.301 7.94165 21.4997 7.7742 21.6462C7.60676 21.7927 7.37966 21.875 7.14286 21.875C6.90606 21.875 6.67896 21.7927 6.51151 21.6462C6.34407 21.4997 6.25 21.301 6.25 21.0938V10.1563ZM24.1071 1.56251H17.4107L16.8862 0.649423C16.775 0.454215 16.6039 0.29001 16.3919 0.175281C16.18 0.0605526 15.9356 -0.00014785 15.6864 8.5609e-06H9.30804C9.05936 -0.000827891 8.81545 0.0596463 8.60424 0.174503C8.39304 0.289359 8.22308 0.453951 8.11384 0.649423L7.58929 1.56251H0.892857C0.656057 1.56251 0.428955 1.64482 0.261512 1.79133C0.0940686 1.93784 0 2.13656 0 2.34376L0 3.90626C0 4.11346 0.0940686 4.31217 0.261512 4.45869C0.428955 4.6052 0.656057 4.68751 0.892857 4.68751H24.1071C24.3439 4.68751 24.571 4.6052 24.7385 4.45869C24.9059 4.31217 25 4.11346 25 3.90626V2.34376C25 2.13656 24.9059 1.93784 24.7385 1.79133C24.571 1.64482 24.3439 1.56251 24.1071 1.56251Z" fill="black"/>
</svg>
