<svg width="25" height="25" viewBox="0 0 25 25" fill="none" xmlns="http://www.w3.org/2000/svg">
<path d="M22.3214 0H2.67857C1.25 0 0 1.09375 0 2.34375V22.6562C0 23.9063 1.25 25 2.67857 25H22.3214C23.75 25 25 23.9063 25 22.6562V2.34375C25 1.09375 23.75 0 22.3214 0ZM7.14286 21.25C7.14286 21.5625 6.78571 21.875 6.42857 21.875H4.28571C3.92857 21.875 3.57143 21.5625 3.57143 21.25V19.375C3.57143 19.0625 3.92857 18.75 4.28571 18.75H6.42857C6.78571 18.75 7.14286 19.0625 7.14286 19.375V21.25ZM7.14286 15C7.14286 15.3125 6.78571 15.625 6.42857 15.625H4.28571C3.92857 15.625 3.57143 15.3125 3.57143 15V13.125C3.57143 12.8125 3.92857 12.5 4.28571 12.5H6.42857C6.78571 12.5 7.14286 12.8125 7.14286 13.125V15ZM14.2857 21.25C14.2857 21.5625 13.9286 21.875 13.5714 21.875H11.4286C11.0714 21.875 10.7143 21.5625 10.7143 21.25V19.375C10.7143 19.0625 11.0714 18.75 11.4286 18.75H13.5714C13.9286 18.75 14.2857 19.0625 14.2857 19.375V21.25ZM14.2857 15C14.2857 15.3125 13.9286 15.625 13.5714 15.625H11.4286C11.0714 15.625 10.7143 15.3125 10.7143 15V13.125C10.7143 12.8125 11.0714 12.5 11.4286 12.5H13.5714C13.9286 12.5 14.2857 12.8125 14.2857 13.125V15ZM21.4286 21.25C21.4286 21.5625 21.0714 21.875 20.7143 21.875H18.5714C18.2143 21.875 17.8571 21.5625 17.8571 21.25V13.125C17.8571 12.8125 18.2143 12.5 18.5714 12.5H20.7143C21.0714 12.5 21.4286 12.8125 21.4286 13.125V21.25ZM21.4286 8.75C21.4286 9.0625 21.0714 9.375 20.7143 9.375H4.28571C3.92857 9.375 3.57143 9.0625 3.57143 8.75V3.75C3.57143 3.4375 3.92857 3.125 4.28571 3.125H20.7143C21.0714 3.125 21.4286 3.4375 21.4286 3.75V8.75Z" fill="black"/>
</svg>
