<svg width="25" height="25" viewBox="0 0 25 25" fill="none" xmlns="http://www.w3.org/2000/svg">
<path d="M22.8469 9.6569L22.2615 7.82747L21.2234 4.58333C20.3323 1.79883 18.2068 0 15.8073 0H9.19271C6.79375 0 4.66771 1.79883 3.77656 4.58333L2.73854 7.82747L2.15312 9.6569C0.896875 10.2539 0 11.7617 0 13.5417V16.6667C0 17.7161 0.320833 18.6634 0.833333 19.3965V22.9167C0.833333 24.0671 1.57969 25 2.5 25H4.16667C5.08698 25 5.83333 24.0671 5.83333 22.9167V20.8333H19.1667V22.9167C19.1667 24.0671 19.913 25 20.8333 25H22.5C23.4203 25 24.1667 24.0671 24.1667 22.9167V19.3965C24.6792 18.6641 25 17.7168 25 16.6667V13.5417C25 11.7617 24.1031 10.2539 22.8469 9.6569ZM6.87135 6.13086C7.25104 4.94466 8.17031 4.16667 9.19271 4.16667H15.8073C16.8297 4.16667 17.749 4.94466 18.1286 6.13086L19.1667 9.375H5.83333L6.87135 6.13086ZM4.16667 16.6536C3.16667 16.6536 2.5 15.8229 2.5 14.5768C2.5 13.3307 3.16667 12.5 4.16667 12.5C5.16667 12.5 6.66667 14.3691 6.66667 15.6152C6.66667 16.8613 5.16667 16.6536 4.16667 16.6536ZM20.8333 16.6536C19.8333 16.6536 18.3333 16.8613 18.3333 15.6152C18.3333 14.3691 19.8333 12.5 20.8333 12.5C21.8333 12.5 22.5 13.3307 22.5 14.5768C22.5 15.8229 21.8333 16.6536 20.8333 16.6536Z" fill="black"/>
</svg>
