<svg width="25" height="25" viewBox="0 0 25 25" fill="none" xmlns="http://www.w3.org/2000/svg">
<path d="M11.2154 24.4956C1.75586 14.2105 0 13.1549 0 9.375C0 4.19731 5.59642 0 12.5 0C19.4036 0 25 4.19731 25 9.375C25 13.1549 23.2441 14.2105 13.7846 24.4956C13.1639 25.1682 11.8361 25.1681 11.2154 24.4956ZM12.5 13.2812C15.3765 13.2812 17.7083 11.5324 17.7083 9.375C17.7083 7.21763 15.3765 5.46875 12.5 5.46875C9.6235 5.46875 7.29167 7.21763 7.29167 9.375C7.29167 11.5324 9.6235 13.2812 12.5 13.2812Z" fill="black"/>
</svg>
