<svg width="25" height="25" viewBox="0 0 25 25" fill="none" xmlns="http://www.w3.org/2000/svg">
<path d="M24.2188 19.6429H7.8125V18.75C7.8125 18.2589 7.46094 17.8571 7.03125 17.8571H5.46875C5.03906 17.8571 4.6875 18.2589 4.6875 18.75V19.6429H0.78125C0.351562 19.6429 0 20.0446 0 20.5357V22.3214C0 22.8125 0.351562 23.2143 0.78125 23.2143H4.6875V24.1071C4.6875 24.5982 5.03906 25 5.46875 25H7.03125C7.46094 25 7.8125 24.5982 7.8125 24.1071V23.2143H24.2188C24.6484 23.2143 25 22.8125 25 22.3214V20.5357C25 20.0446 24.6484 19.6429 24.2188 19.6429ZM24.2188 10.7143H20.3125V9.82143C20.3125 9.33036 19.9609 8.92857 19.5312 8.92857H17.9688C17.5391 8.92857 17.1875 9.33036 17.1875 9.82143V10.7143H0.78125C0.351562 10.7143 0 11.1161 0 11.6071V13.3929C0 13.8839 0.351562 14.2857 0.78125 14.2857H17.1875V15.1786C17.1875 15.6696 17.5391 16.0714 17.9688 16.0714H19.5312C19.9609 16.0714 20.3125 15.6696 20.3125 15.1786V14.2857H24.2188C24.6484 14.2857 25 13.8839 25 13.3929V11.6071C25 11.1161 24.6484 10.7143 24.2188 10.7143ZM24.2188 1.78571H14.0625V0.892857C14.0625 0.401786 13.7109 0 13.2812 0H11.7188C11.2891 0 10.9375 0.401786 10.9375 0.892857V1.78571H0.78125C0.351562 1.78571 0 2.1875 0 2.67857V4.46429C0 4.95536 0.351562 5.35714 0.78125 5.35714H10.9375V6.25C10.9375 6.74107 11.2891 7.14286 11.7188 7.14286H13.2812C13.7109 7.14286 14.0625 6.74107 14.0625 6.25V5.35714H24.2188C24.6484 5.35714 25 4.95536 25 4.46429V2.67857C25 2.1875 24.6484 1.78571 24.2188 1.78571Z" fill="black"/>
</svg>
