<svg width="25" height="25" viewBox="0 0 25 25" fill="none" xmlns="http://www.w3.org/2000/svg">
<path d="M16.9641 7.66129C16.2331 3.16028 14.509 0 12.5025 0C10.4961 0 8.77193 3.16028 8.04094 7.66129H16.9641ZM7.66284 12.5C7.66284 13.619 7.72333 14.6925 7.8292 15.7258H17.1708C17.2767 14.6925 17.3372 13.619 17.3372 12.5C17.3372 11.381 17.2767 10.3075 17.1708 9.27419H7.8292C7.72333 10.3075 7.66284 11.381 7.66284 12.5ZM24.0321 7.66129C22.5902 4.23891 19.6713 1.59274 16.0667 0.524194C17.2968 2.22782 18.1438 4.79335 18.5874 7.66129H24.0321ZM8.93325 0.524194C5.33374 1.59274 2.40976 4.23891 0.972978 7.66129H6.41762C6.85622 4.79335 7.70317 2.22782 8.93325 0.524194ZM24.5715 9.27419H18.7891C18.8949 10.3327 18.9554 11.4163 18.9554 12.5C18.9554 13.5837 18.8949 14.6673 18.7891 15.7258H24.5664C24.8437 14.6925 25 13.619 25 12.5C25 11.381 24.8437 10.3075 24.5715 9.27419ZM6.04961 12.5C6.04961 11.4163 6.1101 10.3327 6.21597 9.27419H0.433555C0.161323 10.3075 0 11.381 0 12.5C0 13.619 0.161323 14.6925 0.433555 15.7258H6.21093C6.1101 14.6673 6.04961 13.5837 6.04961 12.5ZM8.04094 17.3387C8.77193 21.8397 10.4961 25 12.5025 25C14.509 25 16.2331 21.8397 16.9641 17.3387H8.04094ZM16.0718 24.4758C19.6713 23.4073 22.5953 20.7611 24.0371 17.3387H18.5925C18.1488 20.2067 17.3019 22.7722 16.0718 24.4758ZM0.972978 17.3387C2.4148 20.7611 5.33374 23.4073 8.93829 24.4758C7.70821 22.7722 6.86126 20.2067 6.41762 17.3387H0.972978Z" fill="black"/>
</svg>
