<svg width="25" height="25" viewBox="0 0 25 25" fill="none" xmlns="http://www.w3.org/2000/svg">
<path d="M12.5 0C5.59642 0 0 5.59642 0 12.5C0 19.4036 5.59642 25 12.5 25C19.4036 25 25 19.4036 25 12.5C25 5.59642 19.4036 0 12.5 0ZM21.2548 6.02616L18.0593 9.22167C17.5055 8.28624 16.7151 7.49526 15.7783 6.94068L18.9738 3.74516C19.8421 4.38936 20.6106 5.15794 21.2548 6.02616ZM12.5 17.3387C9.82767 17.3387 7.66129 15.1723 7.66129 12.5C7.66129 9.82767 9.82767 7.66129 12.5 7.66129C15.1723 7.66129 17.3387 9.82767 17.3387 12.5C17.3387 15.1723 15.1723 17.3387 12.5 17.3387ZM6.02616 3.74516L9.22167 6.94068C8.28624 7.49446 7.49526 8.28493 6.94068 9.22167L3.74516 6.02616C4.38934 5.15793 5.15793 4.38934 6.02616 3.74516ZM3.74516 18.9738L6.94068 15.7783C7.49446 16.7138 8.28493 17.5047 9.22167 18.0593L6.02616 21.2548C5.15794 20.6106 4.38936 19.8421 3.74516 18.9738ZM18.9738 21.2548L15.7783 18.0593C16.7138 17.5055 17.5047 16.7151 18.0593 15.7783L21.2548 18.9738C20.6106 19.8421 19.8421 20.6106 18.9738 21.2548Z" fill="black"/>
</svg>
