<svg width="20" height="20" viewBox="0 0 20 20" fill="none" xmlns="http://www.w3.org/2000/svg">
<path d="M8.74023 5.10742L6.03983 0.607031C5.9288 0.421898 5.77171 0.268679 5.58387 0.162298C5.39603 0.0559177 5.18383 2.65049e-06 4.96795 0H0.626145C0.120285 0 -0.17581 0.569141 0.114035 0.983594L4.46053 7.19297C5.62147 6.1082 7.09804 5.36367 8.74023 5.10742ZM19.3739 0H15.032C14.593 0 14.1859 0.230469 13.9602 0.607031L11.2598 5.10742C12.902 5.36367 14.3785 6.1082 15.5395 7.19258L19.886 0.983594C20.1758 0.569141 19.8797 0 19.3739 0ZM10 6.25C6.20311 6.25 3.12498 9.32813 3.12498 13.125C3.12498 16.9219 6.20311 20 10 20C13.7969 20 16.875 16.9219 16.875 13.125C16.875 9.32813 13.7969 6.25 10 6.25ZM13.6141 12.393L12.1324 13.8367L12.4828 15.8766C12.5453 16.2422 12.1602 16.5215 11.8324 16.3488L10 15.3859L8.16796 16.3488C7.83984 16.5227 7.45507 16.2418 7.51757 15.8766L7.86796 13.8367L6.38632 12.393C6.11991 12.1336 6.26718 11.6809 6.63437 11.6277L8.68242 11.3293L9.59766 9.47305C9.68008 9.30586 9.83945 9.22344 9.99922 9.22344C10.1598 9.22344 10.3203 9.30703 10.4027 9.47305L11.318 11.3293L13.366 11.6277C13.7332 11.6809 13.8805 12.1336 13.6141 12.393Z" fill="black"/>
</svg>
