<svg width="25" height="25" viewBox="0 0 25 25" fill="none" xmlns="http://www.w3.org/2000/svg">
<path d="M10.7006 0.115927C8.49294 0.433468 6.35585 1.33065 4.54133 2.82762L8.44254 6.72883C9.84375 4.9244 10.625 2.63609 10.7006 0.115927ZM12.5 10.7863L20.4587 2.82762C18.3216 1.06351 15.7409 0.131048 13.125 0C13.0645 3.22077 12.0413 6.16431 10.1663 8.45262L12.5 10.7863ZM2.82762 4.54133C1.33065 6.35585 0.433468 8.49294 0.115927 10.7006C2.63609 10.625 4.92944 9.84375 6.72883 8.44254L2.82762 4.54133ZM16.5474 14.8337C18.8306 12.9637 21.7742 11.9405 25 11.875C24.869 9.25907 23.9365 6.67843 22.1724 4.54133L14.2137 12.5L16.5474 14.8337ZM12.5 14.2137L4.54133 22.1724C6.67843 23.9315 9.25907 24.869 11.875 25C11.9405 21.7742 12.9637 18.8306 14.8337 16.5474L12.5 14.2137ZM22.1724 20.4587C23.6694 18.6442 24.5665 16.5071 24.8841 14.2994C22.3589 14.38 20.0706 15.1613 18.2712 16.5575L22.1724 20.4587ZM8.45262 10.1663C6.16431 12.0413 3.22077 13.0696 0 13.125C0.131048 15.7409 1.06351 18.3216 2.82762 20.4587L10.7863 12.5L8.45262 10.1663ZM14.2994 24.8841C16.5071 24.5665 18.6442 23.6694 20.4587 22.1724L16.5575 18.2712C15.1613 20.0706 14.38 22.3639 14.2994 24.8841Z" fill="black"/>
</svg>
