<svg width="25" height="26" viewBox="0 0 25 26" fill="none" xmlns="http://www.w3.org/2000/svg">
<path d="M7.48254 1.32261C5.40847 2.33455 3.89085 4.51021 2.42382 8.35556C1.3109 11.3914 -0.307897 19.8916 0.0462137 20.853C0.197976 21.2071 2.62617 22.4721 5.45905 23.6358C9.91073 25.5079 10.8213 25.7103 12.693 25.3561C14.6659 25.0019 14.9189 24.7489 16.3353 21.8143C17.6 19.1833 18.2576 18.4243 20.1294 17.5136C24.0752 15.5403 26.0481 10.177 24.4293 6.07871C23.3164 3.29588 22.1529 2.63813 16.1836 1.4238C10.0119 0.209482 9.70839 0.209482 7.48254 1.32261ZM14.0589 2.94171C19.2188 4.10543 18.8647 3.80185 17.1447 5.26916C14.5648 7.44482 11.9848 14.2754 11.1754 21.2071C10.9731 22.978 10.6695 23.6864 10.2143 23.484C6.8755 22.2191 1.91794 19.9928 1.91794 19.7904C1.91794 18.4243 4.14378 9.11451 4.90259 7.39422C6.8755 2.84051 8.89899 1.82858 14.0589 2.94171Z" fill="black"/>
<path d="M5.69965 8.29552C5.45582 8.51327 5.27295 9.45687 5.27295 10.3279C5.27295 11.5618 5.82156 12.1425 7.77218 12.7957C9.17419 13.3038 10.6372 13.8845 11.0639 14.0297C11.4906 14.2474 11.9782 13.6668 12.222 12.578C12.4049 11.5618 12.6487 10.473 12.7707 10.2553C12.8316 9.96496 11.6734 9.3117 10.1495 8.80361C7.0407 7.64226 6.24826 7.56968 5.69965 8.29552Z" fill="black"/>
</svg>
