<svg width="25" height="25" viewBox="0 0 25 25" fill="none" xmlns="http://www.w3.org/2000/svg">
<path d="M23.8502 18.2275C23.9517 17.5391 23.9517 16.8359 23.8502 16.1475L24.8581 15.4199C24.9753 15.3369 25.0261 15.166 24.987 15.0049C24.7253 13.9502 24.276 12.9932 23.69 12.2021C23.6001 12.0801 23.4556 12.0508 23.3384 12.1338L22.3305 12.8613C21.9047 12.4072 21.4163 12.0557 20.8889 11.8213V10.3662C20.8889 10.2002 20.7952 10.0537 20.6662 10.0195C19.7951 9.77539 18.9082 9.78516 18.08 10.0195C17.9511 10.0537 17.8574 10.2002 17.8574 10.3662V11.8213C17.33 12.0557 16.8416 12.4072 16.4158 12.8613L15.4079 12.1338C15.2946 12.0508 15.1461 12.0801 15.0563 12.2021C14.4703 12.9932 14.021 13.9502 13.7593 15.0049C13.7202 15.166 13.7749 15.3369 13.8882 15.4199L14.8961 16.1475C14.7945 16.8359 14.7945 17.5391 14.8961 18.2275L13.8882 18.9551C13.771 19.0381 13.7202 19.209 13.7593 19.3701C14.021 20.4248 14.4703 21.377 15.0563 22.1729C15.1461 22.2949 15.2907 22.3242 15.4079 22.2412L16.4158 21.5137C16.8416 21.9678 17.33 22.3193 17.8574 22.5537V24.0088C17.8574 24.1748 17.9511 24.3213 18.08 24.3555C18.9512 24.5996 19.838 24.5898 20.6662 24.3555C20.7952 24.3213 20.8889 24.1748 20.8889 24.0088V22.5537C21.4163 22.3193 21.9047 21.9678 22.3305 21.5137L23.3384 22.2412C23.4517 22.3242 23.6001 22.2949 23.69 22.1729C24.276 21.3818 24.7253 20.4248 24.987 19.3701C25.0261 19.209 24.9714 19.0381 24.8581 18.9551L23.8502 18.2275ZM19.377 19.5557C18.3301 19.5557 17.4823 18.4912 17.4823 17.1875C17.4823 15.8838 18.334 14.8193 19.377 14.8193C20.4201 14.8193 21.2718 15.8838 21.2718 17.1875C21.2718 18.4912 20.424 19.5557 19.377 19.5557ZM8.75092 12.5C11.5129 12.5 13.7515 9.70215 13.7515 6.25C13.7515 2.79785 11.5129 0 8.75092 0C5.98891 0 3.7504 2.79785 3.7504 6.25C3.7504 9.70215 5.98891 12.5 8.75092 12.5ZM16.6111 23.5596C16.5213 23.501 16.4314 23.4326 16.3455 23.3691L16.0368 23.5938C15.8024 23.7598 15.5368 23.8525 15.2711 23.8525C14.8453 23.8525 14.4351 23.6279 14.1421 23.2373C13.4272 22.2705 12.8803 21.0937 12.5716 19.8389C12.3568 18.9746 12.6459 18.0615 13.2709 17.6074L13.5796 17.3828C13.5757 17.2559 13.5757 17.1289 13.5796 17.002L13.2709 16.7773C12.6459 16.3281 12.3568 15.4102 12.5716 14.5459C12.6068 14.4043 12.6576 14.2627 12.6967 14.1211C12.5482 14.1064 12.4037 14.0625 12.2513 14.0625H11.5989C10.7316 14.5605 9.76666 14.8438 8.75092 14.8438C7.73519 14.8438 6.77415 14.5605 5.90297 14.0625H5.25055C2.35181 14.0625 0 17.002 0 20.625V22.6562C0 23.9502 0.839932 25 1.8752 25H15.6266C16.0212 25 16.3884 24.8438 16.6893 24.585C16.6424 24.3994 16.6111 24.209 16.6111 24.0088V23.5596Z" fill="black"/>
</svg>
