<svg width="25" height="25" viewBox="0 0 25 25" fill="none" xmlns="http://www.w3.org/2000/svg">
<path d="M12.5229 2.0323e-05C15.8631 0.0060183 18.8958 1.32225 21.1348 3.46196L22.9349 1.66181C23.697 0.899768 25 1.43949 25 2.51721V9.27421C25 9.9423 24.4584 10.4839 23.7903 10.4839H17.0333C15.9556 10.4839 15.4159 9.18091 16.1779 8.41881L18.2823 6.31448C16.7266 4.85788 14.7137 4.05103 12.5751 4.03258C7.91794 3.99236 3.99229 7.76125 4.03256 12.573C4.07077 17.1376 7.77137 20.9677 12.5 20.9677C14.5729 20.9677 16.5321 20.2279 18.0761 18.8732C18.3151 18.6635 18.6762 18.6762 18.9011 18.9011L20.9002 20.9002C21.1457 21.1457 21.1336 21.5461 20.8759 21.7788C18.6594 23.7809 15.7221 25 12.5 25C5.59647 25 5.04036e-05 19.4036 3.38586e-10 12.5001C-5.04029e-05 5.6045 5.62732 -0.0123285 12.5229 2.0323e-05Z" fill="black"/>
</svg>
