<svg width="25" height="25" viewBox="0 0 25 25" fill="none" xmlns="http://www.w3.org/2000/svg">
<path d="M2.34375 0C1.8802 0 1.42706 0.16918 1.04163 0.486145C0.656206 0.803111 0.355801 1.25363 0.178408 1.78072C0.00101551 2.30782 -0.0453986 2.88781 0.0450356 3.44738C0.13547 4.00694 0.35869 4.52093 0.68647 4.92435C1.01425 5.32777 1.43187 5.6025 1.88651 5.7138C2.34115 5.82511 2.8124 5.76798 3.24067 5.54965C3.66893 5.33132 4.03497 4.96159 4.29251 4.48722C4.55004 4.01285 4.6875 3.45514 4.6875 2.88462C4.6875 2.11957 4.44057 1.38585 4.00103 0.844884C3.56149 0.303914 2.96535 0 2.34375 0ZM2.34375 9.61538C1.8802 9.61538 1.42706 9.78456 1.04163 10.1015C0.656206 10.4185 0.355801 10.869 0.178408 11.3961C0.00101551 11.9232 -0.0453986 12.5032 0.0450356 13.0628C0.13547 13.6223 0.35869 14.1363 0.68647 14.5397C1.01425 14.9432 1.43187 15.2179 1.88651 15.3292C2.34115 15.4405 2.8124 15.3834 3.24067 15.165C3.66893 14.9467 4.03497 14.577 4.29251 14.1026C4.55004 13.6282 4.6875 13.0705 4.6875 12.5C4.6875 11.735 4.44057 11.0012 4.00103 10.4603C3.56149 9.9193 2.96535 9.61538 2.34375 9.61538ZM2.34375 19.2308C1.8802 19.2308 1.42706 19.3999 1.04163 19.7169C0.656206 20.0339 0.355801 20.4844 0.178408 21.0115C0.00101551 21.5386 -0.0453986 22.1186 0.0450356 22.6781C0.13547 23.2377 0.35869 23.7517 0.68647 24.1551C1.01425 24.5585 1.43187 24.8333 1.88651 24.9446C2.34115 25.0559 2.8124 24.9987 3.24067 24.7804C3.66893 24.5621 4.03497 24.1924 4.29251 23.718C4.55004 23.2436 4.6875 22.6859 4.6875 22.1154C4.6875 21.3503 4.44057 20.6166 4.00103 20.0757C3.56149 19.5347 2.96535 19.2308 2.34375 19.2308ZM24.2188 20.1923H8.59375C8.38655 20.1923 8.18784 20.2936 8.04132 20.4739C7.89481 20.6543 7.8125 20.8988 7.8125 21.1538V23.0769C7.8125 23.3319 7.89481 23.5765 8.04132 23.7568C8.18784 23.9372 8.38655 24.0385 8.59375 24.0385H24.2188C24.426 24.0385 24.6247 23.9372 24.7712 23.7568C24.9177 23.5765 25 23.3319 25 23.0769V21.1538C25 20.8988 24.9177 20.6543 24.7712 20.4739C24.6247 20.2936 24.426 20.1923 24.2188 20.1923ZM24.2188 0.961538H8.59375C8.38655 0.961538 8.18784 1.06284 8.04132 1.24317C7.89481 1.42349 7.8125 1.66806 7.8125 1.92308V3.84615C7.8125 4.10117 7.89481 4.34574 8.04132 4.52606C8.18784 4.70639 8.38655 4.80769 8.59375 4.80769H24.2188C24.426 4.80769 24.6247 4.70639 24.7712 4.52606C24.9177 4.34574 25 4.10117 25 3.84615V1.92308C25 1.66806 24.9177 1.42349 24.7712 1.24317C24.6247 1.06284 24.426 0.961538 24.2188 0.961538ZM24.2188 10.5769H8.59375C8.38655 10.5769 8.18784 10.6782 8.04132 10.8586C7.89481 11.0389 7.8125 11.2834 7.8125 11.5385V13.4615C7.8125 13.7166 7.89481 13.9611 8.04132 14.1414C8.18784 14.3218 8.38655 14.4231 8.59375 14.4231H24.2188C24.426 14.4231 24.6247 14.3218 24.7712 14.1414C24.9177 13.9611 25 13.7166 25 13.4615V11.5385C25 11.2834 24.9177 11.0389 24.7712 10.8586C24.6247 10.6782 24.426 10.5769 24.2188 10.5769Z" fill="black"/>
</svg>
