<svg width="26" height="26" viewBox="0 0 26 26" fill="none" xmlns="http://www.w3.org/2000/svg">
<path d="M24.4196 21.9286H1.20536C0.968557 21.9286 0.741455 22.0226 0.574012 22.1901C0.406569 22.3575 0.3125 22.5846 0.3125 22.8214L0.3125 24.6071C0.3125 24.8439 0.406569 25.071 0.574012 25.2385C0.741455 25.4059 0.968557 25.5 1.20536 25.5H24.4196C24.6564 25.5 24.8835 25.4059 25.051 25.2385C25.2184 25.071 25.3125 24.8439 25.3125 24.6071V22.8214C25.3125 22.5846 25.2184 22.3575 25.051 22.1901C24.8835 22.0226 24.6564 21.9286 24.4196 21.9286ZM24.4196 14.7857H1.20536C0.968557 14.7857 0.741455 14.8798 0.574012 15.0472C0.406569 15.2147 0.3125 15.4418 0.3125 15.6786L0.3125 17.4643C0.3125 17.7011 0.406569 17.9282 0.574012 18.0956C0.741455 18.2631 0.968557 18.3571 1.20536 18.3571H24.4196C24.6564 18.3571 24.8835 18.2631 25.051 18.0956C25.2184 17.9282 25.3125 17.7011 25.3125 17.4643V15.6786C25.3125 15.4418 25.2184 15.2147 25.051 15.0472C24.8835 14.8798 24.6564 14.7857 24.4196 14.7857ZM24.4196 7.64286H1.20536C0.968557 7.64286 0.741455 7.73693 0.574012 7.90437C0.406569 8.07181 0.3125 8.29891 0.3125 8.53571L0.3125 10.3214C0.3125 10.5582 0.406569 10.7853 0.574012 10.9528C0.741455 11.1202 0.968557 11.2143 1.20536 11.2143H24.4196C24.6564 11.2143 24.8835 11.1202 25.051 10.9528C25.2184 10.7853 25.3125 10.5582 25.3125 10.3214V8.53571C25.3125 8.29891 25.2184 8.07181 25.051 7.90437C24.8835 7.73693 24.6564 7.64286 24.4196 7.64286ZM24.4196 0.5H1.20536C0.968557 0.5 0.741455 0.594069 0.574012 0.761512C0.406569 0.928955 0.3125 1.15606 0.3125 1.39286L0.3125 3.17857C0.3125 3.41537 0.406569 3.64247 0.574012 3.80992C0.741455 3.97736 0.968557 4.07143 1.20536 4.07143H24.4196C24.6564 4.07143 24.8835 3.97736 25.051 3.80992C25.2184 3.64247 25.3125 3.41537 25.3125 3.17857V1.39286C25.3125 1.15606 25.2184 0.928955 25.051 0.761512C24.8835 0.594069 24.6564 0.5 24.4196 0.5Z" fill="black"/>
</svg>
