<svg width="25" height="26" viewBox="0 0 25 26" fill="none" xmlns="http://www.w3.org/2000/svg">
<path d="M0 23.4702C0 24.7642 1.19978 25.814 2.67857 25.814H22.3214C23.8002 25.814 25 24.7642 25 23.4702V10.189H0V23.4702ZM17.8571 13.8999C17.8571 13.5776 18.1585 13.314 18.5268 13.314H20.7589C21.1272 13.314 21.4286 13.5776 21.4286 13.8999V15.853C21.4286 16.1753 21.1272 16.439 20.7589 16.439H18.5268C18.1585 16.439 17.8571 16.1753 17.8571 15.853V13.8999ZM17.8571 20.1499C17.8571 19.8276 18.1585 19.564 18.5268 19.564H20.7589C21.1272 19.564 21.4286 19.8276 21.4286 20.1499V22.103C21.4286 22.4253 21.1272 22.689 20.7589 22.689H18.5268C18.1585 22.689 17.8571 22.4253 17.8571 22.103V20.1499ZM10.7143 13.8999C10.7143 13.5776 11.0156 13.314 11.3839 13.314H13.6161C13.9844 13.314 14.2857 13.5776 14.2857 13.8999V15.853C14.2857 16.1753 13.9844 16.439 13.6161 16.439H11.3839C11.0156 16.439 10.7143 16.1753 10.7143 15.853V13.8999ZM10.7143 20.1499C10.7143 19.8276 11.0156 19.564 11.3839 19.564H13.6161C13.9844 19.564 14.2857 19.8276 14.2857 20.1499V22.103C14.2857 22.4253 13.9844 22.689 13.6161 22.689H11.3839C11.0156 22.689 10.7143 22.4253 10.7143 22.103V20.1499ZM3.57143 13.8999C3.57143 13.5776 3.87277 13.314 4.24107 13.314H6.47321C6.84152 13.314 7.14286 13.5776 7.14286 13.8999V15.853C7.14286 16.1753 6.84152 16.439 6.47321 16.439H4.24107C3.87277 16.439 3.57143 16.1753 3.57143 15.853V13.8999ZM3.57143 20.1499C3.57143 19.8276 3.87277 19.564 4.24107 19.564H6.47321C6.84152 19.564 7.14286 19.8276 7.14286 20.1499V22.103C7.14286 22.4253 6.84152 22.689 6.47321 22.689H4.24107C3.87277 22.689 3.57143 22.4253 3.57143 22.103V20.1499ZM22.3214 3.93896H19.6429V1.59521C19.6429 1.16553 19.2411 0.813965 18.75 0.813965H16.9643C16.4732 0.813965 16.0714 1.16553 16.0714 1.59521V3.93896H8.92857V1.59521C8.92857 1.16553 8.52679 0.813965 8.03571 0.813965H6.25C5.75893 0.813965 5.35714 1.16553 5.35714 1.59521V3.93896H2.67857C1.19978 3.93896 0 4.98877 0 6.28271V8.62646H25V6.28271C25 4.98877 23.8002 3.93896 22.3214 3.93896Z" fill="black"/>
</svg>
