<svg width="25" height="25" viewBox="0 0 25 25" fill="none" xmlns="http://www.w3.org/2000/svg">
<path d="M24.375 21.875H21.25V5.53951C21.25 4.20846 20.409 3.12496 19.375 3.12496H15V6.24996H18.75V25H24.375C24.7203 25 25 24.6504 25 24.2187V22.6562C25 22.2246 24.7203 21.875 24.375 21.875ZM12.1969 0.0492689L4.69687 2.47798C4.14023 2.65816 3.75 3.30562 3.75 4.04879V21.875H0.625C0.279687 21.875 0 22.2246 0 22.6562V24.2187C0 24.6504 0.279687 25 0.625 25H13.75V1.62007C13.75 0.56636 12.9859 -0.206591 12.1969 0.0492689ZM10.3125 14.0625C9.79492 14.0625 9.375 13.3628 9.375 12.5C9.375 11.6372 9.79492 10.9375 10.3125 10.9375C10.8301 10.9375 11.25 11.6372 11.25 12.5C11.25 13.3628 10.8301 14.0625 10.3125 14.0625Z" fill="black"/>
</svg>
