<svg width="25" height="25" viewBox="0 0 25 25" fill="none" xmlns="http://www.w3.org/2000/svg">
<path d="M23.0339 11.7188L24.8154 9.49219C25.0615 9.18457 25.0615 8.68652 24.8154 8.37891L23.9247 7.26563C23.6786 6.95801 23.2801 6.95801 23.0339 7.26563L21.2525 9.49219L19.471 7.26563C19.2249 6.95801 18.8264 6.95801 18.5803 7.26563L17.6896 8.37891C17.4435 8.68652 17.4435 9.18457 17.6896 9.49219L19.471 11.7188L17.6896 13.9453C17.4435 14.2529 17.4435 14.751 17.6896 15.0586L18.5803 16.1719C18.8264 16.4795 19.2249 16.4795 19.471 16.1719L21.2525 13.9453L23.0339 16.1719C23.2801 16.4795 23.6786 16.4795 23.9247 16.1719L24.8154 15.0586C25.0615 14.751 25.0615 14.2529 24.8154 13.9453L23.0339 11.7188ZM8.75103 12.5C11.5131 12.5 13.7516 9.70215 13.7516 6.25C13.7516 2.79785 11.5131 0 8.75103 0C5.98898 0 3.75044 2.79785 3.75044 6.25C3.75044 9.70215 5.98898 12.5 8.75103 12.5ZM12.2514 14.0625H11.599C10.7317 14.5605 9.76677 14.8438 8.75103 14.8438C7.73528 14.8438 6.77423 14.5605 5.90304 14.0625H5.25062C2.35184 14.0625 0 17.002 0 20.625V22.6562C0 23.9502 0.839942 25 1.87522 25H15.6268C16.6621 25 17.5021 23.9502 17.5021 22.6562V20.625C17.5021 17.002 15.1502 14.0625 12.2514 14.0625Z" fill="black"/>
</svg>
