<svg width="25" height="25" viewBox="0 0 25 25" fill="none" xmlns="http://www.w3.org/2000/svg">
<path d="M16.9805 0H13.625C13.3125 0 13.0117 0.195242 12.7813 0.546677L8.94141 6.40393C8.9375 6.41043 8.93359 6.42345 8.92969 6.42996C8.28125 7.44522 8.29297 9.06572 8.84766 10.0745C9.34375 10.9791 10.3867 11.2199 11.0391 10.2502C11.043 10.2437 11.0508 10.2437 11.0547 10.2372L14.1758 5.47328C14.4297 5.0893 14.8281 5.11533 15.0586 5.53836C15.293 5.96138 15.2734 6.61869 15.0195 7.00918L14 8.5646L19.6875 16.2571C19.8008 16.4133 19.9023 16.5825 19.9961 16.7582V4.16516L17.8633 0.611757C17.6328 0.221274 17.3125 0 16.9805 0ZM21.25 4.17817V18.7497C21.25 19.9016 21.8086 20.8323 22.5 20.8323H25V4.17817H21.25ZM23.125 18.7497C22.7812 18.7497 22.5 18.2811 22.5 17.7084C22.5 17.1357 22.7812 16.6671 23.125 16.6671C23.4688 16.6671 23.75 17.1357 23.75 17.7084C23.75 18.2811 23.4688 18.7497 23.125 18.7497ZM0 20.8258H2.5C3.19141 20.8258 3.75 19.8951 3.75 18.7432V4.17817H0V20.8258ZM1.875 16.6671C2.21875 16.6671 2.5 17.1357 2.5 17.7084C2.5 18.2811 2.21875 18.7497 1.875 18.7497C1.53125 18.7497 1.25 18.2811 1.25 17.7084C1.25 17.1292 1.53125 16.6671 1.875 16.6671ZM18.9023 17.8776L13.0703 9.98987L11.8984 11.7796C10.7383 13.5433 8.96094 13.3741 7.92578 11.4932C6.875 9.57986 6.95703 6.61869 8.09766 4.87453L11.293 0H8.01953C7.6875 0 7.37109 0.221274 7.13672 0.611757L5 4.16516V18.7367H5.71484L9.25 24.0668C10.3203 25.5181 11.8945 25.2447 12.7656 23.4615L12.7734 23.4485L13.4727 24.4573C14.0937 25.3033 15.0117 25.1406 15.5156 24.1058L16.7422 21.5937L16.9531 21.8801C17.4883 22.6025 18.2773 22.4723 18.7109 21.5742L19.082 20.8128C19.5195 19.9147 19.4375 18.6065 18.9023 17.8776Z" fill="black"/>
</svg>
