<svg width="25" height="25" viewBox="0 0 25 25" fill="none" xmlns="http://www.w3.org/2000/svg">
<path d="M14.8439 21.4286H11.7189C11.5117 21.4286 11.313 21.5226 11.1665 21.6901C11.02 21.8575 10.9377 22.0846 10.9377 22.3214V24.1071C10.9377 24.3439 11.02 24.571 11.1665 24.7385C11.313 24.9059 11.5117 25 11.7189 25H14.8439C15.0511 25 15.2498 24.9059 15.3963 24.7385C15.5428 24.571 15.6251 24.3439 15.6251 24.1071V22.3214C15.6251 22.0846 15.5428 21.8575 15.3963 21.6901C15.2498 21.5226 15.0511 21.4286 14.8439 21.4286ZM0.781561 7.14286H3.12528V24.1071C3.12528 24.3439 3.20759 24.571 3.3541 24.7385C3.50061 24.9059 3.69932 25 3.90652 25H5.469C5.6762 25 5.87491 24.9059 6.02142 24.7385C6.16793 24.571 6.25024 24.3439 6.25024 24.1071V7.14286H8.59396C9.2878 7.14286 9.63789 6.1808 9.1462 5.61886L5.24 0.261719C5.0935 0.094402 4.89487 0.000413827 4.68776 0.000413827C4.48065 0.000413827 4.28202 0.094402 4.13552 0.261719L0.229322 5.61886C-0.260906 6.17969 0.0867455 7.14286 0.781561 7.14286ZM21.0938 7.14286H11.7189C11.5117 7.14286 11.313 7.23693 11.1665 7.40437C11.02 7.57181 10.9377 7.79891 10.9377 8.03571V9.82143C10.9377 10.0582 11.02 10.2853 11.1665 10.4528C11.313 10.6202 11.5117 10.7143 11.7189 10.7143H21.0938C21.301 10.7143 21.4997 10.6202 21.6462 10.4528C21.7927 10.2853 21.875 10.0582 21.875 9.82143V8.03571C21.875 7.79891 21.7927 7.57181 21.6462 7.40437C21.4997 7.23693 21.301 7.14286 21.0938 7.14286ZM17.9688 14.2857H11.7189C11.5117 14.2857 11.313 14.3798 11.1665 14.5472C11.02 14.7147 10.9377 14.9418 10.9377 15.1786V16.9643C10.9377 17.2011 11.02 17.4282 11.1665 17.5956C11.313 17.7631 11.5117 17.8571 11.7189 17.8571H17.9688C18.176 17.8571 18.3747 17.7631 18.5213 17.5956C18.6678 17.4282 18.7501 17.2011 18.7501 16.9643V15.1786C18.7501 14.9418 18.6678 14.7147 18.5213 14.5472C18.3747 14.3798 18.176 14.2857 17.9688 14.2857ZM24.2188 0H11.7189C11.5117 0 11.313 0.0940686 11.1665 0.261512C11.02 0.428955 10.9377 0.656057 10.9377 0.892857V2.67857C10.9377 2.91537 11.02 3.14247 11.1665 3.30992C11.313 3.47736 11.5117 3.57143 11.7189 3.57143H24.2188C24.426 3.57143 24.6247 3.47736 24.7712 3.30992C24.9177 3.14247 25 2.91537 25 2.67857V0.892857C25 0.656057 24.9177 0.428955 24.7712 0.261512C24.6247 0.0940686 24.426 0 24.2188 0Z" fill="black"/>
</svg>
