<svg width="25" height="25" viewBox="0 0 25 25" fill="none" xmlns="http://www.w3.org/2000/svg">
<path d="M25 12.5C25 19.4036 19.4036 25 12.5 25C5.59642 25 0 19.4036 0 12.5C0 5.59642 5.59642 0 12.5 0C19.4036 0 25 5.59642 25 12.5ZM22.5806 12.5L22.5805 12.4858L21.2668 13.632L18.1076 10.6834L18.9369 6.43165L20.6659 6.58649C19.4114 4.86189 17.6415 3.55781 15.5898 2.89995L16.2779 4.50978L12.5 6.60282L8.72213 4.50983L9.41018 2.9C7.36225 3.55665 5.59063 4.85917 4.33412 6.58654L6.07631 6.43165L6.89244 10.6834L3.73327 13.632L2.41956 12.4858L2.41941 12.5C2.41941 14.6681 3.0997 16.7315 4.35852 18.4471L4.74682 16.7386L9.03805 17.2652L10.8677 21.1879L9.36058 22.0843C11.3869 22.7457 13.6091 22.747 15.6394 22.0843L14.1323 21.1879L15.9619 17.2652L20.2532 16.7386L20.6415 18.4471C21.9004 16.7315 22.5806 14.6681 22.5806 12.5ZM10.0755 16.0066L8.56875 11.4042L12.5 8.55504L16.4313 11.4042L14.9382 16.0066H10.0755Z" fill="black"/>
</svg>
