<svg width="31" height="30" viewBox="0 0 31 30" fill="none" xmlns="http://www.w3.org/2000/svg">
<path d="M10.3236 1.14058C8.46618 1.89419 6.7785 2.99906 5.35698 4.39206L9.65593 8.62343C11.3177 6.9273 13.6291 5.8589 16.1821 5.8589C18.4586 5.8589 20.4971 6.6284 22.1034 8.12779V8.13846L26.4185 3.91C23.7688 1.49025 20.3152 6.97052e-07 16.1821 6.97052e-07C14.1718 -0.000599942 12.181 0.386977 10.3236 1.14058Z" fill="#DE4032"/>
<path d="M2.03894 20.741C2.80797 22.5611 3.93546 24.2149 5.35698 25.6079L10.3236 21.9805C8.30955 20.2876 7.02645 17.7578 7.02645 14.9909C7.02645 12.5427 8.03031 10.2827 9.65593 8.62343L5.35698 4.39206C3.93546 5.78506 2.80797 7.43888 2.03894 9.25904C1.2699 11.0792 0.874388 13.03 0.875001 15C0.874388 16.97 1.2699 18.9208 2.03894 20.741Z" fill="#EEB205"/>
<path d="M10.3236 28.8594C12.181 29.613 14.1718 30.0006 16.1821 30C19.2735 30 21.9996 29.2548 24.2378 27.9191L20.0224 23.4258C18.9062 23.8791 17.6158 24.1304 16.1821 24.1304C13.9552 24.1304 11.9121 23.3158 10.3236 21.9805L5.35698 25.6079C6.7785 27.0009 8.46618 28.1058 10.3236 28.8594Z" fill="#319F4F"/>
<path d="M30.875 15.3368C30.875 14.2412 30.7708 13.1913 30.5796 12.1871H16.1821V18.0369H24.5245C24.0843 20.4597 22.4738 22.43 20.0224 23.4258L24.2378 27.9191C28.3999 25.4353 30.875 20.9096 30.875 15.3368Z" fill="#3F7EE8"/>
</svg>
