<svg width="212" height="273" viewBox="0 0 212 273" fill="none" xmlns="http://www.w3.org/2000/svg">
<path d="M111.69 50.6554C124.317 53.3774 136.76 45.3478 139.482 32.7207C142.204 20.0936 134.174 7.65069 121.547 4.92867C108.92 2.20664 96.4771 10.2363 93.7551 22.8634C91.0331 35.4904 99.0627 47.9334 111.69 50.6554Z" fill="#140750"/>
<path d="M87.5056 62.2862C105.005 47.785 124.655 55.6049 143.983 63.5346L206.264 60.7475C212.013 61.1327 214.218 69.0674 207.718 71.9872L147.268 92.4397L67.4183 262.075C62.2204 272.309 47.0325 267.249 50.4784 255.364C56.5913 236.895 75.3923 168.876 75.3923 168.876C66.2045 166.152 65.535 155.527 67.4188 148.135C72.3884 130.375 80.2652 121.685 83.277 104.819C85.4018 92.9192 82.8704 79.2647 87.5056 62.2862Z" fill="#140750"/>
<path d="M83.6253 63.8053C73.6033 73.1388 71.6752 86.2498 67.9942 90.2198C64.3131 94.1899 61.1128 94.4628 44.2048 107.879C38.7457 112.06 43.0279 119.024 49.3095 116.732C49.3095 116.732 74.0436 105.262 77.4214 102.594C80.612 100.074 81.0201 98.3421 81.0201 98.3421C79.5434 80.2122 81.3082 73.7732 83.6253 63.8053Z" fill="#140750"/>
<path d="M116.544 165.749L172.429 131.316C180.182 125.333 173.71 117.75 168.127 120.225L132.112 133.78L116.544 165.749Z" fill="#140750"/>
<path d="M21.9699 268.213C34.1035 268.213 43.9397 258.376 43.9397 246.243C43.9397 234.109 34.1035 224.273 21.9699 224.273C9.83624 224.273 0 234.109 0 246.243C0 258.376 9.83624 268.213 21.9699 268.213Z" fill="#140750"/>
</svg>
