<svg width="25" height="25" viewBox="0 0 25 25" fill="none" xmlns="http://www.w3.org/2000/svg">
<path d="M12.3742 15.4228L12.3742 15.4227C11.6945 14.5207 10.4718 12.8324 9.42124 11.0344C8.89588 10.1352 8.41905 9.21789 8.07484 8.36423C7.72725 7.50217 7.53125 6.74431 7.53125 6.15234C7.53125 2.97355 9.80948 0.5 12.5 0.5C15.1905 0.5 17.4688 2.97355 17.4688 6.15234C17.4688 6.74431 17.2728 7.50217 16.9252 8.36423C16.5809 9.21789 16.1041 10.1352 15.5788 11.0344C14.5282 12.8324 13.3055 14.5207 12.6258 15.4227L12.6256 15.4231C12.5767 15.488 12.5284 15.4998 12.5002 15.4998C12.4718 15.4998 12.4233 15.488 12.3742 15.4228ZM1.07843 11.0004L0.87537 10.5491L1.07844 11.0004L5.72321 8.91034C5.92207 9.46596 6.16533 10.0342 6.44444 10.6097V21.5693L0.739407 24.4906C0.696821 24.5072 0.654566 24.5024 0.60809 24.467C0.554708 24.4264 0.5 24.3426 0.5 24.2178V11.9952C0.5 11.9952 0.5 11.9952 0.5 11.9951C0.500062 11.7704 0.560197 11.555 0.667311 11.377C0.774219 11.1994 0.91996 11.0717 1.07843 11.0004ZM23.9217 21.8121L23.9216 21.8121L18.5556 24.2267V11.2432L24.2606 8.32188C24.3032 8.3053 24.3454 8.31006 24.3919 8.34547C24.4453 8.38614 24.5 8.4699 24.5 8.59473V20.8174C24.5 21.0421 24.4399 21.2576 24.3328 21.4355C24.2259 21.6131 24.0801 21.7408 23.9217 21.8121ZM10.1771 6.15234C10.1771 7.50431 11.1632 8.70312 12.5 8.70312C13.8368 8.70312 14.8229 7.50431 14.8229 6.15234C14.8229 4.80038 13.8368 3.60156 12.5 3.60156C11.1632 3.60156 10.1771 4.80038 10.1771 6.15234ZM8.83333 14.6787C9.39251 15.5081 9.96578 16.3043 10.5159 17.0346C10.9981 17.6751 11.7185 18.062 12.5 18.062C13.2814 18.062 14.0018 17.6751 14.4839 17.0353C15.0344 16.3049 15.6076 15.5085 16.1667 14.6792V24.278L8.83333 21.528V14.6787Z" stroke="black"/>
</svg>
