<svg width="26" height="26" viewBox="0 0 26 26" fill="none" xmlns="http://www.w3.org/2000/svg">
<path d="M5.61807 18.2039C5.60049 17.186 5.42397 16.1815 5.09799 15.2446C3.01766 16.4316 1.48949 18.6714 0.967118 21.3144C1.27282 22.1703 1.71614 22.9424 2.27076 23.585C2.79818 21.3438 3.99208 19.4245 5.61807 18.2039ZM4.77265 14.441C4.4242 13.6991 3.98013 13.0308 3.45755 12.4616C1.37264 13.8559 0.140028 16.7424 0.593667 19.8025C1.3589 17.4759 2.84812 15.5469 4.77265 14.441ZM9.07077 19.0634C9.26781 16.2693 8.4453 13.5339 6.83694 11.6609C6.50015 11.6133 5.65473 11.5069 4.57103 11.8989C5.89693 13.5778 6.66105 15.8021 6.71322 18.1344C7.44337 18.6251 8.24362 18.9404 9.07077 19.0634ZM6.21376 19.3294C5.50114 19.8581 4.87753 20.5479 4.37629 21.362C6.255 22.9662 8.60339 23.4646 10.7341 22.7002C11.1924 21.9498 11.5214 21.0936 11.701 20.1833C11.0951 20.3719 10.4727 20.4697 9.84746 20.4745C8.59651 20.4717 7.35244 20.0797 6.21376 19.3294ZM3.9616 22.1207C3.61335 22.8486 3.37278 23.6438 3.22615 24.4781C4.24248 25.2404 5.42984 25.5909 6.61885 25.4798C7.80787 25.3687 8.9378 24.8016 9.84746 23.8593C7.2608 24.3101 5.18963 23.165 3.9616 22.1207ZM8.09247 12.0249C9.35945 13.9959 9.98264 16.538 9.80164 19.125C10.4996 19.1268 11.1934 18.9926 11.8568 18.7274C11.8568 18.6714 11.8636 18.6154 11.8636 18.5594C11.8636 15.5413 10.2896 12.9852 8.09247 12.0249Z" fill="black"/>
<path d="M12.097 0.502817C11.4381 0.549509 10.9203 0.675469 10.3703 0.920874C9.8641 1.14782 9.32753 1.52244 8.8963 1.94919C7.76512 3.07088 7.00177 4.75723 6.7991 6.58257C6.76071 6.93004 6.75 7.13853 6.75 7.54898C6.75 7.92904 6.75446 8.04305 6.78571 8.36338C6.84732 8.9997 6.97677 9.5524 7.21426 10.1898C7.89815 12.0271 9.26414 13.5147 10.798 14.0946C11.3622 14.3074 11.822 14.3867 12.5077 14.3888C12.8863 14.3899 13.0032 14.3802 13.3291 14.3237C14.0049 14.2064 14.6897 13.9197 15.2995 13.4984C15.8825 13.0956 16.3753 12.5928 16.8164 11.9522C16.8717 11.8718 16.9387 11.7741 16.9655 11.7361C17.0449 11.6231 17.1815 11.394 17.2726 11.2246C17.6601 10.5014 17.9342 9.61864 18.0467 8.73258C18.0993 8.32103 18.1136 8.07237 18.1136 7.61957C18.1145 7.00605 18.0681 6.51307 17.9574 5.94734C17.6137 4.19584 16.6816 2.55618 15.4718 1.57456C15.0906 1.26401 14.6299 0.991455 14.2085 0.824232C14.0165 0.747136 13.6094 0.635292 13.3559 0.589686C13.1782 0.55711 13.0925 0.545165 12.8871 0.522362C12.7497 0.50716 12.2158 0.49413 12.097 0.502817ZM12.9229 0.757995C13.2202 0.785141 13.6112 0.873096 13.9085 0.980597C14.0326 1.02512 14.2567 1.13045 14.4094 1.21514C14.7674 1.41603 14.9986 1.65166 15.1209 1.94159C15.17 2.05777 15.1692 2.08166 15.1147 2.2554C14.979 2.69083 14.7594 3.1154 14.4549 3.53129C14.3879 3.62359 14.3808 3.6301 14.3281 3.64748C14.2513 3.67245 14.1353 3.68765 13.9371 3.6996C13.8433 3.70611 13.7282 3.71589 13.6817 3.72132C13.4666 3.74846 12.9345 3.78538 12.655 3.79298L12.4006 3.7995L12.2577 3.61707C11.8113 3.04482 11.4122 2.50298 11.3319 2.35856C11.2587 2.22608 11.2355 2.06103 11.2658 1.89272C11.3221 1.58868 11.5872 1.21406 11.9586 0.914359C12.1506 0.760166 12.1533 0.759081 12.4229 0.747136C12.6032 0.738449 12.7523 0.742793 12.9229 0.757995ZM15.6227 2.29341C15.7004 2.31838 15.7879 2.36616 15.9361 2.46606C16.0102 2.51601 16.0905 2.56921 16.1155 2.58442C16.2325 2.65608 16.5735 3.07197 16.7851 3.40099C17.2253 4.08508 17.5494 4.95703 17.6842 5.82246C17.7154 6.019 17.7199 6.09827 17.7083 6.22532C17.6762 6.58691 17.5485 6.88769 17.1833 7.46754C17.0789 7.6326 17.0771 7.63585 17.028 7.65431L16.978 7.67277L16.8673 7.61196C16.2959 7.30032 15.7772 6.9409 15.3772 6.58148L15.2647 6.4805L15.2192 6.36214C15.0942 6.03746 14.9968 5.7041 14.8192 4.98635C14.7477 4.69968 14.6754 4.4141 14.6594 4.35112C14.6156 4.18715 14.6094 4.14589 14.6094 4.01016C14.6094 3.85053 14.6361 3.72349 14.7067 3.54541C14.7701 3.3847 14.8361 3.262 15.037 2.93515C15.1209 2.79833 15.2138 2.63437 15.245 2.57139C15.3513 2.35204 15.379 2.31295 15.4459 2.28798C15.487 2.27386 15.5665 2.27603 15.6227 2.29341ZM10.9623 2.36942C11.0864 2.39656 11.1988 2.48452 11.2765 2.61699C11.3131 2.67889 11.3854 2.78096 11.5301 2.97207C11.8372 3.38035 11.9577 3.57364 12.0479 3.80276C12.1202 3.98735 12.1443 4.09702 12.1524 4.27619C12.1577 4.39889 12.1568 4.40541 12.1283 4.50422C12.1131 4.56069 12.0631 4.73334 12.0193 4.88862C11.8568 5.4587 11.6899 6.0809 11.6453 6.27635L11.6238 6.37191L11.2622 6.61949C10.8605 6.89638 10.6016 7.06903 10.3739 7.21237C10.2909 7.26557 10.2025 7.32747 10.1775 7.35136C10.073 7.45234 9.93374 7.50881 9.82482 7.49469C9.75875 7.486 9.66233 7.44691 9.59626 7.40131C9.4677 7.31227 9.26414 7.08641 9.01505 6.75522C8.6981 6.33282 8.59632 6.15039 8.54543 5.90933L8.52668 5.81812L8.54632 5.74428C8.55704 5.7041 8.61686 5.48041 8.67846 5.24804C8.74006 5.01567 8.81238 4.75506 8.83827 4.6671C9.07844 3.86248 9.32039 3.38361 9.66233 3.03614C9.78643 2.91126 9.87571 2.84285 10.1141 2.69192C10.4864 2.45629 10.6346 2.38679 10.8203 2.36073C10.8721 2.35313 10.8926 2.35421 10.9623 2.36942ZM8.81774 2.8005C8.95701 2.8852 9.05522 3.06003 9.08379 3.2772L9.09451 3.35972L9.03469 3.49111C8.71953 4.19041 8.43115 5.14163 8.27134 6.01792C8.23384 6.22097 8.16331 6.35671 7.941 6.65315C7.87672 6.74002 7.8044 6.83992 7.78208 6.87575C7.75887 6.91158 7.67762 7.03103 7.60084 7.14179C7.51335 7.26883 7.44907 7.37199 7.42764 7.42085C7.40978 7.46429 7.37853 7.52184 7.35979 7.5479C7.32229 7.59893 7.2464 7.65214 7.21069 7.65214C7.16694 7.65214 7.11694 7.625 7.08034 7.58156C6.9982 7.48492 6.96606 7.32964 6.98391 7.12441C6.98927 7.05926 6.99641 6.95176 6.99909 6.88661C7.00624 6.72373 7.01873 6.58039 7.04463 6.38277C7.1848 5.31971 7.57942 4.27076 8.24902 3.17838C8.28384 3.12192 8.3258 3.04699 8.34276 3.01225C8.39812 2.9004 8.48383 2.81028 8.57311 2.76901C8.59364 2.76033 8.63382 2.75598 8.67846 2.75707C8.74096 2.76033 8.75881 2.76576 8.81774 2.8005ZM11.839 6.84752C12.1675 7.02017 12.4898 7.28186 12.8336 7.65214C12.9479 7.77484 13.2086 8.06803 13.2461 8.11581L13.2791 8.15707L13.2389 8.53712C13.1514 9.38409 13.0764 9.94874 12.9845 10.4537C12.9354 10.7197 12.9023 10.7957 12.763 10.964C12.6122 11.1454 12.4372 11.267 12.1193 11.4114C11.6399 11.6286 11.5194 11.6698 11.3747 11.6698C11.2355 11.6698 11.0185 11.5982 10.856 11.4983C10.6962 11.4016 10.5516 11.2844 10.2302 10.9912C10.1114 10.8837 9.98195 10.7664 9.94089 10.7306C9.80072 10.6068 9.67126 10.4168 9.58555 10.2094C9.50252 10.0074 9.4677 9.84016 9.46145 9.6067C9.45609 9.43187 9.46591 9.31134 9.49805 9.13977C9.51055 9.07679 9.52484 8.96712 9.5302 8.89546C9.58019 8.25154 9.79893 7.79222 10.1596 7.57287C10.1944 7.55224 10.2578 7.51967 10.3016 7.50121C10.4025 7.45777 10.4917 7.40674 10.6551 7.29924C11.1024 7.00497 11.2212 6.93656 11.4051 6.87141C11.5078 6.83449 11.6319 6.80734 11.7095 6.80625C11.7488 6.80517 11.7756 6.81386 11.839 6.84752ZM15.4513 6.98216C16.0923 7.36222 16.4709 7.64237 16.8226 7.99527L16.9164 8.08866L16.9101 8.15598C16.9074 8.19182 16.8949 8.37098 16.8824 8.55341C16.836 9.24945 16.8119 9.48942 16.7566 9.80215C16.7182 10.0193 16.62 10.2115 16.4316 10.4439C16.2628 10.6513 16.153 10.7501 15.6352 11.1649C15.5307 11.2485 15.3968 11.3615 15.3379 11.4147C15.0968 11.6351 14.9227 11.7491 14.7861 11.7773C14.729 11.7893 14.7192 11.7882 14.6245 11.7578C14.2192 11.6264 13.7942 11.3636 13.3068 10.9445C13.2023 10.8544 13.1639 10.8153 13.1639 10.799C13.1639 10.7621 13.2077 10.3668 13.2407 10.1008C13.2791 9.79455 13.4219 8.74778 13.4273 8.73801C13.4291 8.73366 13.4416 8.63593 13.4541 8.51975C13.496 8.13318 13.513 8.09192 13.7219 7.90189C13.7764 7.85194 13.9023 7.73032 14.0031 7.63151C14.2433 7.39479 14.3531 7.29164 14.4674 7.19825C14.7326 6.98216 14.9593 6.87141 15.1968 6.83883C15.2022 6.83883 15.3174 6.9029 15.4513 6.98216ZM7.17676 7.99093C7.17944 8.00505 7.19105 8.09626 7.20444 8.19507C7.27854 8.76189 7.42853 9.38518 7.62941 9.9596C7.69816 10.1583 7.87672 10.6003 7.916 10.6676C7.98475 10.7903 8.0035 10.9673 7.96779 11.1638C7.95797 11.217 7.94904 11.2626 7.94725 11.2648C7.94279 11.2702 7.7303 10.837 7.63745 10.6339C7.5321 10.4037 7.38121 10.0215 7.31336 9.81301C7.22497 9.54263 7.08748 8.96929 7.03748 8.66199C7.02141 8.5621 7.01695 8.5002 7.01695 8.35252C7.01695 8.17553 7.01784 8.16576 7.04016 8.1082C7.06784 8.03871 7.09373 8.00288 7.13212 7.98224C7.16962 7.9627 7.1723 7.96378 7.17676 7.99093ZM17.1708 10.3635C17.2565 10.4124 17.2726 10.5666 17.2128 10.7631C17.1735 10.8924 17.1324 10.976 16.9324 11.3386C16.6057 11.9315 16.1423 12.4777 15.579 12.937C15.2084 13.2378 14.7094 13.556 14.4853 13.6331C14.4112 13.6581 14.3835 13.6613 14.271 13.6624C14.1549 13.6624 14.1371 13.6602 14.0978 13.6374C14.0344 13.6027 13.9978 13.5658 13.971 13.5104L13.9478 13.4626L14.0442 13.291C14.3219 12.7959 14.4799 12.5483 14.6853 12.292C14.8352 12.1031 14.9218 12.0162 15.0522 11.9185C15.295 11.7393 15.5165 11.5536 16.0387 11.0943C16.4468 10.7349 16.5423 10.6535 16.745 10.4895C16.8851 10.3766 16.8976 10.3679 16.9592 10.3559C16.9958 10.3494 17.0315 10.3418 17.0387 10.3397C17.0637 10.3331 17.1414 10.3473 17.1708 10.3635ZM9.25789 10.4374C9.35431 10.4526 9.39717 10.4754 9.50341 10.5709C9.63912 10.6936 9.77482 10.8229 9.98106 11.0292C10.4569 11.5048 10.6498 11.6764 10.9069 11.8533C11.006 11.9218 11.0212 11.937 11.0631 12.0032C11.2122 12.2453 11.3363 12.5689 11.389 12.8599C11.4042 12.9425 11.4087 13.0044 11.4087 13.1303C11.4096 13.3214 11.3935 13.404 11.3337 13.5136C11.2988 13.5766 11.2953 13.5799 11.2328 13.6027C11.073 13.6624 10.9007 13.6895 10.6819 13.6895H10.5409L10.4176 13.6396C9.85071 13.4116 9.27932 12.9881 8.74453 12.3985C8.549 12.1824 8.39455 11.9989 8.36151 11.9413C8.28295 11.8045 8.22938 11.634 8.20349 11.4364C8.19545 11.3691 8.18742 11.2192 8.18474 11.0444L8.17938 10.761L8.22313 10.7479C8.24634 10.7403 8.33294 10.7056 8.41419 10.6687C8.85256 10.4754 8.92934 10.4472 9.06594 10.432C9.14093 10.4244 9.17129 10.4244 9.25789 10.4374ZM12.8113 13.7004C12.9479 13.7145 13.097 13.7373 13.2666 13.7699C13.3407 13.7851 13.4326 13.8025 13.4719 13.809C13.6184 13.8361 13.7085 13.8872 13.696 13.936C13.6853 13.9762 13.5934 14.0142 13.4585 14.0359C13.4219 14.0414 13.3371 14.0566 13.271 14.0685C13.205 14.0815 13.0478 14.1033 12.9229 14.1185C12.205 14.2053 11.6836 14.1499 11.3024 13.9447C11.239 13.91 11.2381 13.9111 11.3828 13.8589C11.6497 13.7634 11.889 13.7156 12.2533 13.6852C12.3318 13.6787 12.6943 13.6885 12.8113 13.7004Z" fill="black"/>
<path d="M19.0003 11.6755C17.9968 11.8519 17.0254 12.3503 16.2006 13.182L17.9739 15.3493C18.6108 14.3469 18.9659 13.0756 19.0003 11.6755ZM19.8182 17.6035L23.4357 13.182C22.4643 12.2019 21.2913 11.6839 20.1023 11.6111C20.0748 13.4004 19.6097 15.0357 18.7574 16.307L19.8182 17.6035ZM15.4216 14.134C14.7412 15.1421 14.3334 16.3294 14.189 17.5559C15.3346 17.5139 16.377 17.0798 17.1949 16.3014L15.4216 14.134ZM21.6579 19.852C22.6957 18.8131 24.0337 18.2447 25.5 18.2083C25.4404 16.755 25.0166 15.3213 24.2147 14.134L20.5971 18.5555L21.6579 19.852ZM19.8182 19.5076L16.2006 23.9291C17.172 24.9063 18.345 25.4272 19.5341 25.5C19.5639 23.7079 20.0289 22.0726 20.8789 20.8041L19.8182 19.5076ZM24.2147 22.977C24.8952 21.9689 25.303 20.7817 25.4473 19.5552C24.2995 19.6 23.2593 20.034 22.4414 20.8097L24.2147 22.977ZM17.9785 17.259C16.9383 18.3007 15.6003 18.8719 14.1364 18.9028C14.1959 20.356 14.6198 21.7897 15.4216 22.977L19.0392 18.5555L17.9785 17.259ZM20.6361 25.4356C21.6396 25.2592 22.611 24.7607 23.4357 23.9291L21.6625 21.7617C21.0278 22.7614 20.6727 24.0355 20.6361 25.4356Z" fill="black"/>
</svg>
