<svg width="40" height="90" viewBox="0 0 40 90" fill="none" xmlns="http://www.w3.org/2000/svg">
<path d="M17.8285 0.0463486C22.2657 0.412216 26.2973 2.53883 29.7484 6.31946C34.7422 11.7846 37.3266 18.2788 38.3524 27.9285C38.5274 29.5292 38.5512 34.1178 38.4001 35.8557C38.0741 39.5296 37.589 42.8834 36.5155 48.7373C36.277 50.0331 36.0145 51.3136 35.9271 51.5804C35.7283 52.2054 35.442 52.5865 35.0206 52.8228C34.7104 52.9981 34.615 53.0057 33.4938 52.9981C32.7543 52.9981 31.5615 52.9143 30.3528 52.7847C24.85 52.1978 23.2279 52.0758 17.3514 51.7786C13.8764 51.6109 10.2424 51.5346 10.0833 51.6261C9.97994 51.6871 7.66593 51.5346 7.36376 51.4432C6.75146 51.2755 6.45724 50.8105 6.13916 49.5071C5.28831 46.0619 3.46732 37.9518 2.96635 35.3983C1.99621 30.4286 1.59066 26.9986 1.51115 22.9741C1.36801 15.5195 2.60056 10.1687 5.40759 6.1289C7.5387 3.05714 10.1867 1.12109 13.28 0.374107C14.6477 0.0463486 16.3574 -0.0756073 17.8285 0.0463486Z" fill="black"/>
<path d="M13.6122 63.0383C14.2213 63.0774 16.9246 63.2808 19.6278 63.492C22.331 63.711 25.2399 63.9222 26.1003 63.9691C26.9608 64.0082 28.3771 64.0864 29.2604 64.1255C32.2911 64.282 32.9993 64.4697 33.3876 65.244C33.5399 65.5569 33.5399 66.2921 33.3724 66.9413C32.9993 68.4353 31.3545 73.7384 30.6311 75.7799C28.0573 83.054 25.4074 87.0978 22.0797 88.8656C18.2648 90.8914 13.8025 90.164 10.6805 87.004C8.89103 85.1972 7.46707 82.4752 6.88835 79.7611C6.58376 78.3454 6.5 77.4928 6.5 75.7799V74.1764L7.50514 69.1705C8.16763 65.8698 8.57121 64.0473 8.68543 63.8127C8.93671 63.2886 9.14993 63.1947 10.3835 63.1087C12.1958 62.9836 12.4776 62.9757 13.6122 63.0383Z" fill="black"/>
</svg>
