<svg width="40" height="90" viewBox="0 0 40 90" fill="none" xmlns="http://www.w3.org/2000/svg">
<path d="M22.3476 0.0463486C17.5506 0.412216 13.1921 2.53883 9.46116 6.31946C4.06244 11.7846 1.26852 18.2788 0.159552 27.9285C-0.029575 29.5292 -0.055365 34.1178 0.107972 35.8557C0.460436 39.5296 0.984833 42.8834 2.14538 48.7373C2.40328 50.0331 2.68697 51.3136 2.78154 51.5804C2.99646 52.2054 3.30594 52.5865 3.76156 52.8228C4.09683 52.9981 4.19999 53.0057 5.41212 52.9981C6.21161 52.9981 7.50111 52.9143 8.80781 52.7847C14.7567 52.1978 16.5104 52.0758 22.8634 51.7786C26.6201 51.6109 30.5488 51.5346 30.7207 51.6261C30.8325 51.6871 33.3341 51.5346 33.6608 51.4432C34.3227 51.2755 34.6408 50.8105 34.9847 49.5071C35.9045 46.0619 37.8732 37.9518 38.4148 35.3983C39.4636 30.4286 39.902 26.9986 39.988 22.9741C40.1427 15.5195 38.8102 10.1687 35.7756 6.1289C33.4717 3.05714 30.609 1.12109 27.2649 0.374107C25.7862 0.0463486 23.938 -0.0756073 22.3476 0.0463486Z" fill="black"/>
<path d="M27.0976 63.0383C26.4207 63.0774 23.4171 63.2808 20.4136 63.492C17.41 63.711 14.1779 63.9222 13.2219 63.9691C12.2658 64.0082 10.6921 64.0864 9.71063 64.1255C6.34323 64.282 5.55637 64.4697 5.12487 65.244C4.95566 65.5569 4.95566 66.2921 5.14179 66.9413C5.55637 68.4353 7.38391 73.7384 8.18769 75.7799C11.0474 83.054 13.9918 87.0978 17.6892 88.8656C21.928 90.8914 26.8861 90.164 30.355 87.004C32.3433 85.1972 33.9255 82.4752 34.5685 79.7611C34.9069 78.3454 35 77.4928 35 75.7799V74.1764L33.8832 69.1705C33.1471 65.8698 32.6987 64.0473 32.5717 63.8127C32.2925 63.2886 32.0556 63.1947 30.685 63.1087C28.6713 62.9836 28.3583 62.9757 27.0976 63.0383Z" fill="black"/>
</svg>
