<svg width="40" height="40" viewBox="0 0 40 40" fill="none" xmlns="http://www.w3.org/2000/svg">
<rect x="-0.0032959" width="40" height="40" rx="20" fill="#04D361"/>
<path d="M15.9855 10.6581C14.3262 11.4676 13.1121 13.2082 11.9385 16.2844C11.0482 18.7131 9.75312 25.5133 10.0364 26.2824C10.1578 26.5657 12.1004 27.5777 14.3667 28.5086C17.928 30.0063 18.6565 30.1682 20.1539 29.8849C21.7322 29.6015 21.9345 29.3991 23.0677 27.0514C24.0794 24.9466 24.6055 24.3395 26.1029 23.6109C29.2596 22.0322 30.8379 17.7416 29.5429 14.463C28.6525 12.2367 27.7217 11.7105 22.9463 10.739C18.009 9.76758 17.7661 9.76758 15.9855 10.6581ZM21.2466 11.9534C25.3745 12.8843 25.0912 12.6415 23.7152 13.8153C21.6512 15.5559 19.5873 21.0203 18.9398 26.5657C18.7779 27.9824 18.5351 28.5491 18.1708 28.3872C15.4998 27.3753 11.5338 25.5943 11.5338 25.4323C11.5338 24.3395 13.3145 16.8916 13.9215 15.5154C15.4998 11.8724 17.1186 11.0629 21.2466 11.9534Z" fill="#140750"/>
<path d="M14.558 16.2364C14.363 16.4106 14.2167 17.1655 14.2167 17.8623C14.2167 18.8495 14.6556 19.314 16.2161 19.8366C17.3377 20.2431 18.508 20.7076 18.8494 20.8238C19.1908 20.998 19.5809 20.5334 19.7759 19.6624C19.9222 18.8495 20.1173 17.9785 20.2148 17.8043C20.2636 17.572 19.3371 17.0494 18.1179 16.6429C15.6309 15.7138 14.9969 15.6558 14.558 16.2364Z" fill="#140750"/>
</svg>
