<svg width="320" height="520" viewBox="0 0 320 520" fill="none" xmlns="http://www.w3.org/2000/svg">
<rect width="320" height="520" rx="10" fill="#1F7BF2"/>
<rect x="11.5" y="11.5" width="297" height="497" stroke="white" stroke-width="3"/>
<path d="M160 128.5C124.54 128.5 90.5633 115.977 65.5371 93.7314C40.9158 71.8458 26.95 42.3262 26.5107 11.5L293.488 11.5C293.049 42.3262 279.084 71.8458 254.463 93.7314C229.437 115.977 195.46 128.5 160 128.5Z" fill="#EB3D0B" stroke="white" stroke-width="3"/>
<path d="M201.473 11.5L200.026 93.5H119.5V11.5H201.473Z" fill="#F44336" stroke="white" stroke-width="3"/>
<mask id="path-5-inside-1_2276_9347" fill="white">
<path d="M190 92C190 99.9565 186.839 107.587 181.213 113.213C175.587 118.839 167.956 122 160 122C152.044 122 144.413 118.839 138.787 113.213C133.161 107.587 130 99.9565 130 92L160 92H190Z"/>
</mask>
<path d="M190 92C190 99.9565 186.839 107.587 181.213 113.213C175.587 118.839 167.956 122 160 122C152.044 122 144.413 118.839 138.787 113.213C133.161 107.587 130 99.9565 130 92L160 92H190Z" fill="#F44336" stroke="white" stroke-width="6" mask="url(#path-5-inside-1_2276_9347)"/>
<circle cx="160" cy="260" r="48.5" fill="#F44336" stroke="white" stroke-width="3"/>
<line x1="10" y1="259" x2="310" y2="259" stroke="white" stroke-width="3"/>
<path d="M160 391.5C195.46 391.5 229.437 404.023 254.463 426.269C279.084 448.154 293.05 477.674 293.489 508.5H26.5117C26.951 477.674 40.9158 448.154 65.5371 426.269C90.5633 404.023 124.54 391.5 160 391.5Z" fill="#EB3D0B" stroke="white" stroke-width="3"/>
<rect x="119.5" y="426.5" width="82" height="82" fill="#F44336" stroke="white" stroke-width="3"/>
<mask id="path-10-inside-2_2276_9347" fill="white">
<path d="M190 428C190 424.06 189.224 420.159 187.716 416.519C186.209 412.88 183.999 409.573 181.213 406.787C178.427 404.001 175.12 401.791 171.481 400.284C167.841 398.776 163.94 398 160 398C156.06 398 152.159 398.776 148.519 400.284C144.88 401.791 141.573 404.001 138.787 406.787C136.001 409.573 133.791 412.88 132.284 416.519C130.776 420.159 130 424.06 130 428L160 428H190Z"/>
</mask>
<path d="M190 428C190 424.06 189.224 420.159 187.716 416.519C186.209 412.88 183.999 409.573 181.213 406.787C178.427 404.001 175.12 401.791 171.481 400.284C167.841 398.776 163.94 398 160 398C156.06 398 152.159 398.776 148.519 400.284C144.88 401.791 141.573 404.001 138.787 406.787C136.001 409.573 133.791 412.88 132.284 416.519C130.776 420.159 130 424.06 130 428L160 428H190Z" fill="#F44336" stroke="white" stroke-width="6" mask="url(#path-10-inside-2_2276_9347)"/>
</svg>
