<svg width="420" height="820" viewBox="0 0 420 820" fill="none" xmlns="http://www.w3.org/2000/svg">
<rect width="420" height="820" rx="10" fill="#1F7BF2"/>
<rect x="11.5" y="11.5" width="397" height="797" fill="#1F7BF2"/>
<rect x="11.5" y="11.5" width="397" height="797" stroke="white" stroke-width="3"/>
<path d="M210 178.5C163.971 178.5 119.836 160.737 87.3018 129.132C55.1331 97.8823 36.9138 55.633 36.5098 11.5L383.49 11.5C383.086 55.633 364.867 97.8823 332.698 129.132C300.164 160.737 256.029 178.5 210 178.5Z" fill="#EB3D0B" stroke="white" stroke-width="3"/>
<path d="M261.478 11.5L259.669 133.5H159.5V11.5H261.478Z" fill="#F44336" stroke="white" stroke-width="3"/>
<mask id="path-5-inside-1_2276_9361" fill="white">
<path d="M250 132C250 142.609 245.786 152.783 238.284 160.284C230.783 167.786 220.609 172 210 172C199.391 172 189.217 167.786 181.716 160.284C174.214 152.783 170 142.609 170 132L210 132H250Z"/>
</mask>
<path d="M250 132C250 142.609 245.786 152.783 238.284 160.284C230.783 167.786 220.609 172 210 172C199.391 172 189.217 167.786 181.716 160.284C174.214 152.783 170 142.609 170 132L210 132H250Z" fill="#F44336" stroke="white" stroke-width="6" mask="url(#path-5-inside-1_2276_9361)"/>
<circle cx="210" cy="411" r="58.5" fill="#F44336" stroke="white" stroke-width="3"/>
<line x1="10" y1="409.5" x2="410" y2="409.5" stroke="white" stroke-width="3"/>
<path d="M210 641.5C256.029 641.5 300.164 659.263 332.698 690.868C364.867 722.118 383.086 764.367 383.49 808.5H36.5098C36.9138 764.367 55.1331 722.118 87.3018 690.868C119.836 659.263 163.971 641.5 210 641.5Z" fill="#EB3D0B" stroke="white" stroke-width="3"/>
<rect x="159.5" y="684.5" width="102" height="122" fill="#F44336" stroke="white" stroke-width="3"/>
<mask id="path-10-inside-2_2276_9361" fill="white">
<path d="M250 686C250 680.747 248.965 675.546 246.955 670.693C244.945 665.84 241.999 661.43 238.284 657.716C234.57 654.001 230.16 651.055 225.307 649.045C220.454 647.035 215.253 646 210 646C204.747 646 199.546 647.035 194.693 649.045C189.84 651.055 185.43 654.001 181.716 657.716C178.001 661.43 175.055 665.84 173.045 670.693C171.035 675.546 170 680.747 170 686L210 686H250Z"/>
</mask>
<path d="M250 686C250 680.747 248.965 675.546 246.955 670.693C244.945 665.84 241.999 661.43 238.284 657.716C234.57 654.001 230.16 651.055 225.307 649.045C220.454 647.035 215.253 646 210 646C204.747 646 199.546 647.035 194.693 649.045C189.84 651.055 185.43 654.001 181.716 657.716C178.001 661.43 175.055 665.84 173.045 670.693C171.035 675.546 170 680.747 170 686L210 686H250Z" fill="#F44336" stroke="white" stroke-width="6" mask="url(#path-10-inside-2_2276_9361)"/>
</svg>
