<svg width="400" height="800" viewBox="0 0 400 800" fill="none" xmlns="http://www.w3.org/2000/svg">
<rect x="1.5" y="1.5" width="397" height="797" stroke="white" stroke-width="3"/>
<rect x="105.696" y="1.5" width="188.608" height="77.7087" stroke="white" stroke-width="3"/>
<ellipse cx="201.003" cy="78.6732" rx="3.51115" ry="3.44488" fill="white"/>
<line x1="149.998" y1="195.022" x2="250.003" y2="195.022" stroke="white" stroke-width="3"/>
<line y1="398.5" x2="400" y2="398.5" stroke="white" stroke-width="3"/>
<ellipse cx="199.511" cy="399.445" rx="3.51115" ry="3.44488" fill="white"/>
<path d="M200.191 341.5C232.632 341.5 258.882 367.295 258.882 399.055C258.882 430.815 232.633 456.61 200.191 456.61C167.75 456.61 141.5 430.815 141.5 399.055C141.5 367.295 167.75 341.5 200.191 341.5Z" stroke="white" stroke-width="3"/>
<line x1="149.998" y1="600.994" x2="250.003" y2="600.994" stroke="white" stroke-width="3"/>
<rect x="105.194" y="720.791" width="189.611" height="77.7087" stroke="white" stroke-width="3"/>
<ellipse cx="200.501" cy="720.343" rx="3.51115" ry="3.44488" fill="white"/>
</svg>
