<svg width="400" height="800" viewBox="0 0 400 800" fill="none" xmlns="http://www.w3.org/2000/svg">
<rect x="1.5" y="1.5" width="397" height="797" stroke="white" stroke-width="3"/>
<rect x="105.696" y="1.5" width="188.608" height="77.7087" stroke="white" stroke-width="3"/>
<rect x="156.858" y="1.5" width="87.2866" height="29.4803" stroke="white" stroke-width="3"/>
<ellipse cx="201.003" cy="51.6732" rx="3.51115" ry="3.44488" fill="white"/>
<mask id="path-5-inside-1_2187_7684" fill="white">
<path d="M247.651 77.7558C247.651 81.6334 246.484 85.4731 244.215 89.0555C241.946 92.638 238.621 95.8931 234.429 98.635C230.237 101.377 225.261 103.552 219.783 105.036C214.306 106.52 208.436 107.283 202.508 107.283C196.58 107.283 190.709 106.52 185.232 105.036C179.755 103.552 174.779 101.377 170.587 98.635C166.395 95.8931 163.07 92.638 160.801 89.0555C158.532 85.4731 157.365 81.6334 157.365 77.7558L202.508 77.7558H247.651Z"/>
</mask>
<path d="M247.651 77.7558C247.651 81.6334 246.484 85.4731 244.215 89.0555C241.946 92.638 238.621 95.8931 234.429 98.635C230.237 101.377 225.261 103.552 219.783 105.036C214.306 106.52 208.436 107.283 202.508 107.283C196.58 107.283 190.709 106.52 185.232 105.036C179.755 103.552 174.779 101.377 170.587 98.635C166.395 95.8931 163.07 92.638 160.801 89.0555C158.532 85.4731 157.365 81.6334 157.365 77.7558L202.508 77.7558H247.651Z" stroke="white" stroke-width="6" mask="url(#path-5-inside-1_2187_7684)"/>
<line y1="398.858" x2="400" y2="398.858" stroke="white" stroke-width="3"/>
<ellipse cx="199.511" cy="399.803" rx="3.51115" ry="3.44488" fill="white"/>
<path d="M200.191 341.858C232.632 341.858 258.882 367.653 258.882 399.413C258.882 431.173 232.633 456.968 200.191 456.969C167.75 456.969 141.5 431.173 141.5 399.413C141.5 367.653 167.75 341.858 200.191 341.858Z" stroke="white" stroke-width="3"/>
<rect x="105.194" y="720.791" width="189.611" height="77.7087" stroke="white" stroke-width="3"/>
<rect x="156.357" y="769.02" width="87.2866" height="29.4803" stroke="white" stroke-width="3"/>
<ellipse cx="200.501" cy="747.343" rx="3.51115" ry="3.44488" fill="white"/>
<mask id="path-12-inside-2_2187_7684" fill="white">
<path d="M247.15 722.244C247.15 718.366 245.982 714.527 243.713 710.944C241.445 707.362 238.119 704.107 233.927 701.365C229.735 698.623 224.759 696.448 219.282 694.964C213.805 693.48 207.935 692.717 202.006 692.717C196.078 692.717 190.208 693.48 184.731 694.964C179.254 696.448 174.277 698.623 170.085 701.365C165.893 704.107 162.568 707.362 160.299 710.944C158.031 714.527 156.863 718.367 156.863 722.244L202.006 722.244H247.15Z"/>
</mask>
<path d="M247.15 722.244C247.15 718.366 245.982 714.527 243.713 710.944C241.445 707.362 238.119 704.107 233.927 701.365C229.735 698.623 224.759 696.448 219.282 694.964C213.805 693.48 207.935 692.717 202.006 692.717C196.078 692.717 190.208 693.48 184.731 694.964C179.254 696.448 174.277 698.623 170.085 701.365C165.893 704.107 162.568 707.362 160.299 710.944C158.031 714.527 156.863 718.367 156.863 722.244L202.006 722.244H247.15Z" stroke="white" stroke-width="6" mask="url(#path-12-inside-2_2187_7684)"/>
</svg>
