<svg width="320" height="520" viewBox="0 0 320 520" fill="none" xmlns="http://www.w3.org/2000/svg">
<rect width="320" height="520" rx="10" fill="#04D361"/>
<rect width="300" height="40" transform="translate(10 10)" fill="#03983E" fill-opacity="0.5"/>
<rect width="300" height="40" transform="translate(10 86.6666)" fill="#03983E" fill-opacity="0.5"/>
<rect width="300" height="40" transform="translate(10 163.333)" fill="#03983E" fill-opacity="0.5"/>
<rect width="300" height="40" transform="translate(10 240)" fill="#03983E" fill-opacity="0.5"/>
<rect width="300" height="40" transform="translate(10 316.667)" fill="#03983E" fill-opacity="0.5"/>
<rect width="300" height="40" transform="translate(10 393.333)" fill="#03983E" fill-opacity="0.5"/>
<rect width="300" height="40" transform="translate(10 470)" fill="#03983E" fill-opacity="0.5"/>
<rect x="11.5" y="11.5" width="297" height="497" stroke="white" stroke-width="3"/>
<rect x="86.5" y="11.5" width="147" height="59.8541" stroke="white" stroke-width="3"/>
<rect x="126.552" y="11.5" width="67.6806" height="22.2949" stroke="white" stroke-width="3"/>
<ellipse cx="160.785" cy="50.242" rx="2.74869" ry="2.6828" fill="white"/>
<mask id="path-6-inside-1_2188_195" fill="white">
<path d="M197.304 70.5546C197.304 73.5744 196.39 76.5646 194.613 79.3546C192.837 82.1445 190.234 84.6795 186.953 86.8148C183.671 88.9501 179.775 90.644 175.487 91.7996C171.2 92.9552 166.604 93.55 161.963 93.55C157.322 93.55 152.727 92.9552 148.439 91.7996C144.151 90.644 140.256 88.9501 136.974 86.8148C133.692 84.6795 131.089 82.1445 129.313 79.3546C127.537 76.5646 126.623 73.5744 126.623 70.5546L161.963 70.5546H197.304Z"/>
</mask>
<path d="M197.304 70.5546C197.304 73.5744 196.39 76.5646 194.613 79.3546C192.837 82.1445 190.234 84.6795 186.953 86.8148C183.671 88.9501 179.775 90.644 175.487 91.7996C171.2 92.9552 166.604 93.55 161.963 93.55C157.322 93.55 152.727 92.9552 148.439 91.7996C144.151 90.644 140.256 88.9501 136.974 86.8148C133.692 84.6795 131.089 82.1445 129.313 79.3546C127.537 76.5646 126.623 73.5744 126.623 70.5546L161.963 70.5546H197.304Z" stroke="white" stroke-width="6" mask="url(#path-6-inside-1_2188_195)"/>
<line x1="10" y1="258.5" x2="310" y2="258.5" stroke="white" stroke-width="3"/>
<ellipse cx="159.511" cy="258.445" rx="3.51115" ry="3.44488" fill="white"/>
<circle cx="160" cy="259.267" r="48.5" stroke="white" stroke-width="3"/>
<rect x="86.5" y="448.646" width="147" height="59.8535" stroke="white" stroke-width="3"/>
<rect x="126.344" y="486.205" width="67.3125" height="22.2947" stroke="white" stroke-width="3"/>
<ellipse cx="160.39" cy="468.992" rx="2.73438" ry="2.68277" fill="white"/>
<mask id="path-13-inside-2_2188_195" fill="white">
<path d="M196.719 449.446C196.719 446.426 195.809 443.436 194.043 440.646C192.276 437.856 189.686 435.321 186.422 433.186C183.157 431.051 179.281 429.357 175.016 428.201C170.751 427.045 166.179 426.451 161.562 426.451C156.946 426.451 152.374 427.045 148.109 428.201C143.843 429.357 139.968 431.051 136.703 433.186C133.439 435.321 130.849 437.856 129.082 440.646C127.315 443.436 126.406 446.426 126.406 449.446L161.562 449.446H196.719Z"/>
</mask>
<path d="M196.719 449.446C196.719 446.426 195.809 443.436 194.043 440.646C192.276 437.856 189.686 435.321 186.422 433.186C183.157 431.051 179.281 429.357 175.016 428.201C170.751 427.045 166.179 426.451 161.562 426.451C156.946 426.451 152.374 427.045 148.109 428.201C143.843 429.357 139.968 431.051 136.703 433.186C133.439 435.321 130.849 437.856 129.082 440.646C127.315 443.436 126.406 446.426 126.406 449.446L161.562 449.446H196.719Z" stroke="white" stroke-width="6" mask="url(#path-13-inside-2_2188_195)"/>
</svg>
