<svg width="315" height="500" viewBox="0 0 315 500" fill="none" xmlns="http://www.w3.org/2000/svg">
<rect x="62.6943" y="420.791" width="189.611" height="77.7087" stroke="white" stroke-width="3"/>
<rect x="113.856" y="469.02" width="87.2866" height="29.4803" stroke="white" stroke-width="3"/>
<ellipse cx="158.001" cy="447.343" rx="3.51115" ry="3.44488" fill="white"/>
<mask id="path-4-inside-1_1767_7648" fill="white">
<path d="M204.65 422.244C204.65 418.366 203.482 414.527 201.214 410.944C198.945 407.362 195.62 404.107 191.428 401.365C187.236 398.623 182.259 396.448 176.782 394.964C171.305 393.48 165.435 392.717 159.507 392.717C153.578 392.717 147.708 393.48 142.231 394.964C136.754 396.448 131.777 398.623 127.585 401.365C123.394 404.107 120.068 407.362 117.8 410.944C115.531 414.527 114.363 418.367 114.363 422.244L159.507 422.244H204.65Z"/>
</mask>
<path d="M204.65 422.244C204.65 418.366 203.482 414.527 201.214 410.944C198.945 407.362 195.62 404.107 191.428 401.365C187.236 398.623 182.259 396.448 176.782 394.964C171.305 393.48 165.435 392.717 159.507 392.717C153.578 392.717 147.708 393.48 142.231 394.964C136.754 396.448 131.777 398.623 127.585 401.365C123.394 404.107 120.068 407.362 117.8 410.944C115.531 414.527 114.363 418.367 114.363 422.244L159.507 422.244H204.65Z" stroke="white" stroke-width="6" mask="url(#path-4-inside-1_1767_7648)"/>
<line y1="249.484" x2="315" y2="249.484" stroke="white" stroke-width="3"/>
<path d="M218.198 250C218.198 281.76 191.948 307.555 159.507 307.555C127.065 307.555 100.815 281.76 100.815 250C100.815 218.24 127.065 192.445 159.507 192.445C191.948 192.445 218.198 218.24 218.198 250Z" stroke="white" stroke-width="3"/>
<ellipse cx="160.008" cy="249.508" rx="3.51115" ry="3.44488" fill="white"/>
<rect x="62.6943" y="1.5" width="188.608" height="77.7087" stroke="white" stroke-width="3"/>
<rect x="113.856" y="1.5" width="87.2866" height="29.4803" stroke="white" stroke-width="3"/>
<ellipse cx="158.001" cy="51.6732" rx="3.51115" ry="3.44488" fill="white"/>
<mask id="path-11-inside-2_1767_7648" fill="white">
<path d="M204.65 77.7558C204.65 81.6334 203.482 85.4731 201.214 89.0555C198.945 92.638 195.62 95.8931 191.428 98.635C187.236 101.377 182.259 103.552 176.782 105.036C171.305 106.52 165.435 107.283 159.507 107.283C153.578 107.283 147.708 106.52 142.231 105.036C136.754 103.552 131.777 101.377 127.585 98.635C123.394 95.8931 120.068 92.638 117.8 89.0555C115.531 85.4731 114.363 81.6334 114.363 77.7558L159.507 77.7558H204.65Z"/>
</mask>
<path d="M204.65 77.7558C204.65 81.6334 203.482 85.4731 201.214 89.0555C198.945 92.638 195.62 95.8931 191.428 98.635C187.236 101.377 182.259 103.552 176.782 105.036C171.305 106.52 165.435 107.283 159.507 107.283C153.578 107.283 147.708 106.52 142.231 105.036C136.754 103.552 131.777 101.377 127.585 98.635C123.394 95.8931 120.068 92.638 117.8 89.0555C115.531 85.4731 114.363 81.6334 114.363 77.7558L159.507 77.7558H204.65Z" stroke="white" stroke-width="6" mask="url(#path-11-inside-2_1767_7648)"/>
<rect x="1.5" y="1.5" width="312" height="497" stroke="white" stroke-width="3"/>
</svg>
