<svg width="420" height="820" viewBox="0 0 420 820" fill="none" xmlns="http://www.w3.org/2000/svg">
<rect width="420" height="820" rx="10" fill="#04D361"/>
<rect width="400" height="60" transform="translate(10 10)" fill="#03983E" fill-opacity="0.5"/>
<rect width="400" height="60" transform="translate(10 133.333)" fill="#03983E" fill-opacity="0.5"/>
<rect width="400" height="60" transform="translate(10 256.667)" fill="#03983E" fill-opacity="0.5"/>
<rect width="400" height="60" transform="translate(10 380)" fill="#03983E" fill-opacity="0.5"/>
<rect width="400" height="60" transform="translate(10 503.333)" fill="#03983E" fill-opacity="0.5"/>
<rect width="400" height="60" transform="translate(10 626.667)" fill="#03983E" fill-opacity="0.5"/>
<rect width="400" height="60" transform="translate(10 750)" fill="#03983E" fill-opacity="0.5"/>
<rect x="11.5" y="11.5" width="397" height="797" stroke="white" stroke-width="3"/>
<rect x="115.696" y="11.5" width="188.608" height="77.7087" stroke="white" stroke-width="3"/>
<rect x="166.858" y="11.5" width="87.2866" height="29.4803" stroke="white" stroke-width="3"/>
<ellipse cx="211.003" cy="61.6732" rx="3.51115" ry="3.44488" fill="white"/>
<mask id="path-6-inside-1_2189_7752" fill="white">
<path d="M257.651 87.7558C257.651 91.6334 256.484 95.4731 254.215 99.0555C251.946 102.638 248.621 105.893 244.429 108.635C240.237 111.377 235.261 113.552 229.783 115.036C224.306 116.52 218.436 117.283 212.508 117.283C206.58 117.283 200.709 116.52 195.232 115.036C189.755 113.552 184.779 111.377 180.587 108.635C176.395 105.893 173.07 102.638 170.801 99.0555C168.532 95.4731 167.365 91.6334 167.365 87.7558L212.508 87.7558H257.651Z"/>
</mask>
<path d="M257.651 87.7558C257.651 91.6334 256.484 95.4731 254.215 99.0555C251.946 102.638 248.621 105.893 244.429 108.635C240.237 111.377 235.261 113.552 229.783 115.036C224.306 116.52 218.436 117.283 212.508 117.283C206.58 117.283 200.709 116.52 195.232 115.036C189.755 113.552 184.779 111.377 180.587 108.635C176.395 105.893 173.07 102.638 170.801 99.0555C168.532 95.4731 167.365 91.6334 167.365 87.7558L212.508 87.7558H257.651Z" stroke="white" stroke-width="6" mask="url(#path-6-inside-1_2189_7752)"/>
<path d="M210.191 351.858C242.632 351.858 268.882 377.653 268.882 409.413C268.882 441.173 242.633 466.968 210.191 466.969C177.75 466.969 151.5 441.173 151.5 409.413C151.5 377.653 177.75 351.858 210.191 351.858Z" stroke="white" stroke-width="3"/>
<line x1="10" y1="408.858" x2="410" y2="408.858" stroke="white" stroke-width="3"/>
<circle cx="210" cy="409" r="4" fill="white"/>
<rect x="115.194" y="730.791" width="189.611" height="77.7087" stroke="white" stroke-width="3"/>
<rect x="166.357" y="779.02" width="87.2866" height="29.4803" stroke="white" stroke-width="3"/>
<ellipse cx="210.501" cy="757.343" rx="3.51115" ry="3.44488" fill="white"/>
<mask id="path-13-inside-2_2189_7752" fill="white">
<path d="M257.15 732.244C257.15 728.366 255.982 724.527 253.713 720.944C251.445 717.362 248.119 714.107 243.927 711.365C239.735 708.623 234.759 706.448 229.282 704.964C223.805 703.48 217.935 702.717 212.006 702.717C206.078 702.717 200.208 703.48 194.731 704.964C189.254 706.448 184.277 708.623 180.085 711.365C175.893 714.107 172.568 717.362 170.299 720.944C168.031 724.527 166.863 728.367 166.863 732.244L212.006 732.244H257.15Z"/>
</mask>
<path d="M257.15 732.244C257.15 728.366 255.982 724.527 253.713 720.944C251.445 717.362 248.119 714.107 243.927 711.365C239.735 708.623 234.759 706.448 229.282 704.964C223.805 703.48 217.935 702.717 212.006 702.717C206.078 702.717 200.208 703.48 194.731 704.964C189.254 706.448 184.277 708.623 180.085 711.365C175.893 714.107 172.568 717.362 170.299 720.944C168.031 724.527 166.863 728.367 166.863 732.244L212.006 732.244H257.15Z" stroke="white" stroke-width="6" mask="url(#path-13-inside-2_2189_7752)"/>
</svg>
