<svg width="315" height="500" viewBox="0 0 315 500" fill="none" xmlns="http://www.w3.org/2000/svg">
<rect x="1.5" y="1.5" width="312" height="497" id="blue" fill="#1F7BF2" stroke="white" stroke-width="3"/>
<rect x="61.5" y="101.5" width="197" height="297" id="green" fill="#04D361" stroke="white" stroke-width="3"/>
<path d="M238.989 421.011C259.452 441.474 271.1 469.103 271.49 498L165 498H49.5101C49.9002 469.103 61.5484 441.474 82.0112 421.011C102.828 400.195 131.061 388.5 160.5 388.5C189.939 388.5 218.172 400.195 238.989 421.011Z" id="red" fill="#E20505" stroke="white" stroke-width="3"/>
<ellipse cx="158.002" cy="420.343" rx="3.51115" ry="3.44488" fill="white"/>
<path d="M218.197 250C218.197 281.76 191.948 307.555 159.506 307.555C127.065 307.555 100.815 281.76 100.815 250C100.815 218.24 127.065 192.445 159.506 192.445C191.948 192.445 218.197 218.24 218.197 250Z" id="red" fill="#E20505" stroke="white" stroke-width="3"/>
<line y1="249.484" x2="315" y2="249.484" stroke="white" stroke-width="3"/>
<ellipse cx="160.008" cy="249.508" rx="3.51115" ry="3.44488" fill="white"/>
<line x1="60" y1="189" x2="260" y2="189" stroke="white" stroke-width="3"/>
<line x1="60" y1="311" x2="260" y2="311" stroke="white" stroke-width="3"/>
<path d="M82.0111 78.9888C61.5484 58.5261 49.9002 30.8966 49.5101 2L160.5 2.00002L271.49 2.00002C271.1 30.8966 259.452 58.5261 238.989 78.9889C218.172 99.8054 189.939 111.5 160.5 111.5C131.061 111.5 102.828 99.8054 82.0111 78.9888Z" id="red" fill="#E20505" stroke="white" stroke-width="3"/>
<ellipse cx="158.001" cy="78.6732" rx="3.51115" ry="3.44488" fill="white"/>
</svg>
