<svg width="420" height="820" viewBox="0 0 420 820" fill="none" xmlns="http://www.w3.org/2000/svg">
<rect width="420" height="820" rx="10" fill="#04D361"/>
<rect x="11.5" y="11.5" width="397" height="797" fill="#1F7BF2"/>
<rect x="11.5" y="11.5" width="397" height="797" stroke="white" stroke-width="3"/>
<path d="M210 128.5C170.52 128.5 132.708 115.951 104.871 93.6816C77.4881 71.7752 62.0007 42.2668 61.5127 11.5L358.487 11.5C357.999 42.2669 342.512 71.7752 315.129 93.6816C287.292 115.951 249.48 128.5 210 128.5Z" fill="#F44336" stroke="white" stroke-width="3"/>
<ellipse cx="208.511" cy="96.1732" rx="3.51115" ry="3.44488" fill="white"/>
<rect x="86.5" y="146.5" width="247" height="527" fill="#04D361"/>
<rect x="86.5" y="146.5" width="247" height="527" stroke="white" stroke-width="3"/>
<line x1="85" y1="293.5" x2="335" y2="293.5" stroke="white" stroke-width="3"/>
<line x1="85" y1="523.5" x2="335" y2="523.5" stroke="white" stroke-width="3"/>
<path d="M210.191 351.575C242.632 351.575 268.882 377.37 268.882 409.129C268.882 440.889 242.633 466.685 210.191 466.685C177.75 466.685 151.5 440.889 151.5 409.129C151.5 377.37 177.75 351.575 210.191 351.575Z" fill="#F44336" stroke="white" stroke-width="3"/>
<line x1="10" y1="408.575" x2="410" y2="408.575" stroke="white" stroke-width="3"/>
<circle cx="210" cy="409" r="4" fill="white"/>
<path d="M210 691.5C249.48 691.5 287.292 704.049 315.129 726.318C342.512 748.225 357.999 777.733 358.487 808.5H61.5127C62.0007 777.733 77.4881 748.225 104.871 726.318C132.708 704.049 170.52 691.5 210 691.5Z" fill="#F44336" stroke="white" stroke-width="3"/>
<ellipse cx="208.511" cy="722.843" rx="3.51115" ry="3.44488" fill="white"/>
</svg>
