<svg width="320" height="520" viewBox="0 0 320 520" fill="none" xmlns="http://www.w3.org/2000/svg">
<rect width="320" height="520" rx="10" fill="#04D361"/>
<rect x="11.5" y="11.5" width="297" height="497" fill="#1F7BF2"/>
<rect x="11.5" y="11.5" width="297" height="497" stroke="white" stroke-width="3"/>
<path d="M160 98.5C133.828 98.5 108.756 89.1412 90.293 72.5244C72.2295 56.2673 61.9469 34.3763 61.5156 11.5L258.484 11.5C258.053 34.3763 247.77 56.2673 229.707 72.5244C211.244 89.1412 186.172 98.5 160 98.5Z" fill="#F44336" stroke="white" stroke-width="3"/>
<ellipse cx="159.007" cy="74.6298" rx="2.34076" ry="2.58366" fill="white"/>
<rect x="68.5" y="104.083" width="183" height="312" fill="#04D361"/>
<rect x="68.5" y="104.083" width="183" height="312" stroke="white" stroke-width="3"/>
<line x1="67" y1="321.083" x2="253" y2="321.083" stroke="white" stroke-width="3"/>
<line x1="67" y1="196.083" x2="253" y2="196.083" stroke="white" stroke-width="3"/>
<path d="M160.191 202.575C192.632 202.575 218.882 228.37 218.882 260.129C218.882 291.889 192.633 317.685 160.191 317.685C127.75 317.685 101.5 291.889 101.5 260.129C101.5 228.37 127.75 202.575 160.191 202.575Z" fill="#F44336" stroke="white" stroke-width="3"/>
<line x1="10" y1="259.5" x2="310" y2="259.5" stroke="white" stroke-width="3"/>
<ellipse cx="159.511" cy="259.52" rx="3.51115" ry="3.44488" fill="white"/>
<path d="M160 421.5C186.172 421.5 211.244 430.859 229.707 447.476C247.77 463.733 258.053 485.624 258.484 508.5H61.5156C61.9469 485.624 72.2295 463.733 90.293 447.476C108.756 430.859 133.828 421.5 160 421.5Z" fill="#F44336" stroke="white" stroke-width="3"/>
<ellipse cx="159.007" cy="444.632" rx="2.34076" ry="2.58366" fill="white"/>
</svg>
