<svg width="400" height="800" viewBox="0 0 400 800" fill="none" xmlns="http://www.w3.org/2000/svg">
<rect x="1.5" y="1.5" width="397" height="797" stroke="white" stroke-width="3"/>
<path d="M200 118.5C160.52 118.5 122.708 105.951 94.8711 83.6816C67.4881 61.7752 52.0007 32.2668 51.5127 1.5L348.487 1.5C347.999 32.2669 332.512 61.7752 305.129 83.6816C277.292 105.951 239.48 118.5 200 118.5Z" stroke="white" stroke-width="3"/>
<ellipse cx="198.511" cy="86.1732" rx="3.51115" ry="3.44488" fill="white"/>
<rect x="76.5" y="136.5" width="247" height="527" stroke="white" stroke-width="3"/>
<line x1="75" y1="283.5" x2="325" y2="283.5" stroke="white" stroke-width="3"/>
<line x1="75" y1="513.5" x2="325" y2="513.5" stroke="white" stroke-width="3"/>
<line y1="398.575" x2="400" y2="398.575" stroke="white" stroke-width="3"/>
<ellipse cx="199.511" cy="399.52" rx="3.51115" ry="3.44488" fill="white"/>
<path d="M200.191 341.575C232.632 341.575 258.882 367.37 258.882 399.129C258.882 430.889 232.633 456.685 200.191 456.685C167.75 456.685 141.5 430.889 141.5 399.129C141.5 367.37 167.75 341.575 200.191 341.575Z" stroke="white" stroke-width="3"/>
<path d="M200 681.5C239.48 681.5 277.292 694.049 305.129 716.318C332.512 738.225 347.999 767.733 348.487 798.5H51.5127C52.0007 767.733 67.4881 738.225 94.8711 716.318C122.708 694.049 160.52 681.5 200 681.5Z" stroke="white" stroke-width="3"/>
<ellipse cx="198.511" cy="712.843" rx="3.51115" ry="3.44488" fill="white"/>
</svg>
