<svg width="29" height="14" viewBox="0 0 29 14" fill="none" xmlns="http://www.w3.org/2000/svg">
<path d="M25.2029 11.919C24.6032 11.8892 24.6903 11.1809 24.7587 10.3762L23.1414 10.3723C23.0735 10.9234 23.064 12.0133 22.3695 11.9239C21.7088 11.8389 21.8937 10.9064 21.9332 10.3758C21.2082 10.3758 20.517 10.3695 19.7952 10.351C19.7952 10.351 19.3199 9.62713 19.3526 8.73884C19.3988 7.48171 19.7862 6.66708 20.243 5.76578C20.5893 5.08258 21.4893 3.84727 21.4893 3.84727C22.2691 4.12714 23.1781 4.11659 23.7581 3.97375C25.1247 3.63723 25.8223 2.328 25.9576 2.03318C26.102 1.71848 26.1654 1.35239 26.2853 1.21151C26.5253 0.92955 26.9686 0.93991 27.191 1.20258C27.6723 1.77146 27.9107 3.14504 28.0104 4.16587C28.1374 5.46542 28.1457 7.24518 28.0449 8.60644C27.9949 9.28271 27.8606 9.61648 27.4498 9.97009C26.9724 10.381 25.9104 10.3778 25.9104 10.3778C25.8717 11.2548 25.7914 11.9483 25.2029 11.919Z" fill="white"/>
<path d="M19.1187 1.86292C19.5079 2.47665 19.9766 2.96918 20.4089 3.28774C20.4089 3.28774 18.4708 6.13251 18.212 7.78438C17.9853 9.2313 18.4406 10.3762 18.4406 10.3762C17.6159 10.3685 16.6317 10.5101 15.7667 10.7608C15.7667 10.7608 15.2237 9.66041 15.6675 7.97668C16.3455 5.40497 19.1187 1.86292 19.1187 1.86292Z" fill="#140750"/>
<path d="M14.8636 6.67999C13.8664 9.76898 14.5997 11.0568 14.5997 11.0568C13.5492 11.2897 12.875 11.482 11.6936 11.4978C11.6187 12.2421 11.6014 13.0886 11.003 13.0588C10.2657 13.0221 10.4834 12.1832 10.4845 11.495C9.6466 11.4699 8.82795 11.4407 7.98394 11.3034C7.81217 12.0819 7.76446 12.9166 7.08128 12.7868C6.45432 12.6677 6.68919 11.8264 6.82512 11.1612C6.67374 11.138 6.54612 11.1076 6.36344 11.0696C6.36344 11.0696 5.70718 9.92903 5.8778 8.08159C6.00851 6.66635 7.50937 4.55073 7.50937 4.55073C11.427 2.88242 12.2493 2.51682 15.9358 0.843793C16.7122 0.491439 16.8305 0.418122 17.4252 0.128133C17.6281 0.0292052 17.932 0.00485778 18.1262 0.280097C18.3282 0.585689 18.2532 0.47641 18.4934 0.812689C18.4934 0.812689 15.6682 4.1879 14.8636 6.67999Z" fill="white"/>
<path d="M3.01427 10.3952C2.87829 11.2185 2.60482 11.922 3.29378 12.0946C4.02697 12.2536 4.03065 11.2336 4.20863 10.6359C4.4597 10.7005 4.71717 10.7617 4.97851 10.8194C4.97851 10.8194 4.48303 9.64162 4.62947 8.17581C4.73269 7.14256 5.66445 5.24036 5.66445 5.24036C4.47258 5.66243 3.36382 6.15226 2.15165 6.32458C1.00581 6.48747 0.0162483 7.01621 0.121461 8.36392C0.243807 9.93116 2.27774 10.2445 3.01427 10.3952Z" fill="white"/>
</svg>
