<svg width="31" height="14" viewBox="0 0 31 14" fill="none" xmlns="http://www.w3.org/2000/svg">
<path d="M21.5419 12.8105C21.5419 12.8105 21.0327 11.9753 21.0676 10.9503C21.1171 9.49977 21.5323 8.55982 22.0217 7.51985C22.3927 6.73154 23.357 5.30619 23.357 5.30619C24.1925 5.62911 25.1664 5.61693 25.7879 5.45212C27.252 5.06383 27.9995 3.55318 28.1445 3.213C28.2992 2.84988 28.3671 2.42747 28.4956 2.26492C28.7527 1.93958 29.2277 1.95153 29.466 2.25461C29.9816 2.91102 30.237 4.49593 30.3439 5.67382C30.48 7.1733 30.4888 9.22684 30.3809 10.7975C30.3273 11.5778 30.1834 11.963 29.7432 12.371C27.795 13.5603 24.0243 12.8661 21.5419 12.8105Z" fill="white"/>
<path d="M20.8171 3.0166C21.2341 3.72476 21.7363 4.29306 22.1995 4.66063C22.1995 4.66063 20.1229 7.94306 19.8456 9.84906C19.6028 11.5186 20.0905 12.8396 20.0905 12.8396C18.9115 13.0456 18.3927 13.2369 17.2257 13.3694C17.2257 13.3694 16.6439 12.0138 17.1194 10.071C17.8458 7.10363 20.8171 3.0166 20.8171 3.0166Z" fill="#140750"/>
<path d="M16.2581 8.57484C15.1897 12.1391 15.9754 13.625 15.9754 13.625C12.5761 13.9798 10.4994 14.0902 7.15076 13.6398C7.15076 13.6398 6.44762 12.3238 6.63043 10.1921C6.77048 8.55912 8.37855 6.11803 8.37855 6.11803C12.576 4.19305 13.4571 3.77123 17.4069 1.84081C18.2387 1.43425 18.3654 1.34963 19.0027 1.01502C19.22 0.900876 19.5456 0.872783 19.7537 1.19037C19.9702 1.54297 19.8898 1.4169 20.1472 1.80492C20.1472 1.80492 17.1201 5.69935 16.2581 8.57484Z" fill="white"/>
<path d="M5.66693 13.351C5.66693 13.351 5.13606 11.9921 5.29296 10.3008C5.40356 9.10855 6.40187 6.9137 6.40187 6.9137C5.12487 7.40071 3.93691 7.9659 2.63815 8.16473C1.41047 8.35268 0.493594 8.95826 0.462951 10.5178C0.447384 11.3102 1.03162 11.9801 1.74408 12.3395C2.82649 12.8404 3.90631 13.0843 5.66693 13.351Z" fill="white"/>
</svg>
