<svg width="31" height="15" viewBox="0 0 31 15" fill="none" xmlns="http://www.w3.org/2000/svg">
<path d="M26.9974 12.6391C26.6901 13.7164 26.4824 13.7948 26.2204 12.6602L25.6351 12.6615C25.3108 14.3434 25.0256 13.0626 24.9943 12.6393L24.4872 12.6362C24.1405 14.1476 23.8805 13.293 23.788 12.6108C23.4698 12.5999 23.4994 12.5853 23.17 12.5921C22.9585 13.7313 22.7022 13.9421 22.4542 12.5889C22.212 12.5936 22.0477 12.6014 21.8083 12.633C21.6128 14.0811 21.3695 13.666 21.1072 12.6163C21.1072 12.6163 20.5978 11.7289 20.6328 10.6399C20.6823 9.09879 21.0976 8.10012 21.5871 6.99519C21.9582 6.15763 22.9228 4.64323 22.9228 4.64323C23.7585 4.98633 24.7327 4.97339 25.3543 4.79829C26.8189 4.38574 27.5665 2.78072 27.7115 2.41929C27.8663 2.03349 27.9343 1.58469 28.0628 1.41198C28.32 1.06632 28.7951 1.07902 29.0334 1.40103C29.5492 2.09845 29.8047 3.78237 29.9116 5.03383C30.0477 6.62699 30.0565 8.80882 29.9485 10.4776C29.8949 11.3067 29.751 11.7159 29.3107 12.1494C29.0814 12.3751 28.7263 12.4989 28.4042 12.5668C28.0818 14.2447 27.7183 12.9228 27.661 12.6492C27.4197 12.6413 27.2587 12.6311 26.9974 12.6391Z" fill="white"/>
<path d="M20.3822 2.21063C20.7993 2.96303 21.3017 3.56683 21.765 3.95736C21.765 3.95736 19.6879 7.44484 19.4105 9.46991C19.1675 11.2437 19.6555 12.6472 19.6555 12.6472C19.3412 13.8525 19.1006 14.1704 18.6753 12.7041C18.3254 12.7454 18.045 12.8472 17.6922 12.9294C17.6448 13.8249 17.5191 14.7205 16.7899 13.1188C16.7899 13.1188 16.2079 11.7698 16.6836 9.70572C17.4101 6.55298 20.3822 2.21063 20.3822 2.21063Z" fill="#140750"/>
<path d="M15.8217 8.11601C14.753 11.9029 15.5389 13.4817 15.5389 13.4817C15.397 14.3663 15.3143 15.1251 14.6849 13.6699C14.4413 13.718 14.1948 13.7627 13.9805 13.7971C13.7808 14.996 13.6217 15.3 13.1422 13.9018C12.7426 13.9551 12.4705 13.9857 12.4705 13.9857C12.2514 15.0994 12.0049 15.4724 11.6551 14.0444C11.6551 14.0444 11.2001 14.035 10.9945 14.0276C10.6493 15.3062 10.3718 15.3573 10.1746 13.98C9.97887 13.969 9.77901 13.9565 9.58912 13.9406C9.2854 14.7237 8.96536 15.5249 8.6934 13.818C8.41443 13.7876 8.22691 13.7777 8.11761 13.7565C7.62499 15.128 7.38796 14.776 7.20673 13.6096C7.0445 13.5811 6.90772 13.5438 6.71195 13.4972C6.71195 13.4972 6.00862 12.099 6.19148 9.83417C6.33156 8.09918 7.94005 5.5056 7.94005 5.5056C12.1387 3.46037 13.0199 3.01219 16.9707 0.96118C17.8028 0.529219 17.9296 0.439314 18.567 0.0838088C18.7844 -0.0374696 19.1101 -0.0673177 19.3182 0.270105C19.5347 0.64474 19.4544 0.510771 19.7118 0.923024C19.7118 0.923024 16.6839 5.06089 15.8217 8.11601Z" fill="white"/>
<path d="M5.22788 13.1905C5.22788 13.1905 4.69687 11.7466 4.85381 9.94966C4.96444 8.68298 5.96301 6.35101 5.96301 6.35101C4.68567 6.86845 3.4974 7.46895 2.1983 7.6802C0.970287 7.87988 0.0531723 8.5233 0.0225209 10.1803C0.00694989 11.0222 0.591339 11.7339 1.30399 12.1157C1.29981 12.5459 1.26274 14.0123 2.05642 12.381C2.24768 12.4534 2.23725 12.46 2.45572 12.5256C2.47936 14.1424 2.85509 13.4822 3.2414 12.7482L3.71134 12.8576C3.75014 14.2287 4.09338 13.9564 4.48373 13.054C4.78258 13.1237 4.91803 13.1433 5.22788 13.1905Z" fill="white"/>
</svg>
